<?xml version="1.0" encoding="UTF-8"?>
<!DOCTYPE svg PUBLIC "-//W3C//DTD SVG 1.1//EN" "http://www.w3.org/Graphics/SVG/1.1/DTD/svg11.dtd">
<!-- Creator: CorelDRAW 2020 (64-Bit) -->
<svg xmlns="http://www.w3.org/2000/svg" xml:space="preserve" width="2.66666in" height="2.81235in" version="1.1" style="shape-rendering:geometricPrecision; text-rendering:geometricPrecision; image-rendering:optimizeQuality; fill-rule:evenodd; clip-rule:evenodd" viewBox="0 0 932.01 982.93" xmlns:xlink="http://www.w3.org/1999/xlink" xmlns:xodm="http://www.corel.com/coreldraw/odm/2003">
 <defs>
  <style type="text/css">
   <![CDATA[
    .fil0 {fill:#FEFEFE}
    .fil1 {fill:#243048}
   ]]>
  </style>
 </defs>
 <g id="Layer_x0020_1">
  <metadata id="CorelCorpID_0Corel-Layer"/>
  <g id="_2479191605696">
   <polygon class="fil0" points="932.01,982.93 -0,982.93 -0,0 932.01,0 "/>
   <path class="fil1" d="M369.04 355.32l9.14 0 0 -44.79c19.33,0 17.04,-1.31 30.3,31.87 1.55,3.88 3.41,9.25 5.36,12.93l10.97 0c-0.8,-3.42 -3.23,-8.54 -4.57,-11.88 -2.95,-7.36 -9.15,-24.32 -13.78,-30.1l-3.59 -4.64c20.97,-1.74 25,-54.85 -4.57,-54.85l-29.25 0 0 101.47zm30.16 -57.59c7.8,0 10.97,-8.54 10.97,-16.46 0,-8.91 -4.64,-15.54 -13.71,-15.54l-18.28 0 0 32 21.02 0zm340.06 1.83c0,15.61 -0.57,21.94 5.33,36.71 2.82,7.04 7.82,13.44 14.03,17.05 19.39,11.28 39.14,-8.96 39.14,-15.37l0 -34.74 -27.42 0 0 12.8 18.28 0 0 16.45c0,9.06 -40.22,29.31 -40.22,-28.34 0,-47.61 28.72,-42.97 35.29,-32.55 2.82,4.47 2.94,10.12 4.93,14.27 3.1,-0.72 4.7,-1.92 8.23,-2.74 -2.72,-11.68 -6.48,-31.08 -25.6,-31.08 -23.85,0 -31.99,27.9 -31.99,47.53l0 0zm-308.06 55.76c22.33,0 37.46,3.28 46.47,-15.69 9.78,-20.6 12.32,-85.77 -21.78,-85.77l-24.68 0 0 101.47zm20.11 -12.8c9.26,0 14.59,-2.15 17.85,-8.66 6.69,-13.37 7.12,-46.31 0.43,-58.06 -6.42,-11.27 -13.5,-9.15 -29.24,-9.15l0 73.13c0,3.82 3.17,2.74 10.97,2.74l0 0zm98.73 -37.48c0,16.16 4.39,37.34 17.34,46.65 6.36,4.57 15.36,6.82 24.37,3.29 4.7,-1.85 16.79,-10.61 16.79,-15.2l0 -36.56 -27.42 0c0,15.94 -3.64,12.8 19.19,12.8l0 14.63c0,14.21 -40.22,26.28 -40.22,-20.11 0,-12.43 -0.27,-32.26 9.78,-41.4 6.75,-6.14 18.8,-6.54 25.14,2.83 1.84,2.72 4.05,9.89 4.39,13.9 4.4,-0.36 4.21,-1.81 8.23,-2.74 0,-8.01 -3.51,-16.39 -6.9,-21.43 -13.19,-19.58 -50.69,-12.14 -50.69,43.37l0 0zm-239.5 50.28l47.53 0 0 -12.8 -38.39 0 0 -31.08c0,-2.11 0.64,-2.74 2.74,-2.74l31.99 0 0 -11.88 -31.99 0c-2.11,0 -2.74,-0.63 -2.74,-2.74l0 -27.42 37.48 0c0,-8.92 1.24,-12.8 -2.74,-12.8l-43.88 0 0 101.47zm-58.5 -2.74c0,4.18 10.05,4.18 10.05,0l0 -38.39c17.87,0 32.53,3.43 37.71,-18.96 0.34,-1.48 1.5,-10.37 1.5,-12.12 0,-1.64 -1.17,-9.88 -1.5,-11.21 -5.55,-22.56 -21.24,-18.04 -47.77,-18.04l0 98.72zm26.51 -51.19c8.74,0 12.8,-6.72 12.8,-15.54 0,-22.25 -7.01,-19.2 -29.25,-19.2l0 34.74 16.45 0zm523.79 53.93l9.14 0c1.43,-6.12 6.3,-25.47 6.4,-30.16 31.5,0 24.85,-3.81 29.25,13.71 1.06,4.2 3.3,12.21 3.66,16.45l10.05 0c0,-5.36 -1.61,-8.51 -2.75,-12.79l-19.01 -75.15c-1.01,-4.05 -2.84,-9.36 -2.93,-13.53l-10.05 0c-2.76,11.86 -23.77,95.07 -23.77,101.47l0 0zm29.25 -85.01c-2.95,2.16 -1.36,0.43 -2.13,5.18 -1.4,8.58 -7.92,32.53 -7.92,37.79l19.2 0c-0.55,-6.66 -3.33,-14.73 -4.8,-21.71 -1.12,-5.34 -4.35,-15.21 -4.35,-21.25l0 0zm-218.48 85.01l10.06 0c0.15,-6.7 5.79,-22.87 6.4,-30.16l25.6 0c2.36,10.14 4.99,20.2 7.31,30.16l10.06 0c-0.26,-3.14 -4.8,-20.19 -6.02,-25.06 -6.38,-25.39 -13.76,-51.48 -19.57,-76.41l-10.06 0c-0.08,3.56 -4.53,20.87 -5.67,25.41l-18.1 76.06zm28.34 -85.93c0,7.63 -2.67,15.39 -4.18,22.32 -1.7,7.79 -3.23,14.14 -4.96,21.55l20.11 0 -7.84 -33.3c-0.75,-3.42 -0.98,-6.01 -2.16,-8.81 -0.9,-2.13 -0.31,-0.8 -0.98,-1.76l0 0zm-153.57 85.93l9.14 0c1.43,-6.12 6.3,-25.47 6.4,-30.16 31.5,0 24.85,-3.81 29.25,13.71 1.06,4.2 3.3,12.21 3.66,16.45l10.05 0c0,-5.36 -1.61,-8.51 -2.75,-12.79 -1.11,-4.21 -1.96,-7.86 -3.1,-12.44 -1.93,-7.74 -18.73,-71.58 -18.83,-76.24l-10.05 0 -21.02 87.76c-1.03,4.25 -2.75,8.72 -2.75,13.7l0 0zm29.25 -85.01c-2.95,2.16 -1.36,0.43 -2.14,5.18l-3.34 15.86c-1.16,4.76 -4.58,17.87 -4.58,21.93l19.2 0c-0.81,-9.74 -9.14,-34.49 -9.14,-42.96l0 0zm-140.77 -24.68l10.05 0 0.92 -79.53c0,4.55 6.77,33.53 8.4,40.05 3.15,12.57 5.96,26.57 8.96,39.48l9.14 0c0.1,-1.26 15.3,-70.1 17.18,-76.06l0.79 -1.95c0.06,-0.14 0.18,-0.42 0.31,-0.61l0 78.62 10.06 0 0 -102.38 -13.71 0c-0.08,3.69 -1.25,6.94 -2.06,10.74l-14.22 62.57c-0.6,2.57 -0.62,2.66 -1.15,5.25l-1.77 5.54c-0.29,-3.43 -1.44,-6.63 -2.21,-10.59l-16.07 -73.51 -14.62 0 0 102.38zm141.69 0l9.14 0 0 -77.7 17.63 39.04c3.02,7.02 5.63,12.7 8.63,19.71 1.57,3.67 2.85,6.53 4.51,10.11 4.55,9.76 0.77,8.83 14.02,8.83l0 -102.38 -10.05 0 0 75.87c-2.06,-2.37 -7.29,-15.27 -8.83,-18.59 -5.73,-12.26 -10.64,-25.46 -16.76,-38.09 -1.46,-3 -7.61,-16.55 -8.23,-19.2l-10.06 0 0 102.38zm188.31 0l10.06 0 0 -44.79c20.63,0 18.18,-2.2 32.38,31.61 1.45,3.47 4.81,9.73 5.1,13.18l12.8 0c-1.95,-3.68 -3.3,-8 -5.17,-12.2 -1.95,-4.38 -3.38,-7.75 -5.14,-12.23 -6.72,-17.06 -8.24,-14.41 -13.45,-22.2 26.75,-6.23 22.88,-55.76 -1.83,-55.76l-34.74 0 0 102.38zm30.17 -57.59c9.85,0 14.63,-7.72 14.63,-17.37 0,-19.92 -20.9,-15.54 -34.74,-15.54l0 32.91 20.11 0zm-93.24 57.59l51.19 0 0 -12.8 -41.14 0 0 -33.82 37.48 0 0 -12.8 -37.48 0 0 -30.17 40.22 0 0 -12.8 -50.27 0 0 102.38zm-188.31 0l51.19 0 0 -12.8 -41.13 0 0 -33.82 37.48 0 0 -12.8 -37.48 0 0 -30.17 40.22 0 0 -12.8 -50.28 0 0 102.38zm-140.77 0l51.19 0 0 -12.8 -41.14 0 0 -33.82 37.48 0 0 -12.8 -37.48 0 0 -30.17 39.31 0 0 -12.8 -49.36 0 0 102.38zm-63.07 -102.38l0 102.38 10.06 0c0,-9.75 0.06,-19.53 -0.03,-29.28 -0.13,-14.13 6.68,-11.69 9.17,-21l1.83 -0c0.92,3.92 19.92,44.73 22.86,50.28l12.8 0c-5.08,-9.6 -28.19,-56.68 -29.25,-61.25 3.87,-5.78 26.57,-37.93 27.42,-41.14l-12.8 0c-3.74,7.07 -18.45,27.6 -23.95,36.39 -1.48,2.36 -2.22,3.79 -3.83,6.22l-4.21 5.84 0 -48.45 -10.06 0zm569.5 0c-3.47,0 -3.15,4.36 -4.76,10.79 -0.99,3.99 -2.29,9.18 -3.29,13.17 -2.55,10.21 -18.17,74.01 -20.3,78.43l10.97 0c0.22,-2.63 6.49,-28.46 7.31,-30.17l27.42 0c1.14,4.88 2.44,9.76 3.66,14.63 0.99,3.95 3.57,11.68 3.66,15.54l11.88 0c-1.7,-3.55 -18.83,-68.77 -21.35,-77.38l-5.11 -19.57c-1.03,-4.33 -0.94,-5.27 -3.94,-5.44l-6.16 0zm2.74 14.63c0,8.22 -7.77,34.96 -10.06,44.79l21.03 0c-0.03,-1.21 -9.37,-42.26 -10.97,-44.79l0 0zm-242.24 -1.83l21.94 0 0 89.58 10.05 0 0 -89.58 21.94 0 0 -12.8 -53.93 0 0 12.8zm194.71 89.58l10.05 0 0 -102.38 -10.05 0 0 102.38zm-176.43 236.76l6.4 0 0 -47.53c2.73,3.14 4.05,7.84 5.78,11.58l14.6 31.11c2.56,5.39 1.44,4.85 8.86,4.85l0 -63.07 -6.4 0 0 47.53c-2.7,-3.1 -3.73,-7.51 -5.78,-11.59 -2.7,-5.37 -15.19,-31.77 -16.16,-35.95l-7.31 0 0 63.07zm-184.65 0c15.58,0 33.82,3.35 33.82,-18.28 0,-9.22 -4.02,-10.61 -7.31,-15.54 10.27,-15.33 1.77,-29.25 -6.4,-29.25l-20.11 0 0 63.07zm13.71 -36.57c7.94,0 11.88,-2.05 11.88,-10.05 0,-5.38 -2.79,-9.14 -8.23,-9.14l-10.97 0 0 19.2 7.31 0zm0.91 29.25c7.98,0 12.8,-2.34 12.8,-10.97 0,-12.89 -10.53,-10.97 -21.02,-10.97l0 21.94 8.23 0zm214.82 7.31c14.64,0 26.14,2.48 32.04,-9.1 7.82,-15.37 7.07,-53.98 -12.84,-53.98l-19.19 0 0 63.07zm11.88 -7.31c14.48,0 18.28,-7.4 18.28,-21.03 0,-27.51 -4.8,-27.42 -23.76,-27.42l0 48.45 5.48 0zm80.44 7.31l5.48 0 0 -47.53c3.45,2.53 16.75,34.46 20.1,41.15 1.16,2.32 2.09,3.55 2.75,6.39l6.4 0 0 -63.07 -5.49 0 0 48.45c-2.02,-2.32 -2,-3.21 -3.13,-6.01 -3.73,-9.2 -14.1,-28.7 -17.48,-37.37 -2.15,-5.52 -0.78,-5.07 -8.64,-5.07l0 63.07zm-491.8 0l5.48 0 0 -28.34c15.66,0 13.04,1.62 21.63,19.5 1.53,3.18 2.48,6.04 3.96,8.84l7.31 0c-0.75,-3.21 -1.95,-4.54 -3.27,-7.7 -1.38,-3.31 -2.1,-4.56 -3.39,-7.58 -1.43,-3.35 -1.64,-4.55 -3.54,-7.43 -1.79,-2.72 -3.67,-4.05 -5.34,-6.55 17.11,-1.42 14.65,-33.82 0.91,-33.82l-23.77 0 0 63.07zm21.94 -35.65c2.09,0 4.44,-2.33 5.35,-3.8 2.72,-4.39 2.72,-11.21 -1.38,-14.8 -4.08,-3.57 -13.31,-2.43 -20.43,-2.43l0 21.03 16.45 0zm443.16 36.56c9.94,-0.72 19.39,-10.81 19.39,-33.82 0,-10 -3.53,-23.24 -11.1,-28.21 -18.07,-11.85 -30.95,7.19 -30.95,27.29l0 7.31c0,16.25 10.06,26.68 20.34,27.42l2.32 0zm-0.72 -7.31c9.39,0 13.71,-13.69 13.71,-22.85 0,-36.25 -21.11,-29.63 -26.5,-20.11 -3.1,5.47 -8.35,42.96 12.79,42.96l0 0zm112.43 -41.13c0,15.48 11.75,16.77 20.67,20.47 11.89,4.93 7.26,20.67 -3.3,20.67 -7.88,0 -12.8,-6.31 -12.8,-14.63 -6.83,0 -9.14,2.37 -2.74,13.71 2.71,4.81 7.2,7.51 11.96,8.23l5.27 0c7.73,-1.16 14.77,-7.42 14.77,-18.28 0,-24.81 -27.42,-15.81 -27.42,-29.25 0,-6.76 1.2,-10.06 10.97,-10.06 6.05,0 9.01,5.83 9.14,11.88 4.86,0 5.48,0.39 5.48,-3.66 0,-14.89 -17.56,-21.39 -27.26,-11.72 -2.35,2.35 -4.74,8.15 -4.74,12.63l0 0zm-532.93 47.53l32.91 0 0 -7.31 -26.51 0 0 -21.94 23.77 0 0 -7.31 -23.77 0 0 -19.2 25.6 0 0 -7.31 -31.99 0 0 63.07zm218.48 0l6.4 0c0,-21.57 -2.63,-20.55 7.31,-31.99 0.91,3.93 13.63,27.74 14.62,31.99l8.23 0 -16.44 -32.93c-0.29,-0.58 -0.81,-1.69 -1.24,-2.41 -1.1,-1.83 -0.46,-0.93 -1.52,-2.14l9.15 -12.79c3.01,-4.26 6.21,-8.43 9.14,-12.81l-8.23 0 -21.03 30.17 0 -30.17 -6.4 0 0 63.07zm274.24 0l32.91 0 0 -7.31 -24.68 0c-4.51,0 -2.75,-7.21 -2.75,-19.2 0,-2.11 0.64,-2.74 2.75,-2.74l21.94 0 0 -7.31 -24.68 0 0 -19.2 26.51 0 0 -7.31 -31.99 0 0 63.07zm-451.58 0l6.4 0 0 -25.6c13.58,0 27.42,2.37 27.42,-20.11 0,-21.14 -15.76,-17.37 -33.82,-17.37l0 63.07zm19.2 -33.82c5.61,0 8.23,-4.35 8.23,-10.05 0,-14.15 -7.43,-11.88 -21.03,-11.88l0 21.94 12.8 0zm21.94 11.88c0,14.76 6.85,21.56 14.33,22.85l5.49 0c4.79,-0.8 9.21,-3.65 11.6,-7.89 5.22,-9.28 3.32,-42.97 3.32,-56.1l-6.4 0c0,11.22 1.87,46.04 -2.53,52.32 -0.57,0.82 -2.38,2.49 -3.42,2.98 -8.41,4.01 -16,-2.26 -16,-11.42l0 -43.88 -6.4 0 0 41.14zm524.71 -32.91l-7.31 28.34 14.63 0c-1.07,-2.23 -6.3,-23.96 -7.31,-28.34l0 0zm-439.69 54.85l27.42 0 0 -7.31 -21.03 0 0 -55.76 -6.4 0 0 63.07zm407.7 0l6.4 0 0 -63.07 -6.4 0 0 63.07zm-372.05 0l5.48 0 0 -63.07 -5.48 0 0 63.07zm92.33 0l5.48 0 0 -63.07 -5.48 0 0 63.07zm-566.19 -465.28l898.93 0 0 126.14 -9.14 0 0 76.79c-2.95,-3.4 -6.71,-14.17 -9.14,-19.2 -1.48,-3.05 -2.71,-6.11 -4.27,-9.45l-17.37 -39.31c-3.46,-7.43 -2.1,-8.67 -7.08,-8.84l-6.94 0 0 102.38 10.06 0 0 -75.87c0.83,0.95 0.05,-0.31 1.18,1.56l15.93 36.18c2.74,6.34 5.59,12.96 8.49,18.94 1.46,3 7.61,16.55 8.23,19.2l10.06 0 0 8.23 -8.23 0 0 74.96c-2.86,-2.09 -7.01,-13.81 -8.62,-17.89 -2.61,-6.56 -5.12,-12.63 -7.81,-18.7 -1.49,-3.37 -14.78,-34.99 -15.56,-38.37l-10.06 0 0 98.72c0,3.65 2.6,2.74 9.14,2.74l0 -75.87 2.38 4.02 13.94 33.59c2.55,6.41 4.89,12.37 7.76,18.75l7.91 19.51 9.14 0 0 127.06c-1.93,-8.27 -16.95,-58.01 -17.37,-63.07l-7.31 0c-1.78,7.61 -16.07,58.47 -16.45,63.07l6.4 0 4.58 -19.19 18.27 -0c0.77,3.28 1.79,6.53 2.56,9.33 1.03,3.8 1.44,6.77 2.93,9.87l6.4 0 0 423.51 -898.93 0 0 -888.79zm660.34 338.21l9.14 0 0 -75.87c1.55,2.23 7,16.36 8.25,19.17l20.23 48.33c3.73,9.35 1.31,8.37 12.66,8.37l0 -101.47 -9.14 0 0 74.96c-2.1,-2.41 -7.05,-15.31 -8.23,-18.28l-16.14 -38.7c-9.16,-20.44 -3.76,-17.97 -16.77,-17.97l0 101.47z"/>
   <path class="fil1" d="M688.08 962.54c0,3.36 2.13,2.66 7.3,2.66l0 -22.18c9.01,0 11.75,-0.36 17.08,8.24 1.79,2.89 6.9,11.16 7.57,13.94l8.22 0c-1.93,-8.04 -11.95,-19.22 -14.61,-23.07 17.49,-3.96 11.82,-26.62 0,-26.62l-25.56 0 0 47.03zm20.09 -25.73l-12.78 0 0 -15.09 15.52 0c5.17,0 7.66,3.93 6.78,8.4 -0.95,4.83 -3.97,6.69 -9.52,6.69l0 0zm-575.17 28.4c8.32,0 6.39,1.03 6.39,-16.86 0,-6.51 0,-13.01 0,-19.52 3.25,3.64 8.48,13.26 11.14,17.57 1.91,3.09 10.13,16.46 10.77,18.81 3.76,0 7.3,1.09 7.3,-2.66l0 -47.03 -6.39 0 0 36.38c-2.26,-1.61 -4.85,-6.38 -6.35,-8.92 -2.38,-4.05 -14.75,-27.46 -18.3,-27.46l-4.56 0 0 49.69zm209.07 0l6.39 0c0,-24.01 -1.75,-22.18 5.48,-22.18 9.62,0 14.23,11.42 20.09,22.18l7.3 0c-0.24,-2.86 -7.41,-14.93 -9.89,-17.9 -1.79,-2.15 -3.12,-2.85 -4.72,-5.17 17.63,-3.99 13.35,-26.62 -0.91,-26.62l-23.74 0 0 49.69zm19.17 -28.4l-12.78 0 0 -15.09 17.34 0c2.96,0 5.48,3.86 5.48,7.1 0,5.75 -4.1,7.99 -10.04,7.99l0 0zm447.35 28.4c21.29,0 37.43,2.76 37.43,-27.51 0,-9.73 -6.07,-22.18 -15.52,-22.18l-21.91 0 0 49.69zm19.17 -7.1l-12.78 0 0 -36.38c21.82,0 23.74,0.52 23.74,23.07 0,6.65 -4.17,13.31 -10.96,13.31l0 0zm-350.58 -18.64c0,7.95 2.05,15.72 7.21,20.5 14.73,13.67 35.7,2.15 35.7,-16.95 0,-8.82 -0.17,-15.26 -6.35,-22.23 -10.33,-11.65 -36.56,-8.44 -36.56,18.68l0 0zm23.74 19.52l-4.56 0c-14.71,0 -18.77,-38.16 2.74,-38.16 20.39,0 17.9,38.16 1.83,38.16l0 0zm369.75 6.21l33.78 0 0 -7.1 -27.39 0 0 -15.97 24.65 0 0 -6.21 -24.65 0 0 -14.2 26.48 0 0 -6.21 -32.87 0 0 49.69zm-614.42 -13.31c0,8.72 -19.31,10.25 -22.39,0.42 -1.24,-3.95 1.14,-4.22 -2.77,-4.43 -6.56,-0.34 -4.9,4.41 -2.22,9.32l2.26 3.13c7.53,8.95 31.51,8.79 31.51,-11.1 0,-4.05 -3.6,-8.12 -6.21,-9.94 -6.85,-4.78 -21.78,-3.51 -21.76,-11.35 0.02,-8.1 12.95,-8.8 17.31,-4.74 2.88,2.68 1.8,4.24 3.36,7.38 2.15,-0.48 2.7,-0.83 5.48,-0.89 0,-10.17 -7.55,-15.09 -12.78,-15.09 -6.68,0 -14.26,-0.94 -18.43,7.83 -8.43,17.71 18.65,20.44 23.22,23.02 2.45,1.38 3.43,2.94 3.43,6.43l0 0zm488.96 13.18l6.78 0.13c1.19,-2.42 4.3,-11.96 4.56,-15.09l18.26 0c2.2,4.45 3.28,10.63 5.48,15.09l7.31 0 -18.26 -49.69 -7.31 0 -16.82 49.57zm20.47 -41.58l0.84 1.84c0.36,0.93 0.65,1.94 0.89,2.68l5.57 15.88 -13.69 0c1.61,-6.73 4.81,-13.81 6.39,-20.41l0 0zm-220.94 41.71l6.39 0 0 -22.18 21 0 0 -7.1 -21 0 0 -14.2 23.74 0 0 -6.21 -30.13 0 0 49.69zm-128.73 -19.52l0 19.52c7.4,0 7.32,0.59 7.41,-5.22 0.2,-14.54 -2.2,-13.58 3.72,-23.01 4.61,-7.35 8.74,-14.53 13.52,-21.46l-8.22 0c-0.93,3.38 -7.26,12.23 -9.42,16.58 -1.66,3.35 -0.93,3.85 -4.28,4.72 -1.01,-4.2 -9.22,-17.44 -11.87,-21.3l-8.22 0c2.49,3.61 17.35,25.89 17.35,30.17l0 0zm213.63 -23.96l14.61 0 0 43.48 7.31 0 0 -43.48 14.61 0 0 -6.21 -36.52 0 0 6.21zm-346.01 0l14.61 0 0 43.48 6.39 0 0 -43.48 14.61 0 0 -6.21 -35.61 0 0 6.21zm-88.56 43.48l6.39 0 0 -49.69 -6.39 0 0 49.69zm-95.86 0l6.39 0 0 -49.69 -6.39 0 0 49.69zm-69.39 0c8.32,0 6.39,1.03 6.39,-16.86 0,-6.8 0,-13.6 0,-20.41l3.13 8.49c1.01,3.51 1.78,6.2 2.91,9.59l5.82 19.19 5.48 0c1.5,-3.04 10.88,-32.99 10.96,-36.38l1.82 0 0 36.38c4.44,0 6.39,0.6 6.39,-2.66l0 -47.03 -9.13 0c-2.23,9.29 -11.39,34.37 -11.87,39.93 -0.13,-0.18 -0.29,-0.69 -0.34,-0.56 -0.47,1.29 -0.54,-0.94 -0.64,-1.15 -0.54,-1.16 -0.49,-1.02 -0.99,-2.59l-7.75 -26.19c-3.44,-11.27 -0.7,-9.44 -12.2,-9.44l0 49.69z"/>
  </g>
 </g>
</svg>