<svg width="61" height="61" viewBox="0 0 61 61" fill="none" xmlns="http://www.w3.org/2000/svg">
<rect x="0.5" y="0.5" width="60" height="60" rx="4.5" fill="white" stroke="#AEAEAE"/>
<g clip-path="url(#clip0)">
<path d="M51.2903 32.1671L52.5585 33.0126C52.1469 33.6188 51.1625 34.659 49.4604 34.659C47.3468 34.659 45.7728 33.0237 45.7728 30.9435C45.7728 28.7298 47.3635 27.228 49.2825 27.228C51.2125 27.228 52.158 28.7631 52.464 29.5919L52.6309 30.0146L47.6584 32.0726C48.0366 32.8179 48.6262 33.1962 49.4604 33.1962C50.2948 33.1962 50.8732 32.7845 51.2903 32.1671ZM47.3914 30.8268L50.7119 29.4473C50.5284 28.9857 49.9834 28.6576 49.3325 28.6576C48.5038 28.6576 47.3525 29.3918 47.3914 30.8268Z" fill="#FF302F"/>
<path d="M43.3756 23.44H44.9774V34.3195H43.3756V23.4399V23.44Z" fill="#20B15A"/>
<path d="M40.8505 27.5174H42.3967V34.1252C42.3967 36.8672 40.7781 37.9963 38.8647 37.9963C37.0627 37.9963 35.9781 36.7838 35.5721 35.7994L36.9904 35.2097C37.2462 35.816 37.8636 36.5336 38.8647 36.5336C40.0939 36.5336 40.8505 35.7715 40.8505 34.3477V33.8137H40.7948C40.4277 34.2586 39.7269 34.6591 38.837 34.6591C36.9792 34.6591 35.2772 33.0405 35.2772 30.9548C35.2772 28.8578 36.9792 27.2227 38.837 27.2227C39.7214 27.2227 40.4277 27.6176 40.7948 28.0514H40.8505V27.5175V27.5174ZM40.9616 30.9548C40.9616 29.6421 40.0884 28.6854 38.976 28.6854C37.8524 28.6854 36.9069 29.6421 36.9069 30.9548C36.9069 32.2507 37.8524 33.1907 38.976 33.1907C40.0885 33.1963 40.9617 32.2507 40.9617 30.9548H40.9616Z" fill="#3686F7"/>
<path d="M26.4836 30.927C26.4836 33.0685 24.815 34.6425 22.7681 34.6425C20.7213 34.6425 19.0527 33.0629 19.0527 30.927C19.0527 28.7745 20.7213 27.2061 22.7681 27.2061C24.815 27.2061 26.4836 28.7745 26.4836 30.927ZM24.8595 30.927C24.8595 29.5922 23.8916 28.6744 22.7681 28.6744C21.6446 28.6744 20.6768 29.5922 20.6768 30.927C20.6768 32.2508 21.6446 33.1797 22.7681 33.1797C23.8917 33.1797 24.8595 32.2508 24.8595 30.927Z" fill="#FF302F"/>
<path d="M34.5987 30.9435C34.5987 33.0849 32.93 34.6589 30.8832 34.6589C28.8364 34.6589 27.1678 33.0848 27.1678 30.9435C27.1678 28.791 28.8364 27.228 30.8832 27.228C32.93 27.228 34.5987 28.7854 34.5987 30.9435ZM32.9689 30.9435C32.9689 29.6087 32.0012 28.6908 30.8776 28.6908C29.7541 28.6908 28.7863 29.6087 28.7863 30.9435C28.7863 32.2672 29.7541 33.1962 30.8776 33.1962C32.0067 33.1962 32.9689 32.2617 32.9689 30.9435Z" fill="#FFBA40"/>
<path d="M12.9455 33.0292C10.615 33.0292 8.79069 31.1492 8.79069 28.8187C8.79069 26.4882 10.615 24.6082 12.9455 24.6082C14.2026 24.6082 15.1202 25.1032 15.7988 25.7373L16.9169 24.6194C15.9713 23.7128 14.7087 23.0229 12.9455 23.0229C9.75292 23.023 7.06641 25.6262 7.06641 28.8187C7.06641 32.0113 9.75292 34.6144 12.9455 34.6144C14.6698 34.6144 15.9713 34.0471 16.9892 32.9903C18.0348 31.9446 18.3574 30.4762 18.3574 29.2859C18.3574 28.9132 18.3129 28.5295 18.2628 28.2458H12.9455V29.7921H16.7333C16.622 30.7599 16.3161 31.4218 15.8656 31.8722C15.3205 32.4229 14.4585 33.0292 12.9455 33.0292Z" fill="#3686F7"/>
</g>
<defs>
<clipPath id="clip0">
<rect width="45.7143" height="15" fill="white" transform="translate(7 23)"/>
</clipPath>
</defs>
</svg>
