<svg width="21" height="28" viewBox="0 0 21 28" fill="none" xmlns="http://www.w3.org/2000/svg">
<path d="M17.7917 28H3.20833C1.4385 28 0 26.5615 0 24.7917V6.70833C0 4.9385 1.4385 3.5 3.20833 3.5H17.7917C19.5615 3.5 21 4.9385 21 6.70833V24.7917C21 26.5615 19.5615 28 17.7917 28Z" fill="#2196F3"/>
<path d="M14.2919 7H6.70854C5.5827 7 4.66687 6.08417 4.66687 4.95833V3.20833C4.66687 2.72533 5.05887 2.33333 5.54187 2.33333H7.41321C7.79587 0.988167 9.03371 0 10.5002 0C11.9667 0 13.2045 0.988167 13.5872 2.33333H15.4585C15.9415 2.33333 16.3335 2.72533 16.3335 3.20833V4.95833C16.3335 6.08417 15.4177 7 14.2919 7Z" fill="#1976D2"/>
<path d="M4.66667 3.5H3.20833C1.4385 3.5 0 4.9385 0 6.70833V24.7917C0 26.5615 1.4385 28 3.20833 28H10.5V7H6.70833C5.5825 7 4.66667 6.08417 4.66667 4.95833V3.5Z" fill="#1D83D4"/>
<path d="M10.5002 0C9.0337 0 7.79587 0.988167 7.4132 2.33333H5.54187C5.05887 2.33333 4.66687 2.72533 4.66687 3.20833V3.5V4.95833C4.66687 6.08417 5.5827 7 6.70854 7H10.5002V0Z" fill="#1667B7"/>
<path d="M16.625 22.4585H4.375C3.892 22.4585 3.5 22.0665 3.5 21.5835C3.5 21.1005 3.892 20.7085 4.375 20.7085H16.625C17.108 20.7085 17.5 21.1005 17.5 21.5835C17.5 22.0665 17.108 22.4585 16.625 22.4585Z" fill="white"/>
<path d="M16.625 25.6665H4.375C3.892 25.6665 3.5 25.2745 3.5 24.7915C3.5 24.3085 3.892 23.9165 4.375 23.9165H16.625C17.108 23.9165 17.5 24.3085 17.5 24.7915C17.5 25.2745 17.108 25.6665 16.625 25.6665Z" fill="white"/>
<path d="M10.5 20.7085H4.375C3.892 20.7085 3.5 21.1005 3.5 21.5835C3.5 22.0665 3.892 22.4585 4.375 22.4585H10.5V20.7085Z" fill="#DEDEDE"/>
<path d="M10.5 23.9165H4.375C3.892 23.9165 3.5 24.3085 3.5 24.7915C3.5 25.2745 3.892 25.6665 4.375 25.6665H10.5V23.9165Z" fill="#DEDEDE"/>
<path d="M10.7917 13.4167C10.3087 13.4167 9.91667 13.0247 9.91667 12.5417V12.25H5.25V12.5417C5.25 13.0247 4.858 13.4167 4.375 13.4167C3.892 13.4167 3.5 13.0247 3.5 12.5417V11.375C3.5 10.892 3.892 10.5 4.375 10.5H10.7917C11.2747 10.5 11.6667 10.892 11.6667 11.375V12.5417C11.6667 13.0247 11.2747 13.4167 10.7917 13.4167Z" fill="white"/>
<path d="M7.58313 18.9117C7.10013 18.9117 6.70813 18.55 6.70813 18.1044V11.6457C6.70813 11.2 7.10013 10.8384 7.58313 10.8384C8.06613 10.8384 8.45813 11.2 8.45813 11.6457V18.1044C8.45813 18.55 8.06613 18.9117 7.58313 18.9117Z" fill="white"/>
<path d="M8.7502 19.25H6.41687C5.93387 19.25 5.54187 18.858 5.54187 18.375C5.54187 17.892 5.93387 17.5 6.41687 17.5H8.7502C9.2332 17.5 9.6252 17.892 9.6252 18.375C9.6252 18.858 9.2332 19.25 8.7502 19.25Z" fill="white"/>
<path d="M7.58333 10.5H4.375C3.892 10.5 3.5 10.892 3.5 11.375V12.5417C3.5 13.0247 3.892 13.4167 4.375 13.4167C4.858 13.4167 5.25 13.0247 5.25 12.5417V12.25H6.70833V11.6457C6.70833 11.2 7.10033 10.8383 7.58333 10.8383V10.5Z" fill="#DEDEDE"/>
<path d="M7.58313 10.8384C7.10013 10.8384 6.70813 11.2 6.70813 11.6457V12.25V17.5H7.58313V10.8384Z" fill="#DEDEDE"/>
<path d="M7.58354 17.5H6.70854H6.41687C5.93387 17.5 5.54187 17.892 5.54187 18.375C5.54187 18.858 5.93387 19.25 6.41687 19.25H7.58354V17.5Z" fill="#DEDEDE"/>
<path d="M16.6248 12.25H13.7081C13.2251 12.25 12.8331 11.858 12.8331 11.375C12.8331 10.892 13.2251 10.5 13.7081 10.5H16.6248C17.1078 10.5 17.4998 10.892 17.4998 11.375C17.4998 11.858 17.1078 12.25 16.6248 12.25Z" fill="white"/>
<path d="M16.6248 15.75H13.7081C13.2251 15.75 12.8331 15.358 12.8331 14.875C12.8331 14.392 13.2251 14 13.7081 14H16.6248C17.1078 14 17.4998 14.392 17.4998 14.875C17.4998 15.358 17.1078 15.75 16.6248 15.75Z" fill="white"/>
<path d="M16.6248 19.25H13.7081C13.2251 19.25 12.8331 18.858 12.8331 18.375C12.8331 17.892 13.2251 17.5 13.7081 17.5H16.6248C17.1078 17.5 17.4998 17.892 17.4998 18.375C17.4998 18.858 17.1078 19.25 16.6248 19.25Z" fill="white"/>
<path d="M15.1665 10.5H13.7081C13.2251 10.5 12.8331 10.892 12.8331 11.375C12.8331 11.858 13.2251 12.25 13.7081 12.25H15.1665V10.5Z" fill="#DEDEDE"/>
<path d="M15.1665 14H13.7081C13.2251 14 12.8331 14.392 12.8331 14.875C12.8331 15.358 13.2251 15.75 13.7081 15.75H15.1665V14Z" fill="#DEDEDE"/>
<path d="M15.1665 17.5H13.7081C13.2251 17.5 12.8331 17.892 12.8331 18.375C12.8331 18.858 13.2251 19.25 13.7081 19.25H15.1665V17.5Z" fill="#DEDEDE"/>
</svg>
