<svg width="50" height="50" viewBox="0 0 50 50" fill="none" xmlns="http://www.w3.org/2000/svg">
<path d="M29.1667 18.7499C29.1667 19.8958 28.2292 20.8333 27.0833 20.8333H23.7917C23.2083 20.8333 22.6458 20.7083 22.125 20.4791L17.3333 18.3749L14.5833 26.5624V43.7499C14.5833 44.8958 13.6458 45.8333 12.5 45.8333H8.33333C7.1875 45.8333 6.25 44.8958 6.25 43.7499V25.6874C6.25 25.2291 6.33333 24.7708 6.47917 24.3333L9.5625 15.3333C9.74736 14.7832 10.0455 14.278 10.4377 13.8504C10.8299 13.4227 11.3075 13.082 11.8395 12.8504C12.3716 12.6187 12.9463 12.5012 13.5265 12.5054C14.1068 12.5097 14.6797 12.6355 15.2083 12.8749L23.8542 16.6874L27.0833 16.6666C28.2292 16.6666 29.1667 17.6041 29.1667 18.7499ZM16.6667 2.08325C14.375 2.08325 12.5 3.95825 12.5 6.24992C12.5 8.54159 14.375 10.4166 16.6667 10.4166C18.9583 10.4166 20.8333 8.54159 20.8333 6.24992C20.8333 3.95825 18.9583 2.08325 16.6667 2.08325ZM20.8333 39.5833H41.6667C42.8125 39.5833 43.75 38.6458 43.75 37.4999C43.75 36.3541 42.8125 35.4166 41.6667 35.4166H20.8333C19.6875 35.4166 18.75 36.3541 18.75 37.4999C18.75 38.6458 19.6875 39.5833 20.8333 39.5833ZM40.625 33.3333C42.3542 33.3333 43.75 31.9374 43.75 30.2083C43.75 28.4791 42.3542 27.0833 40.625 27.0833C38.8958 27.0833 37.5 28.4791 37.5 30.2083C37.5 31.9374 38.8958 33.3333 40.625 33.3333ZM27.0833 24.9999C27.0833 23.8541 26.1458 22.9166 25 22.9166H20.8333C19.6875 22.9166 18.75 23.8541 18.75 24.9999C18.75 26.1458 19.6875 27.0833 20.8333 27.0833H22.9167V29.1666C22.9167 31.4583 24.7917 33.3333 27.0833 33.3333H31.25C33.5417 33.3333 35.4167 31.4583 35.4167 29.1666V24.9999C35.4167 23.8541 34.4792 22.9166 33.3333 22.9166C32.1875 22.9166 31.25 23.8541 31.25 24.9999V27.0833H27.0833V24.9999Z" fill="#FC7CB6"/>
</svg>
