<svg width="40" height="40" viewBox="0 0 40 40" fill="none" xmlns="http://www.w3.org/2000/svg">
<rect x="0.5" y="0.5" width="39" height="39" rx="19.5" fill="#F2F4F8"/>
<path d="M16.53 11.3551C16.5657 11.3278 16.8964 11.0818 17.4854 10.8451C18.2443 10.5401 19.115 10.3789 20.0035 10.3789C20.892 10.3789 21.7627 10.5401 22.5216 10.8451C23.1107 11.0818 23.4413 11.3278 23.4771 11.3551C23.6564 11.4919 23.7617 11.7045 23.7617 11.9301V13.0645L23.0387 13.4512L22.3156 13.0645V12.3395C21.9188 12.137 21.1252 11.825 20.0035 11.825C18.8818 11.825 18.0883 12.137 17.6915 12.3395V13.0645L16.9685 13.4512L16.2454 13.0645V11.9301C16.2453 11.7045 16.3506 11.4918 16.53 11.3551Z" fill="#E8834D"/>
<path d="M23.7617 13.0642V13.8626L23.0386 14.2493L22.3156 13.8626V13.0642H23.7617Z" fill="#D66E41"/>
<path d="M16.2434 13.0642H17.6895V13.8626L16.9664 14.2493L16.2434 13.8626V13.0642Z" fill="#D66E41"/>
<path d="M30.4297 21.8171V28.2406C30.4297 29.0032 29.8115 29.6214 29.0489 29.6214H10.9489C10.1863 29.6214 9.5681 29.0032 9.5681 28.2406V21.8171H30.4297Z" fill="#365E7D"/>
<path d="M30.4297 21.0186V21.817C29.2826 22.7278 26.2509 24.4958 19.9989 24.4958C13.7469 24.4958 10.7152 22.7278 9.5681 21.817V21.0186H30.4297V21.0186Z" fill="#2B4D66"/>
<path d="M30.4907 20.5589C29.3914 21.4539 26.3639 23.2858 20 23.2858C13.6361 23.2858 10.6087 21.4539 9.50927 20.5589C9.187 20.2965 9 19.5166 9 19.1011V15.2436C9 14.481 9.61819 13.8628 10.3808 13.8628H29.6192C30.3818 13.8628 31 14.481 31 15.2436V19.1011C31 19.5166 30.813 20.2965 30.4907 20.5589Z" fill="#407093"/>
<path d="M9.50927 20.1722C10.6086 21.0672 13.6361 22.8991 20 22.8991C26.3639 22.8991 29.3913 21.0672 30.4907 20.1722C30.813 19.9098 31 19.5166 31 19.1011V19.8995C31 20.315 30.813 20.7082 30.4907 20.9706C29.3914 21.8656 26.3639 23.6975 20 23.6975C13.6361 23.6975 10.6087 21.8656 9.50927 20.9706C9.187 20.7082 9 20.315 9 19.8995V19.1011C9 19.5166 9.187 19.9098 9.50927 20.1722Z" fill="#365E7D"/>
<path d="M19.9996 25.0263C19.2853 25.0263 18.7062 24.4959 18.7062 23.3462V22.562C18.7062 22.3078 18.9123 22.1018 19.1665 22.1018H20.8327C21.0869 22.1018 21.293 22.3079 21.293 22.562V23.3464C21.293 24.4959 20.7139 25.0263 19.9996 25.0263Z" fill="#FFE27A"/>
<path d="M19.9996 24.6398C20.7139 24.6398 21.293 24.0607 21.293 23.3464V24.1448C21.293 24.8592 20.7139 25.4382 19.9996 25.4382C19.2853 25.4382 18.7062 24.8592 18.7062 24.1448V23.3464C18.7062 24.0607 19.2853 24.6398 19.9996 24.6398Z" fill="#F9CF58"/>
<rect x="0.5" y="0.5" width="39" height="39" rx="19.5" stroke="#DEDEDE"/>
</svg>
