<svg width="40" height="41" viewBox="0 0 40 41" fill="none" xmlns="http://www.w3.org/2000/svg">
<rect x="0.5" y="0.501953" width="39" height="39" rx="19.5" fill="#F2F4F8"/>
<g clip-path="url(#clip0_5189:29394)">
<path d="M20.0008 32.6212C23.6019 32.6212 26.5211 30.8728 26.5211 28.7161C26.5211 26.5594 23.6019 24.811 20.0008 24.811C16.3997 24.811 13.4805 26.5594 13.4805 28.7161C13.4805 30.8728 16.3997 32.6212 20.0008 32.6212Z" fill="#FFC107"/>
<path d="M20.0011 7.38281C15.5191 7.38281 11.873 11.001 11.873 15.4484C11.873 20.9018 20.0011 29.3787 20.0011 29.3787C20.0011 29.3787 28.1291 20.6779 28.1291 15.4484C28.1291 11.001 24.483 7.38281 20.0011 7.38281ZM20.0011 20.5225C17.1238 20.5225 14.7914 18.2079 14.7914 15.3529C14.7914 12.498 17.1238 10.1839 20.0011 10.1839C22.8784 10.1839 25.2107 12.4985 25.2107 15.3529C25.2107 18.2073 22.8784 20.5225 20.0011 20.5225Z" fill="#AF3CF5"/>
<path d="M22.4806 14.0557H17.5193C17.3123 14.0557 17.1445 14.2235 17.1445 14.4304V17.4804C17.1445 17.6873 17.3123 17.8551 17.5193 17.8551H22.4806C22.6876 17.8551 22.8554 17.6873 22.8554 17.4804V14.4304C22.8554 14.2235 22.6876 14.0557 22.4806 14.0557Z" fill="#529C30"/>
<path d="M22.4805 14.0557H20.957C21.0564 14.0557 21.1517 14.0951 21.222 14.1654C21.2923 14.2357 21.3318 14.331 21.3318 14.4304V17.4804C21.3318 17.5797 21.2923 17.6751 21.222 17.7454C21.1517 17.8156 21.0564 17.8551 20.957 17.8551H22.4805C22.5799 17.8551 22.6752 17.8156 22.7455 17.7454C22.8157 17.6751 22.8552 17.5797 22.8552 17.4804V14.4304C22.8552 14.331 22.8157 14.2357 22.7455 14.1654C22.6752 14.0951 22.5799 14.0557 22.4805 14.0557Z" fill="#368412"/>
<path d="M21.3087 15.1982H18.6914C18.5904 15.1982 18.4935 15.1581 18.4221 15.0866C18.3507 15.0152 18.3105 14.9183 18.3105 14.8173V13.2269C18.3108 13.0162 18.3946 12.8142 18.5436 12.6652C18.6926 12.5162 18.8946 12.4324 19.1053 12.4321H20.8948C21.1055 12.4324 21.3075 12.5162 21.4565 12.6652C21.6055 12.8142 21.6893 13.0162 21.6895 13.2269V14.8173C21.6895 14.9183 21.6494 15.0152 21.578 15.0866C21.5066 15.1581 21.4097 15.1982 21.3087 15.1982ZM19.0743 14.4365H20.9299V13.2269C20.9299 13.2225 20.929 13.2182 20.9273 13.2142C20.9257 13.2102 20.9233 13.2066 20.9202 13.2035C20.9171 13.2004 20.9135 13.198 20.9095 13.1964C20.9055 13.1947 20.9012 13.1938 20.8968 13.1938H19.1053C19.1009 13.1938 19.0967 13.1947 19.0926 13.1964C19.0886 13.198 19.085 13.2004 19.0819 13.2035C19.0789 13.2066 19.0764 13.2102 19.0748 13.2142C19.0731 13.2182 19.0723 13.2225 19.0723 13.2269L19.0743 14.4365Z" fill="#676E87"/>
<path d="M22.8554 15.1957L20.2478 16.3307C20.1696 16.3648 20.0852 16.3825 20 16.3825C19.9147 16.3825 19.8303 16.3648 19.7521 16.3307L17.1445 15.1957V14.4304C17.1445 14.331 17.184 14.2357 17.2543 14.1654C17.3246 14.0951 17.4199 14.0557 17.5193 14.0557H22.4806C22.58 14.0557 22.6753 14.0951 22.7456 14.1654C22.8159 14.2357 22.8554 14.331 22.8554 14.4304V15.1957Z" fill="#79CC52"/>
<path d="M21.3318 14.4304V15.8589L22.8552 15.1957V14.4304C22.8552 14.3557 22.833 14.2827 22.7912 14.2207C22.7846 14.2111 22.777 14.2014 22.7694 14.1923C22.7343 14.1495 22.6902 14.1151 22.6403 14.0915C22.5903 14.0679 22.5357 14.0557 22.4805 14.0557H20.957C21.0564 14.0557 21.1517 14.0951 21.222 14.1654C21.2923 14.2357 21.3318 14.331 21.3318 14.4304Z" fill="#34A853"/>
</g>
<rect x="0.5" y="0.501953" width="39" height="39" rx="19.5" stroke="#DEDEDE"/>
<defs>
<clipPath id="clip0_5189:29394">
<rect width="26" height="26" fill="white" transform="translate(7 7.00195)"/>
</clipPath>
</defs>
</svg>
