<svg width="40" height="41" viewBox="0 0 40 41" fill="none" xmlns="http://www.w3.org/2000/svg">
<rect x="0.5" y="0.501953" width="39" height="39" rx="19.5" fill="#F2F4F8"/>
<g clip-path="url(#clip0_5189:32495)">
<path d="M30.6744 19.4801C30.6698 22.136 29.6664 24.6929 27.8635 26.6431C26.0606 28.5932 23.5901 29.7938 20.9428 30.0064C18.2954 30.219 15.665 29.428 13.574 27.7906C11.483 26.1531 10.0844 23.7891 9.65609 21.168C9.22777 18.5469 9.80105 15.8606 11.262 13.6427C12.723 11.4248 14.9649 9.83765 17.5421 9.19647C20.1194 8.55529 22.8436 8.90703 25.1735 10.1818C27.5034 11.4566 29.2686 13.5611 30.1183 16.0774C30.4877 17.1738 30.6755 18.3232 30.6744 19.4801Z" fill="#1CA098"/>
<path d="M30.1193 16.0772L16.6448 29.5517C15.3957 29.1279 14.237 28.4739 13.2288 27.6235C13.2724 27.5703 13.3161 27.521 13.3654 27.4717L27.8495 12.98C27.9636 12.8679 28.0911 12.7704 28.2291 12.6896C29.0615 13.6934 29.7022 14.8417 30.1193 16.0772ZM25.9005 10.6077C25.8644 10.6495 25.8283 10.6893 25.7885 10.7292L11.2968 25.2209C11.257 25.2607 11.2171 25.2968 11.1753 25.3328C10.4131 24.1817 9.88434 22.8921 9.61914 21.5372L22.0991 9.05151C23.456 9.316 24.7476 9.84477 25.9005 10.6077Z" fill="#119F31"/>
<path d="M32.2046 18.8633C31.7743 21.7929 30.3046 24.47 28.0639 26.4056C25.8231 28.3413 22.9609 29.4064 19.9998 29.4064C17.0388 29.4064 14.1765 28.3413 11.9358 26.4056C9.69504 24.47 8.22531 21.7929 7.79501 18.8633C7.70805 19.4603 7.66429 20.0629 7.66406 20.6662C7.66406 23.9378 8.96372 27.0755 11.2771 29.3889C13.5905 31.7023 16.7282 33.002 19.9998 33.002C23.2715 33.002 26.4091 31.7023 28.7225 29.3889C31.0359 27.0755 32.3356 23.9378 32.3356 20.6662C32.3354 20.0629 32.2916 19.4603 32.2046 18.8633Z" fill="#0A6A08"/>
<path d="M19.9998 10.7976C21.6889 10.7976 23.3401 11.2984 24.7445 12.2368C26.1489 13.1753 27.2435 14.509 27.8899 16.0695C28.5363 17.6301 28.7054 19.3472 28.3759 21.0038C28.0464 22.6604 27.233 24.1822 26.0386 25.3765C24.8443 26.5709 23.3226 27.3842 21.6659 27.7138C20.0093 28.0433 18.2922 27.8742 16.7317 27.2278C15.1712 26.5814 13.8374 25.4868 12.899 24.0824C11.9606 22.678 11.4597 21.0268 11.4597 19.3377C11.4622 17.0735 12.3628 14.9027 13.9638 13.3017C15.5649 11.7007 17.7356 10.8001 19.9998 10.7976ZM19.9998 7.00195C17.5601 7.00195 15.1751 7.72543 13.1465 9.0809C11.1178 10.4364 9.53674 12.363 8.60307 14.617C7.66941 16.8711 7.42512 19.3514 7.9011 21.7443C8.37707 24.1372 9.55194 26.3352 11.2771 28.0604C13.0023 29.7856 15.2003 30.9605 17.5932 31.4365C19.9862 31.9124 22.4665 31.6681 24.7205 30.7345C26.9746 29.8008 28.9012 28.2197 30.2567 26.1911C31.6121 24.1625 32.3356 21.7775 32.3356 19.3377C32.3356 16.0661 31.0359 12.9284 28.7225 10.615C26.4091 8.30161 23.2715 7.00195 19.9998 7.00195V7.00195Z" fill="#12E058"/>
<path d="M20.0939 28.0676C15.2982 28.0676 11.03 26.1906 8.30664 23.2737C9.12267 25.6935 10.6696 27.8004 12.7339 29.3036C14.7982 30.8069 17.2782 31.6325 19.8316 31.6664C22.3851 31.7004 24.8862 30.941 26.9897 29.4932C29.0933 28.0453 30.6956 25.9803 31.5757 23.583C28.8504 26.3235 24.717 28.0676 20.0939 28.0676Z" fill="#119F31"/>
<path d="M21.8785 18.3889V26.1699C21.8787 26.2112 21.8755 26.2524 21.869 26.2932C21.7874 26.9233 21.0966 27.4224 20.2635 27.4224C19.4303 27.4224 18.7452 26.9252 18.6579 26.2932C18.6514 26.2524 18.6482 26.2112 18.6484 26.1699V18.3889C18.6484 17.698 19.3753 17.1325 20.2635 17.1325C20.6735 17.1268 21.0738 17.2569 21.4022 17.5026C21.5442 17.6039 21.661 17.7366 21.7435 17.8902C21.8261 18.0439 21.8723 18.2145 21.8785 18.3889Z" fill="#0A6A08"/>
<path d="M20.1905 16.3675C21.1338 16.3675 21.8985 15.6028 21.8985 14.6594C21.8985 13.7161 21.1338 12.9514 20.1905 12.9514C19.2471 12.9514 18.4824 13.7161 18.4824 14.6594C18.4824 15.6028 19.2471 16.3675 20.1905 16.3675Z" fill="#0A6A08"/>
<path d="M21.4977 18.0092V25.7902C21.4979 25.8315 21.4947 25.8728 21.4882 25.9136C21.4066 26.5437 20.7158 27.0428 19.8826 27.0428C19.0495 27.0428 18.3644 26.5456 18.2771 25.9136C18.2706 25.8728 18.2674 25.8315 18.2676 25.7902V18.0092C18.2676 17.3184 18.9944 16.7529 19.8826 16.7529C20.2926 16.7472 20.693 16.8773 21.0213 17.1229C21.1633 17.2243 21.2801 17.3569 21.3627 17.5106C21.4453 17.6643 21.4915 17.8349 21.4977 18.0092Z" fill="white"/>
<path d="M19.8096 15.9881C20.7529 15.9881 21.5176 15.2234 21.5176 14.28C21.5176 13.3367 20.7529 12.572 19.8096 12.572C18.8663 12.572 18.1016 13.3367 18.1016 14.28C18.1016 15.2234 18.8663 15.9881 19.8096 15.9881Z" fill="white"/>
<g style="mix-blend-mode:soft-light">
<path d="M20.2695 14.3862C20.6028 14.3862 20.873 14.116 20.873 13.7827C20.873 13.4494 20.6028 13.1792 20.2695 13.1792C19.9362 13.1792 19.666 13.4494 19.666 13.7827C19.666 14.116 19.9362 14.3862 20.2695 14.3862Z" fill="white"/>
</g>
<g style="mix-blend-mode:soft-light">
<path d="M19.5654 14.8872C19.7321 14.8872 19.8672 14.7521 19.8672 14.5854C19.8672 14.4188 19.7321 14.2837 19.5654 14.2837C19.3988 14.2837 19.2637 14.4188 19.2637 14.5854C19.2637 14.7521 19.3988 14.8872 19.5654 14.8872Z" fill="white"/>
</g>
</g>
<rect x="0.5" y="0.501953" width="39" height="39" rx="19.5" stroke="#DEDEDE"/>
<defs>
<clipPath id="clip0_5189:32495">
<rect width="24.6715" height="26" fill="white" transform="translate(7.66406 7.00195)"/>
</clipPath>
</defs>
</svg>
