<svg width="40" height="41" viewBox="0 0 40 41" fill="none" xmlns="http://www.w3.org/2000/svg">
<rect x="0.5" y="0.501953" width="39" height="39" rx="19.5" fill="#F2F4F8"/>
<g clip-path="url(#clip0_5189:29017)">
<path d="M20 19.1895C17.6296 19.1895 15.3563 20.1311 13.6802 21.8072C12.0041 23.4833 11.0625 25.7566 11.0625 28.127V29.752C11.0625 30.3984 11.3193 31.0184 11.7764 31.4755C12.2335 31.9326 12.8535 32.1895 13.5 32.1895H26.5C27.1465 32.1895 27.7665 31.9326 28.2236 31.4755C28.6807 31.0184 28.9375 30.3984 28.9375 29.752V28.127C28.9375 25.7566 27.9959 23.4833 26.3198 21.8072C24.6437 20.1311 22.3704 19.1895 20 19.1895Z" fill="#303030"/>
<path d="M20 17.5645C22.6924 17.5645 24.875 15.3818 24.875 12.6895C24.875 9.99706 22.6924 7.81445 20 7.81445C17.3076 7.81445 15.125 9.99706 15.125 12.6895C15.125 15.3818 17.3076 17.5645 20 17.5645Z" fill="#FFE0A6"/>
<path fill-rule="evenodd" clip-rule="evenodd" d="M23.4471 16.1366C24.3614 15.2224 24.875 13.9824 24.875 12.6895C24.875 11.3965 24.3614 10.1565 23.4471 9.24231C22.5329 8.32807 21.2929 7.81445 20 7.81445V12.6895V17.5645C21.2929 17.5645 22.5329 17.0508 23.4471 16.1366Z" fill="#FFD17B"/>
<path d="M28.9375 28.127V29.752C28.9375 30.3984 28.6807 31.0184 28.2236 31.4755C27.7665 31.9326 27.1465 32.1895 26.5 32.1895H20V19.1895C22.3704 19.1895 24.6437 20.1311 26.3198 21.8072C27.9959 23.4833 28.9375 25.7566 28.9375 28.127Z" fill="#000011"/>
<path d="M17.6859 22.1521C16.914 20.9108 22.726 20.6395 22.3449 22.2931" stroke="#FFD17B" stroke-width="4"/>
<path d="M21.4624 28.8074L23.5 20L23.2314 19.802L22.9629 19.702C22.5793 19.631 21.9818 19.9594 21.9629 19.5L19.9208 21.6756L17.9629 19.5C17.9439 19.9594 17.3465 19.6309 16.9629 19.702L16.4629 19.902L18.4624 28.8074L18.9629 31L19.4629 32L19.5332 32.1875H19.7129H19.9629H20.3379V32.168L21.4624 28.8074Z" fill="#DEDEDE"/>
<path d="M22.3797 28.9261L23.9756 26.17C24.1745 25.8669 24.3544 25.668 24.0229 25.2087L22.9338 23.5986H24.1129C24.4539 23.5986 24.5012 23.5228 24.5012 23.0492L24.4349 20.4068C24.4349 20.4068 24.3213 20.4132 24.2976 20.3801C24.2739 20.3517 23.5 19.902 23.5 19.902L23.27 19.822L20.3301 32.2021L22.3797 28.9261Z" fill="#000011"/>
<path d="M18.5996 23.5L18.9625 26.5L19.525 32.1835H20.3453L20.9996 26.5L21.1996 23.5C21.1617 23.6042 21.1901 23.3437 21.1996 23.5L19.8996 21.7921L20.4996 21.5L19.8996 20.3518L19.1996 21.5L19.8996 21.7921C19.9612 21.9341 18.6043 23.3153 18.5996 23.5Z" fill="#EE0202"/>
<path d="M15.9263 23.9053H17.1054L16.0162 25.5154C15.6847 25.9747 15.86 26.1736 16.0589 26.4767L17.6926 29.2328L19.5332 32.1875L18.8907 29.2328L16.4629 19.9092C16.4629 19.9092 15.6374 20.2599 15.6042 20.3594C15.5948 20.3925 15.6042 20.7703 15.6042 20.7703L15.5332 23.3607C15.5427 23.8295 15.5853 23.9053 15.9263 23.9053Z" fill="#000011"/>
<path d="M22.6328 19.552C22.4629 19.5 22.0258 19.4 21.9629 19.4019L19.9006 20.3374L17.9635 19.3718C17.4629 19.45 17.4635 19.4999 17.4635 19.4999L16.4902 19.8919L19.3 21.5C19.5 21 19.5 21 19.5 21L19.9006 20.3374L20.2 21C20.5 21.5 20.5 21.5 20.5 21.5L23.3006 19.8218L22.6328 19.552Z" fill="white"/>
<path d="M19.8817 20.2935L20.7477 21.7935H19.0156L19.8817 20.2935Z" fill="#EE0202"/>
<path d="M19.8817 20.2935L20.7477 21.7935H19.0156L19.8817 20.2935Z" fill="#EE0202"/>
<path d="M19.884 23.292L19.0179 21.792H20.75L19.884 23.292Z" fill="#EE0202"/>
</g>
<rect x="0.5" y="0.501953" width="39" height="39" rx="19.5" stroke="#DEDEDE"/>
<defs>
<clipPath id="clip0_5189:29017">
<rect width="26" height="26" fill="white" transform="translate(7 7.00195)"/>
</clipPath>
</defs>
</svg>
