<svg width="40" height="41" viewBox="0 0 40 41" fill="none" xmlns="http://www.w3.org/2000/svg">
<rect x="0.5" y="0.501953" width="39" height="39" rx="19.5" fill="#F2F4F8"/>
<path d="M22.4805 9.12695H11.9805C10.9449 9.12695 10.1055 9.96642 10.1055 11.002V29.002C10.1055 30.0375 10.9449 30.877 11.9805 30.877H22.4805C23.516 30.877 24.3555 30.0375 24.3555 29.002V11.002C24.3555 9.96642 23.516 9.12695 22.4805 9.12695Z" fill="#0A617D"/>
<path d="M20.9805 9.12695V11.377C20.9802 11.4763 20.9406 11.5715 20.8703 11.6418C20.8001 11.7121 20.7048 11.7517 20.6055 11.752H13.8555C13.7561 11.7517 13.6609 11.7121 13.5906 11.6418C13.5204 11.5715 13.4808 11.4763 13.4805 11.377V9.12695H20.9805Z" fill="#0067FF"/>
<path d="M17.2305 29.377C18.0589 29.377 18.7305 28.7054 18.7305 27.877C18.7305 27.0485 18.0589 26.377 17.2305 26.377C16.402 26.377 15.7305 27.0485 15.7305 27.877C15.7305 28.7054 16.402 29.377 17.2305 29.377Z" fill="#0067FF"/>
<path d="M29.7598 14.7808H16.1266C15.8129 14.7808 15.5586 15.0351 15.5586 15.3488V23.3015C15.5586 23.6152 15.8129 23.8695 16.1266 23.8695H29.7598C30.0735 23.8695 30.3278 23.6152 30.3278 23.3015V15.3488C30.3278 15.0351 30.0735 14.7808 29.7598 14.7808Z" fill="#FF9811"/>
<path d="M30.3278 15.3488C30.3278 15.1982 30.268 15.0537 30.1614 14.9471C30.0549 14.8406 29.9104 14.7808 29.7598 14.7808H16.1266C15.976 14.7808 15.8315 14.8406 15.725 14.9471C15.6184 15.0537 15.5586 15.1982 15.5586 15.3488V15.6529L22.6281 20.3658C22.7214 20.428 22.8311 20.4612 22.9432 20.4612C23.0554 20.4612 23.165 20.428 23.2583 20.3658L30.3278 15.6527V15.3488Z" fill="#FFDA44"/>
<rect x="0.5" y="0.501953" width="39" height="39" rx="19.5" stroke="#DEDEDE"/>
</svg>
