<svg width="50" height="50" viewBox="0 0 50 50" fill="none" xmlns="http://www.w3.org/2000/svg">
<path d="M33.3333 22.9166H31.25V8.33325C31.25 4.87492 28.4583 2.08325 25 2.08325C21.5417 2.08325 18.75 4.87492 18.75 8.33325V22.9166H16.6667C10.9167 22.9166 6.25 27.5833 6.25 33.3333V43.7499C6.25 46.0416 8.125 47.9166 10.4167 47.9166H39.5833C41.875 47.9166 43.75 46.0416 43.75 43.7499V33.3333C43.75 27.5833 39.0833 22.9166 33.3333 22.9166ZM39.5833 43.7499H35.4167V37.4999C35.4167 36.3541 34.4792 35.4166 33.3333 35.4166C32.1875 35.4166 31.25 36.3541 31.25 37.4999V43.7499H27.0833V37.4999C27.0833 36.3541 26.1458 35.4166 25 35.4166C23.8542 35.4166 22.9167 36.3541 22.9167 37.4999V43.7499H18.75V37.4999C18.75 36.3541 17.8125 35.4166 16.6667 35.4166C15.5208 35.4166 14.5833 36.3541 14.5833 37.4999V43.7499H10.4167V33.3333C10.4167 29.8958 13.2292 27.0833 16.6667 27.0833H33.3333C36.7708 27.0833 39.5833 29.8958 39.5833 33.3333V43.7499Z" fill="#2196F3"/>
</svg>
