<svg width="40" height="40" viewBox="0 0 40 40" fill="none" xmlns="http://www.w3.org/2000/svg">
<rect x="0.5" y="0.5" width="39" height="39" rx="19.5" fill="#F2F4F8"/>
<path d="M31.2855 19.8192C31.288 19.9373 31.2833 20.0554 31.2713 20.1729C31.2247 21.9174 30.7536 23.6243 29.899 25.1459H10.7426C9.88799 23.6243 9.41696 21.9174 9.37027 20.1729C9.35834 20.0554 9.35362 19.9373 9.35612 19.8192C9.35612 19.6989 9.35612 19.5787 9.36319 19.4655C9.43148 17.2619 10.1665 15.1307 11.4712 13.3536C11.542 13.2616 11.6127 13.1626 11.6835 13.0706C11.7553 12.9715 11.8332 12.877 11.9169 12.7876C12.1186 12.5338 12.336 12.2928 12.5677 12.0661C14.1932 10.4392 16.2894 9.36515 18.5594 8.99598C18.5594 8.98891 18.5665 8.99598 18.5665 8.99598C19.726 8.80733 20.9085 8.80733 22.0681 8.99598C24.3442 9.35883 26.4468 10.4337 28.0739 12.0661C28.4187 12.4077 28.7378 12.7742 29.0289 13.1626C29.1067 13.2616 29.1774 13.3606 29.2482 13.4597H29.2553C29.326 13.5516 29.3897 13.6507 29.4533 13.7497C30.584 15.4469 31.2163 17.4271 31.2784 19.4655C31.2855 19.5858 31.2855 19.6989 31.2855 19.8192Z" fill="#73C3F9"/>
<path d="M31.6307 19.4517C31.5629 17.3422 30.9062 15.2937 29.7349 13.5379C29.6712 13.4388 29.6075 13.3398 29.5368 13.2408L29.4802 13.1771C29.4236 13.0993 29.367 13.0285 29.3104 12.9507C29.0109 12.5477 28.6797 12.1693 28.3201 11.8189C26.6451 10.129 24.4738 9.01861 22.1232 8.64975C20.9858 8.46007 19.8257 8.45052 18.6853 8.62145L18.6358 8.57901L18.4448 8.65682C16.1222 9.04385 13.9795 10.1498 12.3187 11.8189C12.08 12.0456 11.8578 12.2891 11.6537 12.5475C11.5618 12.6536 11.4769 12.7527 11.3991 12.8517L11.1869 13.1417C9.83977 14.974 9.08006 17.1717 9.00807 19.4447C9.00099 19.5649 9.00099 19.6923 9.00099 19.8196C8.99774 19.94 9.00247 20.0605 9.01514 20.1804C9.06585 21.9835 9.55121 23.7478 10.4299 25.3232L10.4653 25.3797L10.5361 25.5H30.1027L30.1735 25.3797L30.2088 25.3232C31.0829 23.7586 31.5681 22.007 31.6236 20.2157C31.6355 20.084 31.6403 19.9518 31.6378 19.8196C31.6378 19.6923 31.6378 19.572 31.6307 19.4517ZM30.9304 19.6852V19.8196C30.9315 19.8669 30.9292 19.9141 30.9233 19.9611C30.9278 20.0295 30.9254 20.0982 30.9162 20.1662V20.1733C30.8681 21.7874 30.4468 23.3685 29.6853 24.7926H10.9534C10.1941 23.3677 9.7729 21.7871 9.72254 20.1733V20.1308C9.7106 20.0275 9.70588 19.9235 9.70839 19.8196C9.70839 19.7064 9.70839 19.5932 9.71547 19.48V19.4659C9.77916 17.3401 10.4899 15.2844 11.7528 13.5732L11.7952 13.5167L11.9721 13.2761C12.0379 13.1808 12.1112 13.0909 12.1914 13.0073C12.2055 12.9861 12.2267 12.9649 12.2409 12.9437C12.4188 12.7222 12.6101 12.512 12.8139 12.3141C14.3588 10.766 16.346 9.73537 18.5014 9.36422C18.5014 9.35715 18.5084 9.36422 18.5084 9.36422L18.6216 9.343C19.0666 9.27286 19.5155 9.23033 19.9657 9.21567C20.1991 9.20859 20.4396 9.20859 20.6731 9.21567C21.121 9.23033 21.5675 9.27286 22.0101 9.343C22.0555 9.34903 22.1004 9.35849 22.1445 9.37129C24.2966 9.74151 26.2811 10.7696 27.8249 12.3141C28.1256 12.6187 28.409 12.9399 28.6738 13.2761C28.6974 13.3132 28.7234 13.3486 28.7516 13.3822C28.8223 13.4742 28.8931 13.5732 28.9567 13.6652L29.0628 13.8067C29.077 13.8279 29.0982 13.8562 29.1124 13.8774C29.1281 13.9 29.1422 13.9237 29.1548 13.9482C30.2471 15.5866 30.8597 17.4977 30.9233 19.4659V19.4871C30.9291 19.553 30.9314 19.6191 30.9304 19.6852Z" fill="#55ACEE"/>
<path d="M29.4528 13.7501C29.4311 13.771 29.4042 13.7856 29.375 13.7926C28.4794 14.106 27.5588 14.3426 26.6232 14.5C26.3119 14.5566 26.0007 14.6061 25.6682 14.6556C25.4418 14.691 25.2013 14.7193 24.9608 14.7476C23.6132 14.9068 22.2573 14.9847 20.9003 14.981C19.1623 14.9867 17.4265 14.859 15.708 14.599C15.4675 14.5566 15.2411 14.5212 15.0148 14.4788C14.6399 14.408 14.2862 14.3302 13.9466 14.2453C13.1042 14.0548 12.2873 13.7651 11.5131 13.3823C11.4975 13.3754 11.4831 13.3658 11.4707 13.354C11.5414 13.262 11.6122 13.163 11.6829 13.071C11.7547 12.9719 11.8327 12.8774 11.9164 12.7881C12.6183 13.1254 13.3564 13.3818 14.1164 13.5521C14.4701 13.637 14.8308 13.7219 15.2199 13.7926H15.227C15.4534 13.835 15.6868 13.8775 15.9273 13.9129C17.5735 14.1581 19.2359 14.2787 20.9003 14.2736C22.1884 14.2768 23.4757 14.206 24.7557 14.0614C24.9962 14.0331 25.2367 14.0048 25.4701 13.9694C25.8238 13.9199 26.1705 13.8704 26.5029 13.8067C27.3603 13.6587 28.2047 13.4434 29.0284 13.163C29.1062 13.262 29.1769 13.3611 29.2476 13.4601H29.2547C29.3255 13.5521 29.3891 13.6511 29.4528 13.7501Z" fill="#55ACEE"/>
<path d="M26.2662 20.5393C26.1784 20.541 26.0931 20.5094 26.0276 20.4509C25.962 20.3924 25.9209 20.3113 25.9125 20.2238C25.707 18.3772 25.3761 16.5467 24.9222 14.745L24.879 14.6035C23.9198 11.4789 22.1711 9.53855 20.3177 9.53855C18.494 9.53855 16.7616 11.4202 15.796 14.4493L15.7366 14.6417C15.3139 16.4172 15.021 18.2212 14.8601 20.0392C14.8505 20.1307 14.8055 20.2148 14.7349 20.2737C14.6642 20.3326 14.5734 20.3616 14.4817 20.3547C14.4362 20.3522 14.3917 20.3409 14.3507 20.3212C14.3096 20.3015 14.2729 20.2739 14.2425 20.24C14.2121 20.2061 14.1888 20.1665 14.1737 20.1236C14.1587 20.0806 14.1523 20.0351 14.1549 19.9897C14.3196 18.1187 14.623 16.2626 15.0624 14.4366L15.1226 14.2413C16.1801 10.9222 18.1722 8.85449 20.3177 8.85449C22.4972 8.85449 24.5048 10.9823 25.5595 14.4069L25.6034 14.554C26.0709 16.4007 26.4106 18.2774 26.6199 20.1708C26.6226 20.2162 26.6163 20.2617 26.6013 20.3047C26.5864 20.3477 26.5631 20.3873 26.5328 20.4213C26.5025 20.4553 26.4658 20.483 26.4248 20.5027C26.3838 20.5225 26.3393 20.534 26.2938 20.5365L26.2662 20.5393Z" fill="#55ACEE"/>
<path d="M28.0005 20.1732H13.4359C11.6857 20.1732 10.2695 20.0148 10.2695 19.8195C10.2695 19.6243 11.6843 19.4658 13.4359 19.4658H28.0005C29.7506 19.4658 31.1668 19.6243 31.1668 19.8195C31.1668 20.0148 29.7506 20.1732 28.0005 20.1732Z" fill="#55ACEE"/>
<path d="M31.2698 20.1732H29.0557C28.9619 20.1732 28.8719 20.136 28.8056 20.0696C28.7392 20.0033 28.702 19.9133 28.702 19.8195C28.702 19.7257 28.7392 19.6358 28.8056 19.5694C28.8719 19.5031 28.9619 19.4658 29.0557 19.4658H31.2769L31.2698 20.1732ZM24.3586 20.1732H22.6891C22.5953 20.1732 22.5053 20.136 22.439 20.0696C22.3727 20.0033 22.3354 19.9133 22.3354 19.8195C22.3354 19.7257 22.3727 19.6358 22.439 19.5694C22.5053 19.5031 22.5953 19.4658 22.6891 19.4658H24.3161C24.4122 19.465 24.5048 19.5013 24.5747 19.5673C24.6446 19.6332 24.6863 19.7236 24.691 19.8195C24.6934 19.8648 24.6866 19.9101 24.671 19.9527C24.6554 19.9953 24.6314 20.0343 24.6003 20.0674C24.5692 20.1004 24.5318 20.1268 24.4903 20.145C24.4487 20.1632 24.4039 20.1728 24.3586 20.1732ZM13.9527 19.8195C13.9527 20.0176 13.6754 20.1732 13.3231 20.1732H9.38008C9.35882 20.0566 9.35028 19.938 9.35461 19.8195C9.35243 19.7015 9.35668 19.5834 9.36734 19.4658H13.3231C13.6754 19.4658 13.9527 19.6215 13.9527 19.8195Z" fill="#55ACEE"/>
<path d="M20.3211 18.4038C20.2216 18.3976 20.1286 18.3523 20.0623 18.2778C19.9961 18.2034 19.9619 18.1057 19.9674 18.0062V9.25214C19.9674 9.15833 20.0046 9.06837 20.071 9.00203C20.1373 8.9357 20.2272 8.89844 20.3211 8.89844C20.4149 8.89844 20.5048 8.9357 20.5712 9.00203C20.6375 9.06837 20.6748 9.15833 20.6748 9.25214V18.0062C20.6802 18.1057 20.646 18.2034 20.5798 18.2778C20.5135 18.3523 20.4205 18.3976 20.3211 18.4038Z" fill="#55ACEE"/>
<path d="M23.6562 30.5938H32.5938V28.9688C32.5938 27.8913 32.1657 26.858 31.4039 26.0961C30.642 25.3343 29.6087 24.9062 28.5312 24.9062H26.0938C25.5993 24.9066 25.1092 24.9974 24.6475 25.1744L23.6562 30.5938Z" fill="#55BB8C"/>
<path d="M28.5312 22.4688V24.5C28.5312 24.8232 28.4028 25.1332 28.1743 25.3618C27.9457 25.5903 27.6357 25.7188 27.3125 25.7188C26.9893 25.7188 26.6793 25.5903 26.4507 25.3618C26.2222 25.1332 26.0938 24.8232 26.0938 24.5V22.4688H28.5312Z" fill="#FCC37A"/>
<path d="M30.1569 21.2503C30.1569 22.0045 29.8573 22.7278 29.324 23.2611C28.7907 23.7944 28.0674 24.0941 27.3132 24.0941C26.559 24.0941 25.8356 23.7944 25.3023 23.2611C24.769 22.7278 24.4694 22.0045 24.4694 21.2503C24.4667 21.1741 24.4722 21.0978 24.4857 21.0228C24.5416 20.3145 24.8612 19.653 25.3813 19.1689C25.9013 18.6848 26.584 18.4134 27.2945 18.4083C28.005 18.4032 28.6916 18.6647 29.2185 19.1413C29.7455 19.6179 30.0746 20.2748 30.1407 20.9822C30.1488 21.0716 30.1569 21.1609 30.1569 21.2503Z" fill="#FFD9AA"/>
<path d="M30.1394 20.9822C29.92 20.9009 29.7494 20.8441 29.7494 20.8441L27.4256 20.1859C27.0771 20.0866 26.7053 20.1066 26.3694 20.2428L24.8744 20.8441L24.4844 21.0228C24.5403 20.3145 24.8599 19.653 25.38 19.1689C25.9 18.6848 26.5828 18.4134 27.2932 18.4083C28.0037 18.4032 28.6903 18.6647 29.2172 19.1413C29.7442 19.6179 30.0733 20.2748 30.1394 20.9822Z" fill="#57565D"/>
<path d="M15.3525 25.1744C14.8908 24.9974 14.4007 24.9066 13.9062 24.9062H11.4688C10.3913 24.9062 9.358 25.3343 8.59613 26.0961C7.83426 26.858 7.40625 27.8913 7.40625 28.9688V30.5938H16.3438L15.3525 25.1744Z" fill="#FBDE53"/>
<path d="M11.0625 20.0312C11.96 20.0312 12.6875 19.3037 12.6875 18.4062C12.6875 17.5088 11.96 16.7812 11.0625 16.7812C10.165 16.7812 9.4375 17.5088 9.4375 18.4062C9.4375 19.3037 10.165 20.0312 11.0625 20.0312Z" fill="#4C4C51"/>
<path d="M13.9062 22.4688V24.5C13.9062 24.8232 13.7778 25.1332 13.5493 25.3618C13.3207 25.5903 13.0107 25.7188 12.6875 25.7188C12.3643 25.7188 12.0543 25.5903 11.8257 25.3618C11.5972 25.1332 11.4688 24.8232 11.4688 24.5V22.4688H13.9062Z" fill="#FCC37A"/>
<path d="M15.5316 21.2503C15.5316 22.0045 15.232 22.7278 14.6987 23.2611C14.1654 23.7944 13.442 24.094 12.6878 24.094C11.9336 24.094 11.2103 23.7944 10.677 23.2611C10.1437 22.7278 9.84408 22.0045 9.84408 21.2503C9.84275 21.2229 9.84548 21.1956 9.8522 21.169C9.87254 20.4332 10.178 19.7341 10.7042 19.2193C11.2304 18.7046 11.936 18.4144 12.6721 18.4102C13.4082 18.406 14.1171 18.688 14.6491 19.1967C15.1812 19.7054 15.4947 20.401 15.5235 21.1365C15.5302 21.1741 15.5329 21.2122 15.5316 21.2503Z" fill="#FFD9AA"/>
<path d="M15.5228 21.1365L15.3847 21.1203C14.5876 21.0738 13.8082 20.8666 13.0934 20.5109C12.1141 20.9655 11.0449 21.1932 9.96531 21.1772L9.85156 21.169C9.8719 20.4332 10.1774 19.7341 10.7036 19.2193C11.2297 18.7046 11.9354 18.4144 12.6715 18.4102C13.4076 18.406 14.1165 18.688 14.6485 19.1967C15.1805 19.7054 15.494 20.401 15.5228 21.1365Z" fill="#57565D"/>
<path d="M21.5433 23.3203C22.7937 23.3203 23.9928 23.817 24.877 24.7012C25.7611 25.5853 26.2578 26.7845 26.2578 28.0349V31.8065H14V28.0349C14 26.7845 14.4967 25.5853 15.3809 24.7012C16.265 23.817 17.4642 23.3203 18.7145 23.3203H21.5433Z" fill="#ED456A"/>
<path d="M21.5436 20.4922V22.8495C21.5436 23.2246 21.3946 23.5843 21.1293 23.8496C20.8641 24.1148 20.5043 24.2638 20.1292 24.2638C19.7541 24.2638 19.3943 24.1148 19.1291 23.8496C18.8639 23.5843 18.7148 23.2246 18.7148 22.8495V20.4922H21.5436Z" fill="#FCC37A"/>
<path d="M23.4289 19.0774C23.4289 19.9527 23.0812 20.7921 22.4623 21.411C21.8434 22.0299 21.004 22.3776 20.1287 22.3776C19.2534 22.3776 18.414 22.0299 17.7951 21.411C17.1762 20.7921 16.8285 19.9527 16.8285 19.0774C16.8269 18.9987 16.8301 18.92 16.8379 18.8417C16.9041 18.0215 17.2742 17.2556 17.8757 16.6942C18.4772 16.1328 19.2668 15.8163 20.0896 15.8069C20.9124 15.7974 21.709 16.0957 22.3233 16.6431C22.9375 17.1906 23.3251 17.9478 23.41 18.7663C23.4195 18.87 23.4289 18.9737 23.4289 19.0774Z" fill="#FFD9AA"/>
<path d="M23.41 18.7663L22.9574 18.606L20.2607 17.8422C19.8561 17.7269 19.4247 17.7501 19.0349 17.9082L17.2999 18.606L16.8379 18.8417C16.904 18.0215 17.2741 17.2556 17.8756 16.6942C18.4772 16.1328 19.2668 15.8163 20.0895 15.8069C20.9123 15.7974 21.7089 16.0957 22.3232 16.6431C22.9375 17.1906 23.3251 17.9478 23.41 18.7663Z" fill="#57565D"/>
<rect x="0.5" y="0.5" width="39" height="39" rx="19.5" stroke="#DEDEDE"/>
</svg>
