<svg width="40" height="40" viewBox="0 0 40 40" fill="none" xmlns="http://www.w3.org/2000/svg">
<rect x="0.5" y="0.5" width="39" height="39" rx="19.5" fill="#F2F4F8"/>
<path d="M28.6111 13.1978L26.274 15.5351C25.4399 15.1425 24.6131 15.374 24.0879 15.8984C23.4955 16.4908 23.3858 17.3675 23.7243 18.0849L21.8096 19.9999L23.6323 21.8229L23.6368 21.818C24.3904 21.0656 25.616 21.0651 26.3707 21.8173C27.1247 22.5719 27.1247 23.7986 26.3707 24.5525L26.3663 24.557L28.6111 26.802C30.1493 24.349 30.9991 22.9906 31.0001 19.9999C31.0014 16.0432 28.7428 13.4596 28.6111 13.1978Z" fill="#F25A3C"/>
<path d="M15.8974 24.1015C16.4898 23.5091 16.5994 22.6324 16.2609 21.9149L18.1757 19.9999L16.353 18.177L16.3485 18.1818C15.5949 18.9341 14.3693 18.9346 13.6145 18.1824C12.8605 17.4278 12.8605 16.2012 13.6145 15.4472L13.619 15.4428L11.3741 13.1978C9.83592 15.6508 9.00103 17.0093 9 19.9999C8.99871 23.9567 11.2425 26.5403 11.3741 26.8021L13.7112 24.4648C14.5454 24.8574 15.3721 24.6259 15.8974 24.1015Z" fill="#FFDF40"/>
<path d="M24.4526 26.2803C24.8452 25.4461 24.6137 24.6194 24.0893 24.0941C23.4969 23.5017 22.6202 23.3921 21.9027 23.7306L19.9951 21.8232L18.1648 23.6386L18.1696 23.6431C18.9219 24.3967 18.9224 25.6223 18.1702 26.377C17.4156 27.131 16.189 27.131 15.435 26.377L15.4306 26.3726L13.1855 28.6174C13.6008 28.8778 14.4654 29.5955 15.9743 30.1902H15.9749C17.2756 30.7013 18.639 30.9995 19.9951 30.999C23.944 30.9977 26.5275 28.7493 26.7899 28.6174L24.4526 26.2803Z" fill="#66CCFF"/>
<path d="M26.7938 28.6174L24.4565 26.2803C24.849 25.4462 24.6176 24.6194 24.0932 24.0941C23.5008 23.5017 22.6241 23.3921 21.9066 23.7306L19.999 21.8232V30.999C23.9479 30.9977 26.5315 28.7493 26.7938 28.6174Z" fill="#59ABFF"/>
<path d="M19.9961 9.00098C16.0393 8.99699 13.4484 11.2509 13.1865 11.3825L15.5238 13.7196C15.1313 14.5537 15.3627 15.3805 15.8872 15.9057C16.4795 16.4981 17.3562 16.6078 18.0737 16.2693L19.9961 18.1767L21.8116 16.3613L21.8067 16.3569C21.0544 15.6032 21.0539 14.3776 21.8061 13.6229C22.5607 12.869 23.7873 12.869 24.5413 13.6229L24.5458 13.6274L26.7908 11.3825C24.3303 9.83957 22.9755 9.00408 19.9961 9.00098Z" fill="#A0E65C"/>
<path d="M21.8097 16.3569C21.0574 15.6033 21.0569 14.3777 21.8091 13.6229C22.5637 12.869 23.7903 12.869 24.5443 13.6229L24.5488 13.6274L26.7938 11.3825C24.3332 9.8396 22.9785 9.00411 19.999 9.00098V18.1766L21.8146 16.3613L21.8097 16.3569Z" fill="#79CC52"/>
<rect x="0.5" y="0.5" width="39" height="39" rx="19.5" stroke="#DEDEDE"/>
</svg>
