<svg width="94" height="94" viewBox="0 0 94 94" fill="none" xmlns="http://www.w3.org/2000/svg">
<path d="M69.75 37L67.25 39.5L63.7812 32.5612C63.4025 32.7362 63.0262 32.9175 62.6425 33.0825C62.3837 33.1925 62.105 33.25 61.8237 33.25C60.6787 33.25 59.75 32.3212 59.75 31.1762C59.75 30.895 59.8075 30.6175 59.9175 30.3588C60.0825 29.975 60.2637 29.5987 60.4387 29.22L53.5 25.75L56 23.25L58.3387 23.835C54.66 21.8713 50.4625 20.75 46 20.75C39.7675 20.75 34.05 22.9325 29.5475 26.5613C29.4037 26.82 29.2762 27.0863 29.1112 27.3338L21.6938 38.46C21.4988 38.7537 21.2363 38.9837 20.9425 39.16C20.1688 41.6362 19.75 44.2687 19.75 47C19.75 51.5375 20.9325 55.7825 22.965 59.5H36C37.3813 59.5 38.5 60.6188 38.5 62C38.5 63.3812 37.3813 64.5 36 64.5L40.02 72.5387C41.9438 72.9888 43.9387 73.25 46 73.25C50.525 73.25 54.7837 72.1038 58.5 70.0875V64.5C58.5 63.1188 59.6188 62 61 62H67.525C70.495 57.7463 72.25 52.5812 72.25 47C72.25 42.5375 71.1287 38.34 69.165 34.6612L69.75 37Z" fill="#EE0202"/>
<path d="M27.25 20.75C27.25 16.6137 23.8862 13.25 19.75 13.25C15.6137 13.25 12.25 16.6137 12.25 20.75C12.25 24.8862 15.6137 28.25 19.75 28.25C23.8862 28.25 27.25 24.8862 27.25 20.75ZM14.75 20.75C14.75 17.9925 16.9925 15.75 19.75 15.75C22.5075 15.75 24.75 17.9925 24.75 20.75C24.75 23.5075 22.5075 25.75 19.75 25.75C16.9925 25.75 14.75 23.5075 14.75 20.75Z" fill="black"/>
<path d="M71.0541 20.175L72.8218 18.4073L74.5896 20.175L72.8218 21.9428L71.0541 20.175Z" fill="black"/>
<path d="M67.6088 23.6218L69.2873 21.9433L71.055 23.7111L69.3765 25.3896L67.6088 23.6218Z" fill="black"/>
<path d="M74.59 16.6406L76.3577 14.8729L78.1255 16.6406L76.3577 18.4084L74.59 16.6406Z" fill="black"/>
<path d="M77.25 78.25H79.75V80.75H77.25V78.25Z" fill="black"/>
<path d="M72.25 78.25H74.75V80.75H72.25V78.25Z" fill="black"/>
<path d="M22.25 68.25H24.75V70.75H22.25V68.25Z" fill="black"/>
<path d="M27.25 68.25H29.75V70.75H27.25V68.25Z" fill="black"/>
<path d="M32.25 68.25H34.75V70.75H32.25V68.25Z" fill="black"/>
<path d="M81 60.7498H74.0662C76.1525 56.4911 77.25 51.7811 77.25 46.9998C77.25 40.6498 75.355 34.6011 71.7988 29.4048C72.7425 28.7461 73.6637 28.0548 74.56 27.3286L82.25 35.0173L84.93 32.3373L81.18 21.0861L81.58 20.6861C82.8187 19.4498 83.5 17.8048 83.5 16.0523C83.5 12.4398 80.56 9.49982 76.9463 9.49982C75.1975 9.49982 73.5512 10.1811 72.3125 11.4173L71.91 11.8198L60.6613 8.06982L57.9825 10.7498L65.6725 18.4398C64.945 19.3348 64.255 20.2573 63.5962 21.1998C58.3988 17.6448 52.35 15.7498 46 15.7498C41.1688 15.7498 36.4075 16.8711 32.1138 19.0011C31.2588 12.9361 26.0475 8.24982 19.75 8.24982C12.8575 8.24982 7.25 13.8573 7.25 20.7498V21.0936C7.25 23.5686 7.97625 25.9661 9.35 28.0273L16.0588 38.0898C15.2013 40.9711 14.75 43.9636 14.75 46.9998C14.75 50.8948 15.4563 54.6698 16.8413 58.2498H16C13.9325 58.2498 12.25 59.9323 12.25 61.9998C12.25 63.6273 13.2987 65.0023 14.75 65.5198V68.2498H7.25V72.4361C7.25 79.7773 13.2225 85.7498 20.5638 85.7498H34.4C39.5363 85.7498 44.1787 82.7523 46.3762 78.2398C50.1375 78.1961 53.7863 77.4986 57.2513 76.1586V81.9998C57.2513 84.0673 58.9338 85.7498 61.0013 85.7498H81.0013C83.0687 85.7498 84.7513 84.0673 84.7513 81.9998V64.4998C84.75 62.4323 83.0675 60.7498 81 60.7498ZM61 60.7498H57.2675C57.9912 56.9698 58.42 52.7448 58.4875 48.2498H74.7087C74.5187 52.6336 73.33 56.9148 71.2375 60.7498H61ZM47.2113 75.4973L47.25 73.2498H41.7725L37.7863 65.2761C38.5888 64.8373 39.2087 64.1211 39.52 63.2498H54.1588C52.4688 69.9823 49.8375 74.4323 47.2113 75.4973ZM39.52 60.7498C39.0975 59.5648 38.1038 58.6548 36.8638 58.3598C36.3587 55.1461 36.0788 51.7561 36.025 48.2498H55.9875C55.9163 52.8711 55.4525 57.0836 54.72 60.7498H39.52ZM17.2975 45.7498C17.3763 43.9098 17.6112 42.0886 18.035 40.3098C18.5538 40.5936 19.14 40.7498 19.75 40.7498C20.9513 40.7498 22.0662 40.1523 22.7338 39.1536L26.6688 33.2498H34.7325C34.0088 37.0298 33.58 41.2548 33.5125 45.7498H17.2975ZM37.2875 33.2498H54.7288C55.4863 37.0723 55.9087 41.3273 55.9775 45.7498H36.0237C36.0962 41.1298 36.5538 36.9136 37.2875 33.2498ZM46 18.2498C48.2212 18.2498 50.5062 20.7648 52.34 25.1423L51.39 26.0923L53.02 26.9073C53.445 28.1136 53.8312 29.3923 54.17 30.7498H37.8488C39.8025 22.9861 43.0075 18.2498 46 18.2498ZM59.85 27.5273L55.61 25.4073L56.3838 24.6348L60.7762 25.7323C60.4538 26.3223 60.1488 26.9223 59.85 27.5273ZM58.8 29.7973C58.79 29.8198 58.7788 29.8423 58.7687 29.8648C58.6463 30.1486 58.5812 30.4473 58.5425 30.7498H56.735C56.55 29.9661 56.3488 29.2073 56.1363 28.4661L58.8 29.7973ZM74.7012 45.7498H58.4775C58.4112 41.3523 58 37.1086 57.2675 33.2498H59.2475C59.8575 34.0061 60.7788 34.4998 61.8237 34.4998C62.2738 34.4998 62.7138 34.4098 63.1338 34.2311C63.1575 34.2211 63.1788 34.2098 63.2025 34.1998L66.9075 41.6098L71.1337 37.3823L69.5163 30.9111C69.5837 30.8698 69.6488 30.8248 69.7162 30.7823C72.765 35.2286 74.4712 40.3536 74.7012 45.7498ZM67.2675 32.2236L68.365 36.6161L67.5912 37.3886L65.4712 33.1486C66.0775 32.8511 66.6775 32.5461 67.2675 32.2236ZM81.89 31.1223L76.4675 25.6998C77.0963 25.1336 77.7138 24.5536 78.3138 23.9523L79.2025 23.0636L81.89 31.1223ZM76.9463 11.9998C79.1813 11.9998 81 13.8173 81 16.0523C81 17.1361 80.5788 18.1536 79.8125 18.9186L76.5462 22.1848C72.3925 26.3386 67.5475 29.6186 62.1513 31.9323C61.6225 32.1548 61 31.7423 61 31.1761C61 31.0636 61.0225 30.9536 61.0663 30.8498C63.3813 25.4511 66.66 20.6073 70.8138 16.4523L74.0788 13.1861V13.1873C74.8463 12.4211 75.865 11.9998 76.9463 11.9998ZM61.8787 11.1098L69.9362 13.7961L69.0475 14.6861C68.4463 15.2873 67.8663 15.9048 67.3 16.5323L61.8787 11.1098ZM62.0875 23.4836L55.6175 21.8648L54.245 23.2373C53.4238 21.4536 52.515 19.9636 51.5363 18.7998C55.3563 19.5411 58.9675 21.0536 62.2175 23.2823C62.1737 23.3511 62.1287 23.4161 62.0875 23.4836ZM32.1987 21.7886C34.81 20.3573 37.625 19.3386 40.5438 18.7761C38.3388 21.3886 36.51 25.5573 35.2688 30.7498H28.335L30.15 28.0273C31.3937 26.1611 32.075 24.0148 32.1987 21.7886ZM9.75 21.0936V20.7498C9.75 15.2361 14.2363 10.7498 19.75 10.7498C25.2638 10.7498 29.75 15.2361 29.75 20.7498V21.0936C29.75 23.0748 29.1688 24.9923 28.07 26.6411L20.6525 37.7661C20.2487 38.3711 19.25 38.3711 18.8463 37.7661L11.4288 26.6411C10.3312 24.9936 9.75 23.0748 9.75 21.0936ZM17.2825 48.2498H33.525C33.5775 51.7073 33.8438 55.0573 34.3212 58.2498H19.545C18.1913 55.0723 17.43 51.7186 17.2825 48.2498ZM16 60.7498H36C36.6887 60.7498 37.25 61.3098 37.25 61.9998C37.25 62.6898 36.6887 63.2498 36 63.2498H16C15.3112 63.2498 14.75 62.6898 14.75 61.9998C14.75 61.3098 15.3112 60.7498 16 60.7498ZM17.25 65.7498H35.2275L38.9775 73.2498H21.7725L19.2725 68.2498H17.25V65.7498ZM34.4 83.2498H20.5638C14.6013 83.2498 9.75 78.3986 9.75 72.4361V70.7498H17.7275L20.2275 75.7498H44.6937C43.265 80.1836 39.0825 83.2498 34.4 83.2498ZM51.455 75.2248C53.66 72.6123 55.49 68.4423 56.7312 63.2498H57.48C57.34 63.6423 57.25 64.0598 57.25 64.4998V73.4536C55.375 74.2536 53.44 74.8448 51.455 75.2248ZM82.25 81.9998C82.25 82.6898 81.6888 83.2498 81 83.2498H61C60.3112 83.2498 59.75 82.6898 59.75 81.9998V64.4998C59.75 63.8098 60.3112 63.2498 61 63.2498H81C81.6888 63.2498 82.25 63.8098 82.25 64.4998V81.9998Z" fill="#002452"/>
<path d="M39.75 50.75H42.25V53.25H39.75V50.75Z" fill="black"/>
<path d="M44.75 50.75H47.25V53.25H44.75V50.75Z" fill="black"/>
<path d="M49.75 50.75H52.25V53.25H49.75V50.75Z" fill="black"/>
<path d="M49.75 40.75H52.25V43.25H49.75V40.75Z" fill="black"/>
<path d="M44.75 40.75H47.25V43.25H44.75V40.75Z" fill="black"/>
<path d="M39.75 40.75H42.25V43.25H39.75V40.75Z" fill="black"/>
</svg>
