<svg width="94" height="94" viewBox="0 0 94 94" fill="none" xmlns="http://www.w3.org/2000/svg">
<path d="M27 85.75C16.6613 85.75 8.25 77.3387 8.25 67C8.25 56.6613 16.6613 48.25 27 48.25C37.3387 48.25 45.75 56.6613 45.75 67C45.75 77.3387 37.3387 85.75 27 85.75ZM27 54.5C20.1075 54.5 14.5 60.1075 14.5 67C14.5 73.8925 20.1075 79.5 27 79.5C33.8925 79.5 39.5 73.8925 39.5 67C39.5 60.1075 33.8925 54.5 27 54.5Z" fill="#EE0202"/>
<path d="M25.75 70.75C25.06 70.75 24.5 70.19 24.5 69.5H22C22 71.5675 23.6825 73.25 25.75 73.25V75.75H28.25V73.25H32V69.5C32 67.4325 30.3175 65.75 28.25 65.75H25.75C25.06 65.75 24.5 65.19 24.5 64.5V63.25H28.25C28.94 63.25 29.5 63.81 29.5 64.5H32C32 62.4325 30.3175 60.75 28.25 60.75V58.25H25.75V60.75H22V64.5C22 66.5675 23.6825 68.25 25.75 68.25H28.25C28.94 68.25 29.5 68.81 29.5 69.5V70.75H25.75Z" fill="#002452"/>
<path d="M27 78.2516C20.7963 78.2516 15.75 73.2053 15.75 67.0016C15.75 64.4091 16.655 61.8766 18.2975 59.8741L16.3638 58.2891C14.3563 60.7378 13.25 63.8328 13.25 67.0016C13.25 74.5828 19.4187 80.7516 27 80.7516C30.1688 80.7516 33.2638 79.6453 35.7125 77.6378L34.1275 75.7041C32.125 77.3466 29.5925 78.2516 27 78.2516Z" fill="#002452"/>
<path d="M27.0001 53.25C23.8313 53.25 20.7363 54.3563 18.2876 56.3638L19.8726 58.2975C21.8751 56.655 24.4076 55.75 27.0001 55.75C33.2038 55.75 38.2501 60.7963 38.2501 67C38.2501 69.5925 37.3451 72.125 35.7026 74.1275L37.6363 75.7125C39.6438 73.2638 40.7501 70.1688 40.7501 67C40.7501 59.4187 34.5813 53.25 27.0001 53.25Z" fill="#002452"/>
<path d="M83.25 53.25C84.6288 53.25 85.75 52.1287 85.75 50.75V45.75C85.75 44.3713 84.6288 43.25 83.25 43.25H62.5175L75.25 30.5175L80.5187 35.785L84.8438 14.1562L63.215 18.4813L68.4825 23.7488L55.75 36.4825L47 27.7325L43.9825 30.75H37C33.4675 30.75 30.3137 32.39 28.25 34.945V34.5V28.25H34.5C40.7038 28.25 45.75 23.2025 45.75 17V15.75H37C33.4675 15.75 30.3137 17.39 28.25 19.945V19.5C28.25 13.2975 23.2037 8.25 17 8.25H8.25V9.5C8.25 15.7025 13.2963 20.75 19.5 20.75H25.75V27V27.445C23.6862 24.89 20.5325 23.25 17 23.25H8.25V24.5C8.25 30.7025 13.2963 35.75 19.5 35.75H25.75V42V43.25V48.3137C26.165 48.2862 26.5775 48.25 27 48.25C27.95 48.25 28.875 48.3437 29.7875 48.48L35.0462 43.2212C40.8138 42.9425 45.445 38.3112 45.7238 32.5437L47 31.2675L55.75 40.0175L72.0175 23.75L68.2862 20.0175L81.6575 17.3438L78.9825 30.715L75.25 26.9825L58.9825 43.25H53.25C53.0275 43.25 52.8162 43.2887 52.6112 43.3438L47 37.7325L34.7738 49.9588C35.5675 50.3225 36.3325 50.7387 37.0625 51.205L47 41.2675L50.8438 45.1113C50.7887 45.3162 50.75 45.5275 50.75 45.75V50.75C50.75 52.1287 51.8713 53.25 53.25 53.25H54.5V56.4825L52.5812 58.4012C51.4012 59.5812 50.75 61.1513 50.75 62.8213V79.5C50.75 82.9463 53.5537 85.75 57 85.75H62H77H79.5C82.9463 85.75 85.75 82.9463 85.75 79.5V62.8213C85.75 61.1513 85.0987 59.5812 83.9187 58.4012L82 56.4825V53.25H83.25ZM37 18.25H43.1613C42.5538 22.485 38.9012 25.75 34.5 25.75H28.3387C28.9475 21.515 32.5988 18.25 37 18.25ZM19.5 18.25C15.0988 18.25 11.4475 14.985 10.8388 10.75H17C21.4012 10.75 25.0525 14.015 25.6612 18.25H19.5ZM19.5 33.25C15.0988 33.25 11.4475 29.985 10.8388 25.75H17C21.4012 25.75 25.0525 29.015 25.6612 33.25H19.5ZM28.25 46.4825V43.25H31.4825L28.25 46.4825ZM34.5 40.75H28.3387C28.9462 36.515 32.5988 33.25 37 33.25H43.1613C42.5525 37.485 38.9012 40.75 34.5 40.75ZM53.25 45.75H83.25L83.2525 50.75H53.25V45.75ZM60.75 67V64.5C60.75 63.81 61.31 63.25 62 63.25H63.25V65.75H65.75V63.25H68.25V65.75H70.75V63.25H73.25V65.75H75.75V63.25H77C77.69 63.25 78.25 63.81 78.25 64.5V67C78.25 67.69 77.69 68.25 77 68.25H74.5H62C61.31 68.25 60.75 67.69 60.75 67ZM59.5 70.75H60.75V73.25H63.25V70.75H65.75V73.25H68.25V70.75H70.75V73.25H73.25V70.75H74.5C75.19 70.75 75.75 71.31 75.75 72V74.5C75.75 75.19 75.19 75.75 74.5 75.75H62H59.5C58.81 75.75 58.25 75.19 58.25 74.5V72C58.25 71.31 58.81 70.75 59.5 70.75ZM62 83.25C61.31 83.25 60.75 82.69 60.75 82V79.5C60.75 78.81 61.31 78.25 62 78.25H63.25V80.75H65.75V78.25H68.25V80.75H70.75V78.25H73.25V80.75H75.75V78.25H77C77.69 78.25 78.25 78.81 78.25 79.5V82C78.25 82.69 77.69 83.25 77 83.25H62ZM82.1512 60.1688C82.86 60.8775 83.25 61.8188 83.25 62.8213V79.5C83.25 81.1925 82.1162 82.6087 80.5738 83.0738C80.6775 82.7313 80.75 82.3763 80.75 82V79.5C80.75 77.7712 79.5687 76.3262 77.975 75.895C78.1488 75.4625 78.25 74.9938 78.25 74.5V72C78.25 71.5062 78.1488 71.0375 77.975 70.605C79.5687 70.1725 80.75 68.7287 80.75 67V64.5C80.75 62.4325 79.0675 60.75 77 60.75H62C59.9325 60.75 58.25 62.4325 58.25 64.5V67C58.25 67.4938 58.3512 67.9625 58.525 68.395C56.9313 68.8263 55.75 70.2713 55.75 72V74.5C55.75 76.2288 56.9313 77.6738 58.525 78.105C58.3512 78.5375 58.25 79.0062 58.25 79.5V82C58.25 82.44 58.34 82.8575 58.48 83.25H57C54.9325 83.25 53.25 81.5675 53.25 79.5V62.8213C53.25 61.8188 53.6413 60.8763 54.3488 60.1688L57 57.5175V53.25H79.5V57.5175L82.1512 60.1688Z" fill="#002452"/>
</svg>
