<svg width="40" height="41" viewBox="0 0 40 41" fill="none" xmlns="http://www.w3.org/2000/svg">
<rect x="0.5" y="0.505859" width="39" height="39" rx="19.5" fill="#F2F4F8"/>
<g clip-path="url(#clip0_5519_28167)">
<path d="M20.0008 32.6246C23.6019 32.6246 26.5211 30.8762 26.5211 28.7195C26.5211 26.5628 23.6019 24.8145 20.0008 24.8145C16.3997 24.8145 13.4805 26.5628 13.4805 28.7195C13.4805 30.8762 16.3997 32.6246 20.0008 32.6246Z" fill="#FFC107"/>
<path d="M20.0011 7.38672C15.5191 7.38672 11.873 11.0049 11.873 15.4523C11.873 20.9057 20.0011 29.3826 20.0011 29.3826C20.0011 29.3826 28.1291 20.6818 28.1291 15.4523C28.1291 11.0049 24.483 7.38672 20.0011 7.38672ZM20.0011 20.5264C17.1238 20.5264 14.7914 18.2118 14.7914 15.3568C14.7914 12.5019 17.1238 10.1878 20.0011 10.1878C22.8784 10.1878 25.2107 12.5024 25.2107 15.3568C25.2107 18.2112 22.8784 20.5264 20.0011 20.5264Z" fill="#AF3CF5"/>
<path d="M22.4806 14.0586H17.5193C17.3123 14.0586 17.1445 14.2264 17.1445 14.4334V17.4833C17.1445 17.6903 17.3123 17.858 17.5193 17.858H22.4806C22.6876 17.858 22.8554 17.6903 22.8554 17.4833V14.4334C22.8554 14.2264 22.6876 14.0586 22.4806 14.0586Z" fill="#529C30"/>
<path d="M22.4805 14.0586H20.957C21.0564 14.0586 21.1517 14.0981 21.222 14.1684C21.2923 14.2386 21.3318 14.334 21.3318 14.4334V17.4833C21.3318 17.5827 21.2923 17.678 21.222 17.7483C21.1517 17.8186 21.0564 17.858 20.957 17.858H22.4805C22.5799 17.858 22.6752 17.8186 22.7455 17.7483C22.8157 17.678 22.8552 17.5827 22.8552 17.4833V14.4334C22.8552 14.334 22.8157 14.2386 22.7455 14.1684C22.6752 14.0981 22.5799 14.0586 22.4805 14.0586Z" fill="#368412"/>
<path d="M21.3087 15.2016H18.6914C18.5904 15.2016 18.4935 15.1615 18.4221 15.09C18.3507 15.0186 18.3105 14.9217 18.3105 14.8207V13.2303C18.3108 13.0196 18.3946 12.8176 18.5436 12.6686C18.6926 12.5196 18.8946 12.4358 19.1053 12.4355H20.8948C21.1055 12.4358 21.3075 12.5196 21.4565 12.6686C21.6055 12.8176 21.6893 13.0196 21.6895 13.2303V14.8207C21.6895 14.9217 21.6494 15.0186 21.578 15.09C21.5066 15.1615 21.4097 15.2016 21.3087 15.2016ZM19.0743 14.4399H20.9299V13.2303C20.9299 13.2259 20.929 13.2216 20.9273 13.2176C20.9257 13.2136 20.9233 13.21 20.9202 13.2069C20.9171 13.2039 20.9135 13.2014 20.9095 13.1998C20.9055 13.1981 20.9012 13.1973 20.8968 13.1973H19.1053C19.1009 13.1973 19.0967 13.1981 19.0926 13.1998C19.0886 13.2014 19.085 13.2039 19.0819 13.2069C19.0789 13.21 19.0764 13.2136 19.0748 13.2176C19.0731 13.2216 19.0723 13.2259 19.0723 13.2303L19.0743 14.4399Z" fill="#676E87"/>
<path d="M22.8554 15.1986L20.2478 16.3336C20.1696 16.3678 20.0852 16.3854 20 16.3854C19.9147 16.3854 19.8303 16.3678 19.7521 16.3336L17.1445 15.1986V14.4334C17.1445 14.334 17.184 14.2386 17.2543 14.1684C17.3246 14.0981 17.4199 14.0586 17.5193 14.0586H22.4806C22.58 14.0586 22.6753 14.0981 22.7456 14.1684C22.8159 14.2386 22.8554 14.334 22.8554 14.4334V15.1986Z" fill="#79CC52"/>
<path d="M21.3318 14.4334V15.8618L22.8552 15.1986V14.4334C22.8552 14.3586 22.833 14.2856 22.7912 14.2236C22.7846 14.214 22.777 14.2043 22.7694 14.1952C22.7343 14.1525 22.6902 14.1181 22.6403 14.0945C22.5903 14.0708 22.5357 14.0586 22.4805 14.0586H20.957C21.0564 14.0586 21.1517 14.0981 21.222 14.1684C21.2923 14.2386 21.3318 14.334 21.3318 14.4334Z" fill="#34A853"/>
</g>
<rect x="0.5" y="0.505859" width="39" height="39" rx="19.5" stroke="#DEDEDE"/>
<defs>
<clipPath id="clip0_5519_28167">
<rect width="26" height="26" fill="white" transform="translate(7 7.00586)"/>
</clipPath>
</defs>
</svg>
