<svg width="40" height="40" viewBox="0 0 40 40" fill="none" xmlns="http://www.w3.org/2000/svg">
<rect x="0.5" y="0.5" width="39" height="39" rx="19.5" fill="#F2F4F8"/>
<path d="M22.4805 9.125H11.9805C10.9449 9.125 10.1055 9.96447 10.1055 11V29C10.1055 30.0355 10.9449 30.875 11.9805 30.875H22.4805C23.516 30.875 24.3555 30.0355 24.3555 29V11C24.3555 9.96447 23.516 9.125 22.4805 9.125Z" fill="#0A617D"/>
<path d="M20.9805 9.125V11.375C20.9802 11.4744 20.9406 11.5696 20.8703 11.6398C20.8001 11.7101 20.7048 11.7497 20.6055 11.75H13.8555C13.7561 11.7497 13.6609 11.7101 13.5906 11.6398C13.5204 11.5696 13.4808 11.4744 13.4805 11.375V9.125H20.9805Z" fill="#0067FF"/>
<path d="M17.2305 29.375C18.0589 29.375 18.7305 28.7034 18.7305 27.875C18.7305 27.0466 18.0589 26.375 17.2305 26.375C16.402 26.375 15.7305 27.0466 15.7305 27.875C15.7305 28.7034 16.402 29.375 17.2305 29.375Z" fill="#0067FF"/>
<path d="M29.7598 14.7793H16.1266C15.8129 14.7793 15.5586 15.0336 15.5586 15.3473V23.3C15.5586 23.6137 15.8129 23.8681 16.1266 23.8681H29.7598C30.0735 23.8681 30.3278 23.6137 30.3278 23.3V15.3473C30.3278 15.0336 30.0735 14.7793 29.7598 14.7793Z" fill="#FF9811"/>
<path d="M30.3278 15.3473C30.3278 15.1967 30.268 15.0522 30.1614 14.9457C30.0549 14.8391 29.9104 14.7793 29.7598 14.7793H16.1266C15.976 14.7793 15.8315 14.8391 15.725 14.9457C15.6184 15.0522 15.5586 15.1967 15.5586 15.3473V15.6514L22.6281 20.3643C22.7214 20.4265 22.8311 20.4597 22.9432 20.4597C23.0554 20.4597 23.165 20.4265 23.2583 20.3643L30.3278 15.6512V15.3473Z" fill="#FFDA44"/>
<rect x="0.5" y="0.5" width="39" height="39" rx="19.5" stroke="#DEDEDE"/>
</svg>
