<svg width="40" height="40" viewBox="0 0 40 40" fill="none" xmlns="http://www.w3.org/2000/svg">
<rect x="0.5" y="0.5" width="39" height="39" rx="19.5" fill="#F2F4F8"/>
<g clip-path="url(#clip0_5684:22724)">
<path d="M23 18.1875C20.6296 18.1875 18.3563 19.1291 16.6802 20.8052C15.0041 22.4813 14.0625 24.7546 14.0625 27.125V28.75C14.0625 29.3965 14.3193 30.0165 14.7764 30.4736C15.2335 30.9307 15.8535 31.1875 16.5 31.1875H29.5C30.1465 31.1875 30.7665 30.9307 31.2236 30.4736C31.6807 30.0165 31.9375 29.3965 31.9375 28.75V27.125C31.9375 24.7546 30.9959 22.4813 29.3198 20.8052C27.6437 19.1291 25.3704 18.1875 23 18.1875Z" fill="#303030"/>
<path d="M23 16.5625C25.6924 16.5625 27.875 14.3799 27.875 11.6875C27.875 8.99511 25.6924 6.8125 23 6.8125C20.3076 6.8125 18.125 8.99511 18.125 11.6875C18.125 14.3799 20.3076 16.5625 23 16.5625Z" fill="#FFE0A6"/>
<path fill-rule="evenodd" clip-rule="evenodd" d="M26.4471 15.1346C27.3614 14.2204 27.875 12.9804 27.875 11.6875C27.875 10.3946 27.3614 9.15459 26.4471 8.24035C25.5329 7.32611 24.2929 6.8125 23 6.8125V11.6875V16.5625C24.2929 16.5625 25.5329 16.0489 26.4471 15.1346Z" fill="#FFD17B"/>
<path d="M31.9375 27.125V28.75C31.9375 29.3965 31.6807 30.0165 31.2236 30.4736C30.7665 30.9307 30.1465 31.1875 29.5 31.1875H23V18.1875C25.3704 18.1875 27.6437 19.1291 29.3198 20.8052C30.9959 22.4813 31.9375 24.7546 31.9375 27.125Z" fill="#000011"/>
<path d="M20.6879 21.1504C19.9159 19.9091 25.728 19.6378 25.3468 21.2914" stroke="#FFD17B" stroke-width="4"/>
<path d="M24.4643 27.8054L26.502 18.998L26.2334 18.8L25.9648 18.7001C25.5813 18.6291 24.9838 18.9574 24.9648 18.498L22.9227 20.6737L20.9648 18.498C20.9459 18.9574 20.3484 18.629 19.9648 18.7L19.4648 18.9L21.4643 27.8054L21.9648 29.998L22.4648 30.998L22.5352 31.1855H22.7148H22.9648H23.3398V31.166L24.4643 27.8054Z" fill="#DEDEDE"/>
<path d="M25.3778 27.9244L26.9736 25.1683C27.1725 24.8652 27.3525 24.6663 27.021 24.207L25.9318 22.5969H27.111C27.4519 22.5969 27.4993 22.5211 27.4993 22.0475L27.433 19.4051C27.433 19.4051 27.3193 19.4115 27.2957 19.3784C27.272 19.35 26.498 18.9003 26.498 18.9003L26.268 18.8203L23.3281 31.2004L25.3778 27.9244Z" fill="#000011"/>
<path d="M21.5996 22.4978L21.9625 25.4978L22.525 31.1813H23.3453L23.9996 25.4978L24.1996 22.4978C24.1617 22.602 24.1901 22.3415 24.1996 22.4978L22.8996 20.7899L23.4996 20.4978L22.8996 19.3496L22.1996 20.4978L22.8996 20.7899C22.9612 20.9319 21.6043 22.3131 21.5996 22.4978Z" fill="#5CCE26"/>
<path d="M18.9263 22.9043H20.1054L19.0162 24.5144C18.6847 24.9737 18.86 25.1726 19.0589 25.4757L20.6926 28.2318L22.5332 31.1865L21.8907 28.2318L19.4629 18.9082C19.4629 18.9082 18.6374 19.259 18.6042 19.3584C18.5948 19.3915 18.6042 19.7693 18.6042 19.7693L18.5332 22.3597C18.5427 22.8285 18.5853 22.9043 18.9263 22.9043Z" fill="#000011"/>
<path d="M25.6328 18.5493C25.4629 18.4973 25.0258 18.3973 24.9629 18.3992L22.9006 19.3347L20.9635 18.3691C20.4629 18.4473 20.4635 18.4972 20.4635 18.4972L19.4902 18.8892L22.3 20.4973C22.5 19.9973 22.5 19.9973 22.5 19.9973L22.9006 19.3347L23.2 19.9973C23.5 20.4973 23.5 20.4973 23.5 20.4973L26.3006 18.8192L25.6328 18.5493Z" fill="white"/>
<path d="M22.8817 19.291L23.7477 20.791H22.0156L22.8817 19.291Z" fill="#5CCE26"/>
<path d="M22.8817 19.291L23.7477 20.791H22.0156L22.8817 19.291Z" fill="#5CCE26"/>
<path d="M22.884 22.291L22.0179 20.791H23.75L22.884 22.291Z" fill="#5CCE26"/>
<path d="M10.7407 23.9648L11.5293 24.7534L10.5588 25.7239L9.77015 24.9353L10.7407 23.9648Z" fill="#676E87"/>
<path d="M10.7425 23.9648L10.9473 24.1696L10.5749 24.542C10.4705 24.6464 10.4119 24.7879 10.4119 24.9355C10.4119 25.083 10.4705 25.2245 10.5749 25.3289L10.766 25.52L10.5612 25.7248L9.7727 24.9363L10.7425 23.9648Z" fill="#595F74"/>
<path d="M7.37517 28.119C7.46677 28.2106 7.57553 28.2833 7.69522 28.3328C7.81491 28.3824 7.9432 28.4079 8.07276 28.4079C8.20231 28.4079 8.3306 28.3824 8.4503 28.3328C8.56999 28.2833 8.67874 28.2106 8.77034 28.119L10.5598 26.3295C10.5996 26.2897 10.6313 26.2424 10.6529 26.1904C10.6744 26.1383 10.6855 26.0826 10.6855 26.0262C10.6855 25.9699 10.6744 25.9141 10.6529 25.862C10.6313 25.81 10.5996 25.7627 10.5598 25.7229L9.77126 24.9344C9.73145 24.8945 9.68417 24.8629 9.63212 24.8413C9.58007 24.8197 9.52428 24.8086 9.46793 24.8086C9.41158 24.8086 9.35579 24.8197 9.30374 24.8413C9.25169 24.8629 9.20441 24.8945 9.1646 24.9344L7.37517 26.7238C7.28355 26.8154 7.21088 26.9241 7.16129 27.0438C7.11171 27.1635 7.08619 27.2918 7.08619 27.4214C7.08619 27.5509 7.11171 27.6792 7.16129 27.7989C7.21088 27.9186 7.28355 28.0274 7.37517 28.119Z" fill="#C47A4A"/>
<path d="M7.3727 26.7238L9.16212 24.9344C9.20194 24.8945 9.24922 24.8629 9.30127 24.8413C9.35332 24.8197 9.40911 24.8086 9.46546 24.8086C9.5218 24.8086 9.5776 24.8197 9.62965 24.8413C9.6817 24.8629 9.72898 24.8945 9.76879 24.9344L9.875 25.0406L8.19178 26.7238C8.10017 26.8154 8.02749 26.9241 7.97791 27.0438C7.92832 27.1635 7.9028 27.2918 7.9028 27.4214C7.9028 27.5509 7.92832 27.6792 7.97791 27.7989C8.02749 27.9186 8.10017 28.0274 8.19178 28.119C8.2751 28.2022 8.37266 28.2699 8.47983 28.3188C8.2969 28.4022 8.09286 28.4278 7.895 28.3921C7.69715 28.3564 7.51492 28.2611 7.3727 28.119C7.28108 28.0274 7.20841 27.9186 7.15882 27.7989C7.10924 27.6792 7.08372 27.5509 7.08372 27.4214C7.08372 27.2918 7.10924 27.1635 7.15882 27.0438C7.20841 26.9241 7.28108 26.8154 7.3727 26.7238Z" fill="#936435"/>
<path d="M11 24.4941C8.79085 22.285 8.79085 18.7033 11 16.4941C13.2091 14.285 16.7909 14.285 19 16.4941C21.2091 18.7033 21.2091 22.285 19 24.4941C16.7909 26.7033 13.2091 26.7033 11 24.4941Z" fill="#73C3F9"/>
<path d="M15.0005 25.0453C12.4864 25.0453 10.4484 23.0072 10.4484 20.4931C10.4484 17.979 12.4864 15.9409 15.0005 15.9409C17.5147 15.9409 19.5527 17.979 19.5527 20.4931C19.5527 23.0072 17.5147 25.0453 15.0005 25.0453Z" fill="#C2EAFF"/>
<path d="M13.8261 19.8505H16.1741C16.2284 19.8505 16.2805 19.829 16.3189 19.7906C16.3573 19.7522 16.3789 19.7001 16.3789 19.6458V18.7175C16.3788 18.5647 16.318 18.4181 16.2099 18.3101C16.1019 18.202 15.9554 18.1413 15.8025 18.1411H14.1971C14.0443 18.1413 13.8978 18.202 13.7898 18.3101C13.6817 18.4181 13.6209 18.5647 13.6208 18.7175V19.6458C13.6208 19.6727 13.6261 19.6994 13.6364 19.7243C13.6467 19.7491 13.6619 19.7717 13.681 19.7908C13.7 19.8098 13.7227 19.8248 13.7476 19.8351C13.7725 19.8454 13.7992 19.8506 13.8261 19.8505ZM15.9694 19.441H14.0309V18.7167C14.0309 18.6724 14.0485 18.63 14.0798 18.5988C14.1111 18.5675 14.1535 18.5499 14.1977 18.5498H15.8025C15.8468 18.5499 15.8892 18.5675 15.9204 18.5988C15.9517 18.63 15.9693 18.6724 15.9694 18.7167V19.441Z" fill="#676E87"/>
<path d="M12.7763 19.2349H17.2264C17.412 19.2349 17.5625 19.3853 17.5625 19.571V22.3067C17.5625 22.4923 17.412 22.6428 17.2264 22.6428H12.7763C12.5907 22.6428 12.4402 22.4923 12.4402 22.3067V19.571C12.4402 19.3853 12.5907 19.2349 12.7763 19.2349Z" fill="#FFC107"/>
<path d="M12.7747 19.2349H13.5938C13.5046 19.2349 13.4191 19.2703 13.356 19.3333C13.2929 19.3963 13.2575 19.4818 13.2574 19.571V22.3064C13.2575 22.3956 13.2929 22.4811 13.356 22.5441C13.4191 22.6071 13.5046 22.6425 13.5938 22.6425H12.7747C12.6855 22.6425 12.6 22.6071 12.5369 22.5441C12.4738 22.4811 12.4384 22.3956 12.4383 22.3064V19.571C12.4384 19.4818 12.4738 19.3963 12.5369 19.3333C12.6 19.2703 12.6855 19.2349 12.7747 19.2349Z" fill="#FF8000"/>
<path d="M12.4402 20.2587L14.779 21.2768C14.8492 21.3074 14.9249 21.3231 15.0015 21.3231C15.0781 21.3231 15.1538 21.3074 15.224 21.2768L17.5625 20.2587V19.571C17.5625 19.4818 17.5271 19.3963 17.4641 19.3333C17.401 19.2703 17.3155 19.2349 17.2264 19.2349H12.7761C12.6869 19.2349 12.6014 19.2703 12.5383 19.3333C12.4752 19.3963 12.4398 19.4818 12.4397 19.571L12.4402 20.2587Z" fill="#C47A4A"/>
<path d="M12.7747 19.2349H13.5938C13.5046 19.2349 13.4191 19.2703 13.356 19.3333C13.2929 19.3963 13.2575 19.4818 13.2574 19.571V20.6137L12.4383 20.2571V19.571C12.4384 19.4818 12.4738 19.3963 12.5369 19.3333C12.6 19.2703 12.6855 19.2349 12.7747 19.2349Z" fill="#936435"/>
<path d="M14.7822 20.834H15.219C15.3246 20.834 15.4102 20.9196 15.4102 21.0251V21.4619C15.4102 21.5675 15.3246 21.6531 15.219 21.6531H14.7822C14.6766 21.6531 14.5911 21.5675 14.5911 21.4619V21.0251C14.5911 20.9196 14.6766 20.834 14.7822 20.834Z" fill="#676E87"/>
<path d="M14.7803 20.834H15.0938C15.0431 20.834 14.9945 20.8541 14.9586 20.89C14.9228 20.9258 14.9026 20.9744 14.9026 21.0251V21.4619C14.9026 21.5126 14.9228 21.5612 14.9586 21.5971C14.9945 21.6329 15.0431 21.6531 15.0938 21.6531H14.7803C14.7296 21.6531 14.681 21.6329 14.6452 21.5971C14.6093 21.5612 14.5892 21.5126 14.5892 21.4619V21.0251C14.5892 20.9744 14.6093 20.9258 14.6452 20.89C14.681 20.8541 14.7296 20.834 14.7803 20.834Z" fill="#595F74"/>
</g>
<rect x="0.5" y="0.5" width="39" height="39" rx="19.5" stroke="#DEDEDE"/>
<defs>
<clipPath id="clip0_5684:22724">
<rect width="26" height="26" fill="white" transform="translate(7 7)"/>
</clipPath>
</defs>
</svg>
