<svg width="29" height="29" viewBox="0 0 29 29" fill="none" xmlns="http://www.w3.org/2000/svg">
<path d="M0.521862 28.551L0.449135 28.4783C-0.149386 27.8798 -0.149386 26.9094 0.449135 26.3108L6.60178 20.1582H7.18591L8.82073 21.793L8.84197 22.3984L2.68933 28.551C2.09081 29.1496 1.12038 29.1496 0.521862 28.551Z" fill="#365E7D"/>
<path d="M1.68936 28.5511C1.83708 28.6988 2.007 28.8103 2.18916 28.885C1.63391 29.1133 0.972406 29.0018 0.52166 28.5511L0.449273 28.4787C-0.149758 27.8797 -0.149758 26.9093 0.449273 26.3108L6.60192 20.1582L7.18577 20.1584L7.49231 20.4649L1.61692 26.3108C1.01789 26.9093 1.01789 27.8797 1.61692 28.4787L1.68936 28.5511Z" fill="#2B4D66"/>
<path d="M7.66211 20.0513L10.7385 16.9749L12.021 18.2575L8.94467 21.3338L7.66211 20.0513Z" fill="#9BD8F9"/>
<path d="M18.1019 21.6949C24.0928 21.6949 28.9493 16.8384 28.9493 10.8475C28.9493 4.85658 24.0928 0 18.1019 0C12.111 0 7.25439 4.85658 7.25439 10.8475C7.25439 16.8384 12.111 21.6949 18.1019 21.6949Z" fill="#9BD8F9"/>
<path d="M13.538 18.7008C15.2528 20.3356 17.3704 21.3012 19.5616 21.5967C16.3218 22.0346 12.9214 21.0082 10.4313 18.518C6.19543 14.2816 6.19543 7.41313 10.4313 3.17726C12.9214 0.687112 16.3218 -0.339329 19.5617 0.0979928C17.3447 0.396942 15.2032 1.38187 13.4779 3.05231C13.4353 3.09321 13.3926 3.13523 13.3506 3.17726C9.11474 7.41313 9.11474 14.2816 13.3506 18.518C13.4125 18.5799 13.4749 18.6412 13.538 18.7008Z" fill="#73C3F9"/>
<path d="M18.04 19.8988C23.0326 19.8988 27.0799 15.8514 27.0799 10.8588C27.0799 5.86617 23.0326 1.81885 18.04 1.81885C13.0473 1.81885 9 5.86617 9 10.8588C9 15.8514 13.0473 19.8988 18.04 19.8988Z" fill="#EAF6FF"/>
<path d="M13.5382 18.7007C12.8621 18.3118 12.2257 17.8284 11.6478 17.251C8.11774 13.721 8.11774 7.99686 11.6478 4.4669C12.2083 3.90639 12.8242 3.43463 13.4782 3.05225C13.4356 3.09314 13.3929 3.13517 13.3509 3.1772C9.11501 7.41306 9.11501 14.2815 13.3509 18.518C13.4127 18.5799 13.4752 18.6412 13.5382 18.7007Z" fill="#D8ECFE"/>
<path d="M10.2441 22.5179C10.2254 22.5366 10.2062 22.5542 10.1864 22.5706C10.0181 22.7122 9.81026 22.7836 9.60239 22.7836C9.37016 22.7836 9.13793 22.6947 8.96121 22.5179L6.48206 20.0388C6.12805 19.6842 6.12805 19.1099 6.48206 18.7559C6.65934 18.5792 6.891 18.4902 7.12323 18.4902C7.3311 18.4902 7.53897 18.5616 7.70719 18.7032C7.72702 18.7196 7.74627 18.7372 7.76496 18.7559L10.2441 21.235C10.5981 21.589 10.5981 22.1634 10.2441 22.5179Z" fill="#365E7D"/>
<path d="M10.1863 22.5706C10.0181 22.7122 9.81026 22.7836 9.60239 22.7836C9.37016 22.7836 9.13793 22.6947 8.96121 22.5179L6.48206 20.0388C6.12805 19.6842 6.12805 19.1099 6.48206 18.7559C6.65934 18.5792 6.891 18.4902 7.12323 18.4902C7.3311 18.4902 7.53897 18.5616 7.70719 18.7032C7.68737 18.7202 7.66868 18.7366 7.64998 18.7553V18.7559C7.29541 19.1099 7.29541 19.6842 7.64998 20.0382L10.1291 22.5179C10.1478 22.5366 10.1665 22.5536 10.1863 22.5706Z" fill="#2B4D66"/>
<path d="M19.9156 8.56484C19.6738 8.56484 19.4777 8.36881 19.4777 8.12695V7.18915C19.4777 6.94769 19.2813 6.75126 19.0399 6.75126H17.1643C16.9228 6.75126 16.7264 6.94769 16.7264 7.18915V8.12695C16.7264 8.36881 16.5303 8.56484 16.2885 8.56484C16.0466 8.56484 15.8506 8.36881 15.8506 8.12695V7.18915C15.8506 6.46478 16.4399 5.87549 17.1643 5.87549H19.0399C19.7642 5.87549 20.3535 6.46478 20.3535 7.18915V8.12695C20.3535 8.36881 20.1574 8.56484 19.9156 8.56484Z" fill="#98695E"/>
<path d="M23.1339 15.3816H13.0699C12.8441 15.3816 12.6611 15.1986 12.6611 14.9729V10.9003L13.8288 10.3164H22.4103L23.5426 10.9003V14.9729C23.5426 15.1986 23.3596 15.3816 23.1339 15.3816Z" fill="#98695E"/>
<path d="M13.8288 10.3164V15.3817H13.0699C12.8441 15.3817 12.6611 15.1987 12.6611 14.973V10.9003L13.245 10.3164H13.8288Z" fill="#845C52"/>
<path d="M12.6611 10.8979H13.245H22.8774H23.5426V8.53567C23.5426 8.30996 23.3596 8.12695 23.1339 8.12695H13.0699C12.8441 8.12695 12.6611 8.30996 12.6611 8.53567V10.8979Z" fill="#B48E84"/>
<path d="M13.8288 8.12695V10.8979H12.6611V8.53567C12.6611 8.30996 12.8441 8.12695 13.0699 8.12695H13.8288Z" fill="#A77D73"/>
<path d="M18.7174 11.8592H17.5916C17.3726 11.8592 17.1951 11.6817 17.1951 11.4628V10.3369C17.1951 10.1179 17.3726 9.94043 17.5916 9.94043H18.7174C18.9364 9.94043 19.1139 10.1179 19.1139 10.3369V11.4628C19.1139 11.6817 18.9364 11.8592 18.7174 11.8592Z" fill="#F9D264"/>
</svg>
