<svg width="40" height="40" viewBox="0 0 40 40" fill="none" xmlns="http://www.w3.org/2000/svg">
<rect x="0.5" y="0.5" width="39" height="39" rx="19.5" fill="#F2F4F8"/>
<path d="M20.0008 32.6192C23.6019 32.6192 26.5211 30.8709 26.5211 28.7142C26.5211 26.5574 23.6019 24.8091 20.0008 24.8091C16.3997 24.8091 13.4805 26.5574 13.4805 28.7142C13.4805 30.8709 16.3997 32.6192 20.0008 32.6192Z" fill="#FFC107"/>
<path d="M20.0011 7.38086C15.5191 7.38086 11.873 10.999 11.873 15.4464C11.873 20.8998 20.0011 29.3768 20.0011 29.3768C20.0011 29.3768 28.1291 20.6759 28.1291 15.4464C28.1291 10.999 24.483 7.38086 20.0011 7.38086ZM20.0011 20.5205C17.1238 20.5205 14.7914 18.2059 14.7914 15.351C14.7914 12.4961 17.1238 10.182 20.0011 10.182C22.8784 10.182 25.2107 12.4966 25.2107 15.351C25.2107 18.2054 22.8784 20.5205 20.0011 20.5205Z" fill="#AF3CF5"/>
<path d="M22.4806 14.0537H17.5193C17.3123 14.0537 17.1445 14.2215 17.1445 14.4285V17.4784C17.1445 17.6854 17.3123 17.8532 17.5193 17.8532H22.4806C22.6876 17.8532 22.8554 17.6854 22.8554 17.4784V14.4285C22.8554 14.2215 22.6876 14.0537 22.4806 14.0537Z" fill="#529C30"/>
<path d="M22.4805 14.0537H20.957C21.0564 14.0537 21.1517 14.0932 21.222 14.1635C21.2923 14.2338 21.3318 14.3291 21.3318 14.4285V17.4784C21.3318 17.5778 21.2923 17.6731 21.222 17.7434C21.1517 17.8137 21.0564 17.8532 20.957 17.8532H22.4805C22.5799 17.8532 22.6752 17.8137 22.7455 17.7434C22.8157 17.6731 22.8552 17.5778 22.8552 17.4784V14.4285C22.8552 14.3291 22.8157 14.2338 22.7455 14.1635C22.6752 14.0932 22.5799 14.0537 22.4805 14.0537Z" fill="#368412"/>
<path d="M21.3087 15.1962H18.6914C18.5904 15.1962 18.4935 15.1561 18.4221 15.0847C18.3507 15.0132 18.3105 14.9164 18.3105 14.8154V13.2249C18.3108 13.0142 18.3946 12.8122 18.5436 12.6632C18.6926 12.5143 18.8946 12.4304 19.1053 12.4302H20.8948C21.1055 12.4304 21.3075 12.5143 21.4565 12.6632C21.6055 12.8122 21.6893 13.0142 21.6895 13.2249V14.8154C21.6895 14.9164 21.6494 15.0132 21.578 15.0847C21.5066 15.1561 21.4097 15.1962 21.3087 15.1962ZM19.0743 14.4345H20.9299V13.2249C20.9299 13.2206 20.929 13.2163 20.9273 13.2123C20.9257 13.2083 20.9233 13.2046 20.9202 13.2016C20.9171 13.1985 20.9135 13.1961 20.9095 13.1944C20.9055 13.1927 20.9012 13.1919 20.8968 13.1919H19.1053C19.1009 13.1919 19.0967 13.1927 19.0926 13.1944C19.0886 13.1961 19.085 13.1985 19.0819 13.2016C19.0789 13.2046 19.0764 13.2083 19.0748 13.2123C19.0731 13.2163 19.0723 13.2206 19.0723 13.2249L19.0743 14.4345Z" fill="#676E87"/>
<path d="M22.8554 15.1938L20.2478 16.3287C20.1696 16.3629 20.0852 16.3805 20 16.3805C19.9147 16.3805 19.8303 16.3629 19.7521 16.3287L17.1445 15.1938V14.4285C17.1445 14.3291 17.184 14.2338 17.2543 14.1635C17.3246 14.0932 17.4199 14.0537 17.5193 14.0537H22.4806C22.58 14.0537 22.6753 14.0932 22.7456 14.1635C22.8159 14.2338 22.8554 14.3291 22.8554 14.4285V15.1938Z" fill="#79CC52"/>
<path d="M21.3318 14.4285V15.857L22.8552 15.1938V14.4285C22.8552 14.3538 22.833 14.2807 22.7912 14.2188C22.7846 14.2091 22.777 14.1995 22.7694 14.1903C22.7343 14.1476 22.6902 14.1132 22.6403 14.0896C22.5903 14.0659 22.5357 14.0537 22.4805 14.0537H20.957C21.0564 14.0537 21.1517 14.0932 21.222 14.1635C21.2923 14.2338 21.3318 14.3291 21.3318 14.4285V14.4285Z" fill="#34A853"/>
<rect x="0.5" y="0.5" width="39" height="39" rx="19.5" stroke="#DEDEDE"/>
</svg>
