<svg width="40" height="41" viewBox="0 0 40 41" fill="none" xmlns="http://www.w3.org/2000/svg">
<rect x="0.5" y="0.505859" width="39" height="39" rx="19.5" fill="#F2F4F8"/>
<g clip-path="url(#clip0_5519_28071)">
<path d="M23 18.1934C20.6296 18.1934 18.3563 19.135 16.6802 20.8111C15.0041 22.4872 14.0625 24.7605 14.0625 27.1309V28.7559C14.0625 29.4023 14.3193 30.0223 14.7764 30.4794C15.2335 30.9366 15.8535 31.1934 16.5 31.1934H29.5C30.1465 31.1934 30.7665 30.9366 31.2236 30.4794C31.6807 30.0223 31.9375 29.4023 31.9375 28.7559V27.1309C31.9375 24.7605 30.9959 22.4872 29.3198 20.8111C27.6437 19.135 25.3704 18.1934 23 18.1934Z" fill="#303030"/>
<path d="M23 16.5684C25.6924 16.5684 27.875 14.3857 27.875 11.6934C27.875 9.00097 25.6924 6.81836 23 6.81836C20.3076 6.81836 18.125 9.00097 18.125 11.6934C18.125 14.3857 20.3076 16.5684 23 16.5684Z" fill="#FFE0A6"/>
<path fill-rule="evenodd" clip-rule="evenodd" d="M26.4471 15.1405C27.3614 14.2263 27.875 12.9863 27.875 11.6934C27.875 10.4004 27.3614 9.16045 26.4471 8.24621C25.5329 7.33197 24.2929 6.81836 23 6.81836V11.6934V16.5684C24.2929 16.5684 25.5329 16.0547 26.4471 15.1405Z" fill="#FFD17B"/>
<path d="M31.9375 27.1309V28.7559C31.9375 29.4023 31.6807 30.0223 31.2236 30.4794C30.7665 30.9366 30.1465 31.1934 29.5 31.1934H23V18.1934C25.3704 18.1934 27.6437 19.135 29.3198 20.8111C30.9959 22.4872 31.9375 24.7605 31.9375 27.1309Z" fill="#000011"/>
<path d="M20.6869 21.1563C19.9149 19.915 25.727 19.6437 25.3459 21.2972" stroke="#FFD17B" stroke-width="4"/>
<path d="M24.4634 27.8113L26.501 19.0039L26.2324 18.8059L25.9639 18.7059C25.5803 18.6349 24.9828 18.9633 24.9639 18.5039L22.9217 20.6795L20.9639 18.5039C20.9449 18.9633 20.3474 18.6348 19.9639 18.7059L19.4639 18.9059L21.4634 27.8113L21.9639 30.0039L22.4639 31.0039L22.5342 31.1914H22.7139H22.9639H23.3389V31.1719L24.4634 27.8113Z" fill="#DEDEDE"/>
<path d="M25.3787 27.9303L26.9746 25.1741C27.1735 24.8711 27.3535 24.6722 27.022 24.2128L25.9328 22.6027H27.1119C27.4529 22.6027 27.5003 22.5269 27.5003 22.0534L27.434 19.4109C27.434 19.4109 27.3203 19.4174 27.2966 19.3842C27.273 19.3558 26.499 18.9062 26.499 18.9062L26.269 18.8262L23.3291 31.2062L25.3787 27.9303Z" fill="#000011"/>
<path d="M21.5996 22.5037L21.9625 25.5036L22.525 31.1872H23.3453L23.9996 25.5037L24.1996 22.5037C24.1617 22.6078 24.1901 22.3474 24.1996 22.5037L22.8996 20.7957L23.4996 20.5037L22.8996 19.3555L22.1996 20.5037L22.8996 20.7957C22.9612 20.9378 21.6043 22.319 21.5996 22.5037Z" fill="#5CCE26"/>
<path d="M18.9263 22.9101H20.1054L19.0162 24.5202C18.6847 24.9796 18.86 25.1785 19.0589 25.4816L20.6926 28.2377L22.5332 31.1924L21.8907 28.2377L19.4629 18.9141C19.4629 18.9141 18.6374 19.2648 18.6042 19.3643C18.5948 19.3974 18.6042 19.7752 18.6042 19.7752L18.5332 22.3655C18.5427 22.8344 18.5853 22.9101 18.9263 22.9101Z" fill="#000011"/>
<path d="M25.6328 18.5551C25.4629 18.5032 25.0258 18.4032 24.9629 18.4051L22.9006 19.3406L20.9635 18.375C20.4629 18.4531 20.4635 18.5031 20.4635 18.5031L19.4902 18.895L22.3 20.5032C22.5 20.0032 22.5 20.0032 22.5 20.0032L22.9006 19.3406L23.2 20.0032C23.5 20.5032 23.5 20.5032 23.5 20.5032L26.3006 18.825L25.6328 18.5551Z" fill="white"/>
<path d="M22.8807 19.2969L23.7467 20.7969H22.0146L22.8807 19.2969Z" fill="#5CCE26"/>
<path d="M22.8817 19.2969L23.7477 20.7969H22.0156L22.8817 19.2969Z" fill="#5CCE26"/>
<path d="M22.884 22.2969L22.0179 20.7969H23.75L22.884 22.2969Z" fill="#5CCE26"/>
<path d="M10.7407 23.9711L11.5293 24.7598L10.5588 25.7303L9.77015 24.9416L10.7407 23.9711Z" fill="#676E87"/>
<path d="M10.7415 23.9707L10.9463 24.1755L10.5739 24.5479C10.4695 24.6522 10.4109 24.7938 10.4109 24.9413C10.4109 25.0889 10.4695 25.2304 10.5739 25.3347L10.765 25.5259L10.5602 25.7306L9.77173 24.9421L10.7415 23.9707Z" fill="#595F74"/>
<path d="M7.37419 28.1248C7.4658 28.2164 7.57455 28.2891 7.69424 28.3387C7.81394 28.3883 7.94222 28.4138 8.07178 28.4138C8.20134 28.4138 8.32963 28.3883 8.44932 28.3387C8.56901 28.2891 8.67776 28.2164 8.76937 28.1248L10.5588 26.3354C10.5987 26.2956 10.6303 26.2483 10.6519 26.1963C10.6735 26.1442 10.6846 26.0884 10.6846 26.0321C10.6846 25.9757 10.6735 25.9199 10.6519 25.8679C10.6303 25.8158 10.5987 25.7685 10.5588 25.7287L9.77029 24.9402C9.73047 24.9004 9.68319 24.8687 9.63114 24.8471C9.57909 24.8256 9.5233 24.8145 9.46695 24.8145C9.41061 24.8145 9.35481 24.8256 9.30276 24.8471C9.25071 24.8687 9.20343 24.9004 9.16362 24.9402L7.37419 26.7297C7.28258 26.8213 7.2099 26.93 7.16032 27.0497C7.11073 27.1694 7.08521 27.2977 7.08521 27.4272C7.08521 27.5568 7.11073 27.6851 7.16032 27.8048C7.2099 27.9245 7.28258 28.0332 7.37419 28.1248Z" fill="#C47A4A"/>
<path d="M7.37368 26.7297L9.1631 24.9402C9.20291 24.9004 9.2502 24.8687 9.30225 24.8471C9.3543 24.8256 9.41009 24.8145 9.46644 24.8145C9.52278 24.8145 9.57857 24.8256 9.63062 24.8471C9.68267 24.8687 9.72996 24.9004 9.76977 24.9402L9.87598 25.0464L8.19276 26.7297C8.10114 26.8213 8.02847 26.93 7.97888 27.0497C7.9293 27.1694 7.90378 27.2977 7.90378 27.4272C7.90378 27.5568 7.9293 27.6851 7.97888 27.8048C8.02847 27.9245 8.10114 28.0332 8.19276 28.1248C8.27608 28.2081 8.37363 28.2758 8.48081 28.3247C8.29787 28.4081 8.09383 28.4337 7.89598 28.3979C7.69813 28.3622 7.5159 28.2669 7.37368 28.1248C7.28206 28.0332 7.20938 27.9245 7.1598 27.8048C7.11021 27.6851 7.08469 27.5568 7.08469 27.4272C7.08469 27.2977 7.11021 27.1694 7.1598 27.0497C7.20938 26.93 7.28206 26.8213 7.37368 26.7297Z" fill="#936435"/>
<path d="M11 24.5C8.79085 22.2909 8.79085 18.7091 11 16.5C13.2091 14.2909 16.7909 14.2909 19 16.5C21.2091 18.7091 21.2091 22.2909 19 24.5C16.7909 26.7091 13.2091 26.7091 11 24.5Z" fill="#73C3F9"/>
<path d="M15.0005 25.0516C12.4864 25.0516 10.4484 23.0135 10.4484 20.4994C10.4484 17.9853 12.4864 15.9473 15.0005 15.9473C17.5147 15.9473 19.5527 17.9853 19.5527 20.4994C19.5527 23.0135 17.5147 25.0516 15.0005 25.0516Z" fill="#C2EAFF"/>
<path d="M13.8261 19.8559H16.1741C16.2284 19.8559 16.2805 19.8343 16.3189 19.7959C16.3573 19.7575 16.3789 19.7054 16.3789 19.6511V18.7228C16.3788 18.57 16.318 18.4235 16.2099 18.3155C16.1019 18.2074 15.9554 18.1466 15.8025 18.1465H14.1971C14.0443 18.1466 13.8978 18.2074 13.7898 18.3155C13.6817 18.4235 13.6209 18.57 13.6208 18.7228V19.6511C13.6208 19.6781 13.6261 19.7047 13.6364 19.7296C13.6467 19.7545 13.6619 19.7771 13.681 19.7961C13.7 19.8151 13.7227 19.8302 13.7476 19.8405C13.7725 19.8507 13.7992 19.856 13.8261 19.8559ZM15.9694 19.4464H14.0309V18.722C14.0309 18.6778 14.0485 18.6354 14.0798 18.6041C14.1111 18.5729 14.1535 18.5553 14.1977 18.5552H15.8025C15.8468 18.5553 15.8892 18.5729 15.9204 18.6041C15.9517 18.6354 15.9693 18.6778 15.9694 18.722V19.4464Z" fill="#676E87"/>
<path d="M12.7754 19.2402H17.2254C17.411 19.2402 17.5615 19.3907 17.5615 19.5763V22.3121C17.5615 22.4977 17.411 22.6482 17.2254 22.6482H12.7754C12.5897 22.6482 12.4393 22.4977 12.4393 22.3121V19.5763C12.4393 19.3907 12.5897 19.2402 12.7754 19.2402Z" fill="#FFC107"/>
<path d="M12.7747 19.2402H13.5938C13.5046 19.2402 13.4191 19.2756 13.356 19.3387C13.2929 19.4017 13.2575 19.4872 13.2574 19.5763V22.3118C13.2575 22.401 13.2929 22.4864 13.356 22.5495C13.4191 22.6125 13.5046 22.6479 13.5938 22.6479H12.7747C12.6855 22.6479 12.6 22.6125 12.5369 22.5495C12.4738 22.4864 12.4384 22.401 12.4383 22.3118V19.5763C12.4384 19.4872 12.4738 19.4017 12.5369 19.3387C12.6 19.2756 12.6855 19.2402 12.7747 19.2402Z" fill="#FF8000"/>
<path d="M12.4393 20.2641L14.778 21.2822C14.8482 21.3127 14.924 21.3285 15.0005 21.3285C15.0771 21.3285 15.1528 21.3127 15.223 21.2822L17.5615 20.2641V19.5763C17.5615 19.4872 17.5261 19.4017 17.4631 19.3387C17.4001 19.2756 17.3146 19.2402 17.2254 19.2402H12.7751C12.6859 19.2402 12.6004 19.2756 12.5373 19.3387C12.4742 19.4017 12.4388 19.4872 12.4387 19.5763L12.4393 20.2641Z" fill="#C47A4A"/>
<path d="M12.7747 19.2402H13.5938C13.5046 19.2402 13.4191 19.2756 13.356 19.3387C13.2929 19.4017 13.2575 19.4872 13.2574 19.5763V20.619L12.4383 20.2624V19.5763C12.4384 19.4872 12.4738 19.4017 12.5369 19.3387C12.6 19.2756 12.6855 19.2402 12.7747 19.2402Z" fill="#936435"/>
<path d="M14.7822 20.8398H15.219C15.3246 20.8398 15.4102 20.9254 15.4102 21.031V21.4678C15.4102 21.5734 15.3246 21.6589 15.219 21.6589H14.7822C14.6766 21.6589 14.5911 21.5734 14.5911 21.4678V21.031C14.5911 20.9254 14.6766 20.8398 14.7822 20.8398Z" fill="#676E87"/>
<path d="M14.7813 20.8398H15.0947C15.044 20.8398 14.9954 20.86 14.9596 20.8958C14.9237 20.9317 14.9036 20.9803 14.9036 21.031V21.4678C14.9036 21.5185 14.9237 21.5671 14.9596 21.6029C14.9954 21.6388 15.044 21.6589 15.0947 21.6589H14.7813C14.7306 21.6589 14.682 21.6388 14.6461 21.6029C14.6103 21.5671 14.5902 21.5185 14.5902 21.4678V21.031C14.5902 20.9803 14.6103 20.9317 14.6461 20.8958C14.682 20.86 14.7306 20.8398 14.7813 20.8398Z" fill="#595F74"/>
</g>
<rect x="0.5" y="0.505859" width="39" height="39" rx="19.5" stroke="#DEDEDE"/>
<defs>
<clipPath id="clip0_5519_28071">
<rect width="26" height="26" fill="white" transform="translate(7 7.00586)"/>
</clipPath>
</defs>
</svg>
