<svg width="94" height="94" viewBox="0 0 94 94" fill="none" xmlns="http://www.w3.org/2000/svg">
<path d="M79.1982 62.0994L76.7361 62.87L82.3774 80.9236L77.6559 79.036L74.7338 81.9588L70.1761 66.0025L68.935 66.3553L67.6938 66L63.1361 81.9563L60.214 79.0335L55.4925 80.9211L61.1339 62.8675L58.6717 62.0969L56.0319 70.5457V57.8492H53.4512V70.2263H9.58062V21.1944H21.1934V9.5816H53.4512V41.314H56.0319V7.00098H19.3689L7 19.3698V72.8069H55.3262L51.4099 85.3358L59.5916 82.0621L64.4126 86.8812L68.935 71.0541L73.4574 86.8825L78.2784 82.0634L86.46 85.337L79.1982 62.0994ZM11.4052 18.6138L18.6128 11.4056V18.6138H11.4052Z" fill="#002452"/>
<path d="M68.9595 67.6459C67.7738 67.6459 66.5799 67.3259 65.5334 66.6807C63.1185 67.0587 60.6783 66.0481 59.2513 64.0755C56.8811 63.5104 55.0049 61.6341 54.4397 59.2639C52.4709 57.8369 51.4553 55.3905 51.8345 52.9888C50.5556 50.967 50.5442 48.278 51.8358 46.1787C51.4527 43.7733 52.4677 41.323 54.441 39.896C55.0061 37.5258 56.8824 35.6496 59.2526 35.0844C60.6796 33.1156 63.1223 32.1 65.5271 32.4792C67.5501 31.2034 70.241 31.1889 72.3378 32.4805C74.7489 32.0987 77.1916 33.1131 78.6199 35.0857C80.9901 35.6508 82.8663 37.5271 83.4314 39.8973C85.4009 41.3243 86.4159 43.7707 86.0366 46.1724C87.3156 48.1942 87.3269 50.8832 86.0354 52.9825C86.4184 55.388 85.4035 57.8382 83.4302 59.2652C82.865 61.6354 80.9888 63.5116 78.6186 64.0768C77.1903 66.0456 74.7426 67.0587 72.3441 66.682C71.3297 67.3214 70.1478 67.644 68.9595 67.6459Z" fill="#EE0202"/>
<path d="M68.935 62.4845C61.82 62.4845 56.0319 56.6957 56.0319 49.5813C56.0319 42.4664 61.82 36.6782 68.935 36.6782C76.05 36.6782 81.8381 42.4664 81.8381 49.5813C81.8381 56.6957 76.05 62.4845 68.935 62.4845ZM68.935 39.2588C63.2432 39.2588 58.6125 43.8896 58.6125 49.5813C58.6125 55.2724 63.2432 59.9038 68.935 59.9038C74.6267 59.9038 79.2575 55.2724 79.2575 49.5813C79.2575 43.8896 74.6267 39.2588 68.935 39.2588Z" fill="#002452"/>
<path d="M28.7256 45.5008H13.6613V25.2751H28.7256V45.5008Z" stroke="#002452" stroke-width="3"/>
<path d="M32.8063 12.1621H35.3869V14.7428H32.8063V12.1621Z" fill="#002452"/>
<path d="M37.9675 12.1621H50.8708V14.7428H37.9675V12.1621Z" fill="#002452"/>
<path d="M32.8063 17.3235H35.3869V19.9041H32.8063V17.3235Z" fill="#002452"/>
<path d="M37.9675 17.3235H50.8708V19.9041H37.9675V17.3235Z" fill="#002452"/>
<path d="M32.8063 28.9363H50.8708V31.5169H32.8063V28.9363Z" fill="#002452"/>
<path d="M32.8063 34.0977H50.8708V36.6783H32.8063V34.0977Z" fill="#002452"/>
<path d="M32.8063 39.2588H48.2901V41.8394H32.8063V39.2588Z" fill="#002452"/>
<path d="M12.1613 49.5813H30.2258V52.1619H12.1613V49.5813Z" fill="#002452"/>
<path d="M12.1613 54.7427H30.2258V57.3233H12.1613V54.7427Z" fill="#002452"/>
<path d="M12.1613 59.9038H30.2258V62.4845H12.1613V59.9038Z" fill="#002452"/>
<path d="M12.1613 65.0652H30.2258V67.6458H12.1613V65.0652Z" fill="#002452"/>
<path d="M32.8063 49.5811H48.2901V52.1617H32.8063V49.5811Z" fill="#002452"/>
<path d="M32.8063 54.7427H48.2901V57.3233H32.8063V54.7427Z" fill="#002452"/>
<path d="M32.8063 59.9036H50.8708V62.4842H32.8063V59.9036Z" fill="#002452"/>
<path d="M32.8063 65.0649H50.8708V67.6456H32.8063V65.0649Z" fill="#002452"/>
</svg>
