<svg width="25" height="24" viewBox="0 0 25 24" fill="none" xmlns="http://www.w3.org/2000/svg">
<g clip-path="url(#clip0)">
<path d="M5.63143 17.3318L1.03027 23.4695C1.73743 24.1767 2.88407 24.1767 3.59123 23.4695L7.68017 19.3806L5.63143 17.3318Z" fill="#1B74D6"/>
<path d="M6.65589 18.3562L2.56695 22.4451C1.85979 23.1523 1.17176 23.6109 1.03037 23.4695C0.323211 22.7623 0.323211 21.6157 1.03037 20.9085L5.11931 16.8196L6.65589 18.3562Z" fill="#1E8AFF"/>
<path d="M5.62939 17.3306L8.18996 14.77L9.72631 16.3063L7.16574 18.8669L5.62939 17.3306Z" fill="#FFEAC3"/>
<path d="M7.42163 13.4929L6.75233 15.0577C6.69414 15.1937 6.72457 15.3515 6.82921 15.4562L9.04369 17.6706C9.14833 17.7753 9.30614 17.8057 9.44222 17.7475L11.007 17.0782L7.42163 13.4929Z" fill="#FFD17E"/>
<path d="M8.19254 18.8684L7.16817 17.844L6.1438 18.8684L7.16817 19.8927C7.45105 20.1756 7.90966 20.1756 8.19254 19.8927C8.47542 19.6099 8.47542 19.1512 8.19254 18.8684Z" fill="#FFB739"/>
<path d="M7.16814 18.8683C7.45102 18.5855 7.45102 18.1268 7.16814 17.844L5.63155 16.3074C5.34867 16.0245 4.89006 16.0245 4.60718 16.3074C4.3243 16.5903 4.3243 17.0489 4.60718 17.3318L6.14376 18.8683C6.42665 19.1512 6.88526 19.1512 7.16814 18.8683Z" fill="#FFD17E"/>
<path d="M15.3973 18.2053C20.4246 18.2053 24.5 14.1299 24.5 9.10263C24.5 4.07539 20.4246 0 15.3973 0C10.3701 0 6.29468 4.07539 6.29468 9.10263C6.29468 14.1299 10.3701 18.2053 15.3973 18.2053Z" fill="#FFB739"/>
<path d="M15.3975 1.44873V16.7566C19.6246 16.7566 23.0514 13.3298 23.0514 9.10267C23.0514 4.87552 19.6246 1.44873 15.3975 1.44873Z" fill="#DBEBFF"/>
<path d="M21.6026 9.10267C21.6026 4.87552 18.8244 1.44873 15.3973 1.44873C11.1702 1.44873 7.74341 4.87552 7.74341 9.10267C7.74341 13.3298 11.1702 16.7566 15.3973 16.7566C18.8244 16.7566 21.6026 13.3298 21.6026 9.10267Z" fill="white"/>
</g>
<defs>
<clipPath id="clip0">
<rect width="24" height="24" fill="white" transform="translate(0.5)"/>
</clipPath>
</defs>
</svg>
