<svg width="25" height="24" viewBox="0 0 25 24" fill="none" xmlns="http://www.w3.org/2000/svg">
<g clip-path="url(#clip0)">
<path d="M22.1618 3.30578L24.7637 16.4753C24.8858 17.0935 24.4832 17.6943 23.865 17.8165L4.75052 21.5928C4.13228 21.715 3.53144 21.3123 3.40928 20.6942L0.807484 7.52467C0.685328 6.90644 1.08798 6.3056 1.70617 6.18344L20.8206 2.4071C21.4388 2.28494 22.0397 2.68755 22.1618 3.30578Z" fill="url(#paint0_linear)"/>
<path d="M23.8649 17.8168L4.75064 21.5928C4.13245 21.7152 3.5317 21.3125 3.40921 20.6943L3.23779 19.8264C3.42553 19.8851 3.6307 19.8993 3.83751 19.8585L22.1616 3.30566L24.7639 16.4753C24.8858 17.0935 24.4831 17.6943 23.8649 17.8168Z" fill="url(#paint1_linear)"/>
<path d="M23.9249 5.96903V19.3931C23.9249 20.0233 23.4134 20.5347 22.7832 20.5347H3.29936C2.66917 20.5347 2.15771 20.0233 2.15771 19.3931V5.96903C2.15771 5.33885 2.66917 4.82739 3.29936 4.82739H22.7832C23.4134 4.82739 23.9249 5.3388 23.9249 5.96903Z" fill="url(#paint2_linear)"/>
<path d="M18.1779 20.5347H3.29936C2.66884 20.5347 2.15771 20.0236 2.15771 19.3931V5.96903C2.15771 5.33852 2.66889 4.82739 3.29936 4.82739H22.7832C23.4137 4.82739 23.9249 5.33856 23.9249 5.96903V15.0867C23.9249 15.2614 23.8561 15.4291 23.7335 15.5535L19.2802 20.0733C18.9893 20.3685 18.5922 20.5347 18.1779 20.5347Z" fill="url(#paint3_linear)"/>
<path d="M22.2694 6.98984V17.0397C21.5091 17.8114 20.6091 18.7245 20.0023 19.3406H4.7811C4.24668 19.3406 3.81299 18.9069 3.81299 18.3724V6.98984C3.81299 6.45542 4.24668 6.02173 4.7811 6.02173H21.3013C21.8357 6.02173 22.2694 6.45542 22.2694 6.98984Z" fill="url(#paint4_linear)"/>
<path d="M23.9249 18.4797V19.3931C23.9249 20.0232 23.4134 20.5347 22.7832 20.5347H3.29936C2.66917 20.5347 2.15771 20.0232 2.15771 19.3931V18.4797H23.9249Z" fill="url(#paint5_linear)"/>
<path d="M3.81866 18.4753C3.82166 18.5037 3.82607 18.5316 3.83146 18.5591C3.83244 18.5642 3.83347 18.5694 3.83455 18.5744C3.84032 18.6015 3.84716 18.6282 3.85513 18.6545C3.85654 18.6591 3.85808 18.6636 3.85958 18.6682C3.86816 18.695 3.87763 18.7213 3.88841 18.747C3.88939 18.7494 3.89052 18.7516 3.8915 18.7539C3.9021 18.7785 3.91377 18.8025 3.92624 18.826C3.92807 18.8295 3.92985 18.8331 3.93172 18.8366C3.94452 18.8599 3.95849 18.8825 3.97307 18.9047C3.97635 18.9097 3.97963 18.9146 3.983 18.9196C3.99754 18.9407 4.01291 18.9613 4.02904 18.9811C4.03307 18.9861 4.03724 18.9909 4.04132 18.9959C4.05791 19.0155 4.07511 19.0347 4.09316 19.0529C4.09696 19.0567 4.10089 19.0604 4.10474 19.0641C4.1218 19.0808 4.13943 19.0969 4.15771 19.1123C4.16122 19.1152 4.1645 19.1183 4.16807 19.1212C4.33503 19.258 4.54836 19.3402 4.78091 19.3402H20.0021C20.477 18.8581 21.1314 18.1942 21.7579 17.5583L16.6149 12.8402C16.2174 12.4756 15.607 12.4756 15.2095 12.8402L12.9275 14.9337L9.3395 11.3478C8.91435 10.8387 8.11893 10.8521 7.7136 11.3885L3.81299 16.5502V18.3721C3.81299 18.4028 3.81477 18.433 3.81758 18.463C3.81796 18.4671 3.81819 18.4712 3.81866 18.4753Z" fill="url(#paint6_linear)"/>
<path d="M21.7585 17.5587C21.1327 18.1932 20.4797 18.856 20.0051 19.3376L15.3763 19.3338L8.13818 19.3278L12.41 15.4086L15.2097 12.8404C15.6072 12.4757 16.2175 12.4757 16.615 12.8404L21.7585 17.5587Z" fill="url(#paint7_linear)"/>
<path d="M16.6149 12.8404C16.2174 12.4757 15.6071 12.4757 15.2096 12.8404L12.4099 15.4086L15.3762 19.3338L20.005 19.3376C20.4795 18.856 21.1325 18.1932 21.7584 17.5587L16.6149 12.8404Z" fill="url(#paint8_linear)"/>
<path d="M17.5438 13.693C17.3675 13.8361 17.09 13.8029 16.9599 13.5928L16.9594 13.5923C16.8054 13.3425 16.4424 13.3425 16.2884 13.5923V13.5928C16.1344 13.8426 15.7709 13.8426 15.6169 13.5928V13.5923C15.5402 13.4671 15.4107 13.405 15.2811 13.405C15.1516 13.405 15.0221 13.4671 14.9454 13.5923C14.8055 13.8192 14.4932 13.8398 14.3223 13.6548L15.2098 12.8408C15.6071 12.4756 16.2176 12.4756 16.6148 12.8408L17.5438 13.693Z" fill="url(#paint9_linear)"/>
<path d="M17.5438 13.693C17.3675 13.8361 17.09 13.8029 16.9599 13.5928L16.9594 13.5923C16.8054 13.3425 16.4424 13.3425 16.2884 13.5923V13.5928C16.1344 13.8426 15.7709 13.8426 15.6169 13.5928V13.5923C15.5402 13.4671 15.4107 13.405 15.2811 13.405C15.1516 13.405 15.0221 13.4671 14.9454 13.5923C14.8055 13.8192 14.4932 13.8398 14.3223 13.6548L15.2098 12.8408C15.6071 12.4756 16.2176 12.4756 16.6148 12.8408L17.5438 13.693Z" fill="url(#paint10_linear)"/>
<path d="M8.43067 12.7435C8.42411 12.7435 8.41769 12.7438 8.41117 12.744C8.41844 12.6846 8.42223 12.6242 8.42223 12.5628C8.42223 11.745 7.75923 11.082 6.94145 11.082C6.33236 11.082 5.80919 11.4498 5.5818 11.9754C5.52883 11.9542 5.47103 11.9424 5.41052 11.9424C5.15631 11.9424 4.95025 12.1484 4.95025 12.4026C4.95025 12.4801 4.96947 12.5531 5.00331 12.6171C4.67739 12.7389 4.44531 13.0531 4.44531 13.4215C4.44531 13.8957 4.82978 14.2802 5.30397 14.2802H8.43072C8.85503 14.2802 9.199 13.9362 9.199 13.5119C9.199 13.0876 8.85498 12.7435 8.43067 12.7435Z" fill="#008BF2"/>
<path d="M15.3811 19.3403L4.62543 19.3278C4.16507 19.2532 3.81299 18.8538 3.81299 18.3722V16.5503L7.71365 11.3886C8.12957 10.8382 8.9564 10.8382 9.37232 11.3886L12.41 15.4086L15.3763 19.3338L15.3811 19.3403Z" fill="url(#paint11_linear)"/>
<path d="M10.1706 12.4456C9.99863 12.6273 9.68897 12.6051 9.54966 12.3797V12.3787C9.47236 12.2541 9.34341 12.192 9.21389 12.192C9.08438 12.192 8.95538 12.2541 8.87813 12.3792C8.80088 12.5038 8.67188 12.5664 8.54236 12.5664C8.41285 12.5664 8.28384 12.5039 8.20659 12.3792C8.12934 12.2546 8.00035 12.192 7.87083 12.192C7.74131 12.192 7.61231 12.2546 7.53506 12.3792C7.39631 12.6045 7.08778 12.6268 6.91528 12.4456L7.71356 11.3888C8.1293 10.8382 8.95645 10.8382 9.37224 11.3888L10.1706 12.4456Z" fill="url(#paint12_linear)"/>
<path d="M23.8662 15.3594C23.8662 15.3594 23.8325 15.4549 23.6997 15.5877C23.6503 15.637 19.3061 20.0469 19.3061 20.0469C18.9986 20.359 18.5786 20.5348 18.1404 20.5348C18.5187 20.5348 18.8254 20.2282 18.8254 19.8499V16.501C18.8254 15.8705 19.3365 15.3594 19.967 15.3594H23.8662Z" fill="url(#paint13_linear)"/>
<path d="M16.5935 9.68663C16.587 9.68663 16.5805 9.68696 16.574 9.68715C16.5813 9.62776 16.5851 9.56729 16.5851 9.50593C16.5851 8.6881 15.9221 8.02515 15.1043 8.02515C14.4952 8.02515 13.972 8.39293 13.7446 8.91854C13.6917 8.8973 13.6339 8.88549 13.5734 8.88549C13.3192 8.88549 13.1131 9.09155 13.1131 9.34576C13.1131 9.42319 13.1323 9.49618 13.1662 9.56021C12.8402 9.68204 12.6082 9.99619 12.6082 10.3646C12.6082 10.8388 12.9926 11.2233 13.4668 11.2233H16.5936C17.0179 11.2233 17.3618 10.8793 17.3618 10.455C17.3618 10.0307 17.0179 9.68663 16.5935 9.68663Z" fill="#008BF2"/>
<path d="M22.2695 10.3909L19.8996 8.021C19.4758 7.57597 18.8781 7.2981 18.2151 7.2981C16.9305 7.2981 15.8892 8.33952 15.8892 9.62408C15.8892 10.2871 16.167 10.8848 16.6121 11.3085L22.2695 16.9659V10.3909Z" fill="url(#paint14_linear)"/>
<path d="M18.2151 11.9501C19.4997 11.9501 20.5411 10.9087 20.5411 9.62408C20.5411 8.33947 19.4997 7.2981 18.2151 7.2981C16.9305 7.2981 15.8892 8.33947 15.8892 9.62408C15.8892 10.9087 16.9305 11.9501 18.2151 11.9501Z" fill="url(#paint15_linear)"/>
</g>
<defs>
<linearGradient id="paint0_linear" x1="12.781" y1="12.242" x2="13.2985" y2="-13.2428" gradientUnits="userSpaceOnUse">
<stop stop-color="#97AAAA"/>
<stop offset="1" stop-color="#E8EFEE"/>
</linearGradient>
<linearGradient id="paint1_linear" x1="13.9593" y1="17.5733" x2="14.6123" y2="20.6749" gradientUnits="userSpaceOnUse">
<stop stop-color="#363F3E" stop-opacity="0"/>
<stop offset="1" stop-color="#303033"/>
</linearGradient>
<linearGradient id="paint2_linear" x1="20.0569" y1="19.6972" x2="22.627" y2="22.2678" gradientUnits="userSpaceOnUse">
<stop stop-color="#97AAAA"/>
<stop offset="1" stop-color="#E8EFEE"/>
</linearGradient>
<linearGradient id="paint3_linear" x1="13.0417" y1="4.33234" x2="13.0417" y2="20.9784" gradientUnits="userSpaceOnUse">
<stop stop-color="white"/>
<stop offset="1" stop-color="#E8EFEE"/>
</linearGradient>
<linearGradient id="paint4_linear" x1="13.0416" y1="9.72861" x2="13.0416" y2="21.848" gradientUnits="userSpaceOnUse">
<stop stop-color="#3FA9F5"/>
<stop offset="1" stop-color="#0071E2"/>
</linearGradient>
<linearGradient id="paint5_linear" x1="13.0417" y1="19.2373" x2="13.0417" y2="20.7418" gradientUnits="userSpaceOnUse">
<stop stop-color="#C2CECE" stop-opacity="0"/>
<stop offset="0.179" stop-color="#AFBCBC" stop-opacity="0.179"/>
<stop offset="1" stop-color="#5B6A6A"/>
</linearGradient>
<linearGradient id="paint6_linear" x1="12.5499" y1="17.9292" x2="5.90566" y2="11.2855" gradientUnits="userSpaceOnUse">
<stop offset="0.0001" stop-color="#008BF2" stop-opacity="0"/>
<stop offset="1" stop-color="#0046E2"/>
</linearGradient>
<linearGradient id="paint7_linear" x1="14.9488" y1="11.2345" x2="14.9488" y2="19.7537" gradientUnits="userSpaceOnUse">
<stop stop-color="#C2D600"/>
<stop offset="1" stop-color="#7BD101"/>
</linearGradient>
<linearGradient id="paint8_linear" x1="18.7542" y1="18.6323" x2="12.141" y2="12.0191" gradientUnits="userSpaceOnUse">
<stop offset="0.0001" stop-color="#1ACEB8" stop-opacity="0"/>
<stop offset="1" stop-color="#04959C"/>
</linearGradient>
<linearGradient id="paint9_linear" x1="15.9336" y1="12.4677" x2="15.9336" y2="13.6853" gradientUnits="userSpaceOnUse">
<stop stop-color="white"/>
<stop offset="1" stop-color="#E8EFEE"/>
</linearGradient>
<linearGradient id="paint10_linear" x1="15.8256" y1="13.5658" x2="14.5691" y2="12.3093" gradientUnits="userSpaceOnUse">
<stop stop-color="#C2CECE" stop-opacity="0"/>
<stop offset="0.179" stop-color="#AFBCBC" stop-opacity="0.179"/>
<stop offset="1" stop-color="#5B6A6A"/>
</linearGradient>
<linearGradient id="paint11_linear" x1="9.59735" y1="9.32991" x2="9.59735" y2="19.8547" gradientUnits="userSpaceOnUse">
<stop stop-color="#C2D600"/>
<stop offset="1" stop-color="#7BD101"/>
</linearGradient>
<linearGradient id="paint12_linear" x1="8.54321" y1="10.998" x2="8.54321" y2="12.2866" gradientUnits="userSpaceOnUse">
<stop stop-color="white"/>
<stop offset="1" stop-color="#E8EFEE"/>
</linearGradient>
<linearGradient id="paint13_linear" x1="18.9556" y1="15.8981" x2="21.2054" y2="18.1484" gradientUnits="userSpaceOnUse">
<stop stop-color="white"/>
<stop offset="1" stop-color="#E8EFEE"/>
</linearGradient>
<linearGradient id="paint14_linear" x1="23.0369" y1="14.4445" x2="15.0712" y2="6.47925" gradientUnits="userSpaceOnUse">
<stop offset="0.0001" stop-color="#008BF2" stop-opacity="0"/>
<stop offset="1" stop-color="#0046E2"/>
</linearGradient>
<linearGradient id="paint15_linear" x1="18.2157" y1="5.59244" x2="18.2157" y2="13.8672" gradientUnits="userSpaceOnUse">
<stop stop-color="#FFCF95"/>
<stop offset="0.427" stop-color="#FFC954"/>
<stop offset="1" stop-color="#FFC200"/>
</linearGradient>
<clipPath id="clip0">
<rect width="24" height="24" fill="white" transform="translate(0.785645)"/>
</clipPath>
</defs>
</svg>
