<svg width="40" height="41" viewBox="0 0 40 41" fill="none" xmlns="http://www.w3.org/2000/svg">
<rect x="0.5" y="0.503906" width="39" height="39" rx="19.5" fill="#F2F4F8"/>
<path d="M16.0266 30.4335L13.566 32.8569C13.4687 32.947 13.341 32.9971 13.2084 32.9971C13.0758 32.9971 12.9481 32.947 12.8509 32.8569L7.14613 27.1112C7.05596 27.014 7.00586 26.8863 7.00586 26.7538C7.00586 26.6212 7.05596 26.4935 7.14613 26.3963L9.55948 23.9729C9.73397 23.7973 9.94887 23.6671 10.1854 23.5938C10.4219 23.5205 10.6727 23.5063 10.916 23.5524L11.7993 24.0781L15.7795 28.0312L16.4315 29.0089C16.4901 29.2612 16.4838 29.5243 16.413 29.7735C16.3422 30.0226 16.2092 30.2498 16.0266 30.4335Z" fill="#303033"/>
<path d="M32.5139 21.1236C27.6398 26.9481 27.9448 26.5907 27.908 26.6275C27.0558 27.4583 25.9121 27.9225 24.7217 27.9206H17.9707C17.5782 27.9209 17.2012 28.0736 16.9191 28.3464L16.3933 28.8721C16.3933 28.9247 16.4249 28.972 16.4354 29.0245L15.7782 28.031L11.8032 24.0569L10.9199 23.5312C11.4827 22.5167 12.3158 21.678 13.3265 21.1083C14.3373 20.5385 15.4862 20.26 16.6457 20.3036C17.519 20.3058 18.3828 20.4846 19.1852 20.8292H24.8742C25.2926 20.8294 25.7006 20.9598 26.0415 21.2025C26.1963 21.3075 26.3345 21.4351 26.4516 21.5809L26.6356 21.3917L29.4485 18.4952C29.8094 18.1301 30.2949 17.9148 30.8078 17.8925C31.3207 17.8703 31.8231 18.0427 32.2142 18.3752C32.6053 18.7077 32.8562 19.1757 32.9167 19.6854C32.9771 20.1952 32.8426 20.7089 32.5401 21.1236H32.5139Z" fill="#FFCF95"/>
<path d="M24.876 24.8768H20.7066C20.5929 24.8483 20.492 24.7826 20.4199 24.6903C20.3478 24.5979 20.3086 24.4841 20.3086 24.3669C20.3086 24.2497 20.3478 24.1359 20.4199 24.0435C20.492 23.9511 20.5929 23.8855 20.7066 23.857H24.876C26.0748 23.1 25.8908 21.7543 26.0433 21.1865C26.1981 21.2915 26.3363 21.4191 26.4534 21.565L26.6374 21.3758C26.8162 22.3903 26.3745 24.8768 24.876 24.8768Z" fill="#F29868"/>
<path d="M12.4558 12.5495C12.8396 12.5495 13.2078 12.7019 13.4792 12.9731C13.7506 13.2444 13.9031 13.6123 13.9031 13.9959C13.9031 14.3796 13.7506 14.7475 13.4792 15.0187C13.2078 15.29 12.8396 15.4424 12.4558 15.4424C12.4484 15.4431 12.441 15.4431 12.4336 15.4424V18.501H13.0483C13.0483 18.501 13.3445 17.6362 13.8313 17.3623C14.3664 17.211 15.1938 17.6232 15.1938 17.6232L15.6284 17.1889L16.063 16.7545C16.063 16.7545 15.6858 15.9511 15.8189 15.415C16.0799 14.9181 17 14.6116 17 14.6116V13.3816C17 13.3816 15.9833 13.0438 15.785 12.5012C15.7093 11.973 16.046 11.2634 16.046 11.2634L15.6075 10.8291L15.1781 10.3896C15.1781 10.3896 14.3951 10.7691 13.8626 10.6504L13.8444 10.6439C13.351 10.3713 13.0509 9.50134 13.0509 9.50134H12.4375V12.5508C12.4435 12.5494 12.4497 12.549 12.4558 12.5495Z" fill="#849696"/>
<path d="M11.016 10.6441L10.9716 10.6636L10.9494 10.6741C10.4274 10.7523 9.72137 10.4132 9.72137 10.4132L9.28678 10.8489L8.8509 11.2832C8.8509 11.2832 9.19282 11.9953 9.11191 12.5223C9.09103 12.5705 9.08711 12.6188 9.06884 12.6683C8.75954 13.1131 8 13.3818 8 13.3818V14.6117C8 14.6117 8.76737 14.883 9.07015 15.3317C9.0832 15.3643 9.08711 15.3969 9.10147 15.4295C9.21762 15.9617 8.84046 16.7338 8.84046 16.7338L9.27112 17.1656L9.69657 17.6103C9.69657 17.6103 10.5161 17.2099 11.0499 17.3599C11.5328 17.6338 11.8329 18.4946 11.8329 18.4946H12.4372V15.4387C12.0614 15.4274 11.7047 15.2702 11.4429 15.0006C11.1811 14.7309 11.0346 14.3699 11.0346 13.9942C11.0346 13.6184 11.1811 13.2574 11.4429 12.9877C11.7047 12.7181 12.0614 12.5609 12.4372 12.5497V9.50021H11.8199C11.8199 9.50021 11.5132 10.3871 11.016 10.6441Z" fill="#94A5A6"/>
<path d="M10.5078 13.9994C10.5068 14.3741 10.617 14.7407 10.8245 15.0528C11.0321 15.3649 11.3276 15.6085 11.6737 15.7526C12.0198 15.8968 12.4009 15.9352 12.7688 15.8628C13.1366 15.7904 13.4748 15.6106 13.7404 15.3461C14.006 15.0815 14.187 14.7442 14.2607 14.3768C14.3344 14.0094 14.2974 13.6284 14.1543 13.282C14.0113 12.9356 13.7686 12.6394 13.457 12.4309C13.1455 12.2224 12.779 12.111 12.4041 12.1108C11.9022 12.1104 11.4206 12.3091 11.0651 12.6631C10.7096 13.0172 10.5092 13.4978 10.5078 13.9994ZM13.76 13.9994C13.76 14.2677 13.6804 14.5299 13.5313 14.753C13.3821 14.9761 13.1702 15.1499 12.9222 15.2526C12.6742 15.3553 12.4013 15.3821 12.138 15.3298C11.8747 15.2774 11.6328 15.1483 11.443 14.9586C11.2532 14.7688 11.124 14.5271 11.0716 14.264C11.0192 14.0009 11.0461 13.7281 11.1488 13.4803C11.2515 13.2324 11.4255 13.0206 11.6487 12.8715C11.8719 12.7225 12.1343 12.6429 12.4028 12.6429C12.7627 12.6429 13.1079 12.7858 13.3625 13.0402C13.617 13.2946 13.76 13.6396 13.76 13.9994Z" fill="#B8C4C4"/>
<path d="M28.002 9.60352H21.1063V16.5H28.002V9.60352Z" fill="#FF8000"/>
<path d="M23.5198 15.5344C25.3553 15.5344 26.9837 14.7932 28.002 13.6489V16.4999H21.1063V15.0764C21.8368 15.3699 22.6553 15.5344 23.5198 15.5344ZM21.1063 9.60344H28.002L26.8986 8.5H20.003L21.1063 9.60344Z" fill="#E57300"/>
<path d="M20.0002 8.5L21.1035 9.60344V16.4999L20.0002 15.3965V8.5Z" fill="#CE6700"/>
<path d="M25.1035 9.60352H24.0002V16.5H25.1035V9.60352Z" fill="#E6E6E6"/>
<path d="M24.0002 9.60344H25.1035L24.0002 8.5H22.8969L24.0002 9.60344Z" fill="#CCCCCC"/>
<path d="M26.4846 14.707H25.5192V14.9829H26.4846V14.707ZM27.0362 14.707H26.7604V14.9829H27.0362V14.707ZM27.5879 14.707H27.3121V14.9829H27.5879V14.707ZM27.5879 15.8105H25.5192V16.0863H27.5879V15.8105ZM27.5879 15.2588H25.5192V15.5346H27.5879V15.2588Z" fill="white"/>
<rect x="0.5" y="0.503906" width="39" height="39" rx="19.5" stroke="#DEDEDE"/>
</svg>
