<svg width="40" height="41" viewBox="0 0 40 41" fill="none" xmlns="http://www.w3.org/2000/svg">
<rect x="0.5" y="0.503906" width="39" height="39" rx="19.5" fill="#F2F4F8"/>
<g clip-path="url(#clip0_5258:24580)">
<path fill-rule="evenodd" clip-rule="evenodd" d="M15.6646 25.4935C15.6319 25.4825 15.5973 25.478 15.5628 25.4803C15.5284 25.4827 15.4947 25.4918 15.4638 25.5072C15.4329 25.5226 15.4053 25.544 15.3826 25.57C15.3599 25.5961 15.3427 25.6264 15.3318 25.6592C15.1707 26.1188 15.1989 26.6237 15.41 27.0626C15.621 27.5014 15.9978 27.8388 16.4573 27.9999C16.49 28.0119 16.5247 28.0172 16.5594 28.0157C16.5942 28.0141 16.6282 28.0056 16.6596 27.9908C16.6911 27.976 16.7192 27.955 16.7425 27.9292C16.7657 27.9033 16.7837 27.8731 16.7952 27.8403C16.8067 27.8075 16.8115 27.7727 16.8095 27.738C16.8074 27.7033 16.7986 27.6694 16.7833 27.6382C16.768 27.6069 16.7467 27.5791 16.7205 27.5562C16.6944 27.5332 16.6639 27.5158 16.6309 27.5047C16.3025 27.3896 16.0336 27.1488 15.8828 26.8352C15.732 26.5216 15.7118 26.1612 15.827 25.8328C15.8391 25.7999 15.8445 25.7649 15.8428 25.7299C15.8412 25.6949 15.8325 25.6605 15.8174 25.6289C15.8023 25.5973 15.781 25.569 15.7548 25.5458C15.7285 25.5225 15.6978 25.5047 15.6646 25.4935Z" fill="#2B4255"/>
<path d="M18 7.00391C20.6522 7.0039 23.1957 8.05747 25.0711 9.93283C26.9464 11.8082 28 14.3517 28 17.0039C28 18.3171 27.7413 19.6175 27.2388 20.8307C26.7362 22.044 25.9997 23.1464 25.0711 24.075C24.1425 25.0036 23.0401 25.7402 21.8268 26.2427C20.6136 26.7452 19.3132 27.0039 18 27.0039C16.6868 27.0039 15.3864 26.7452 14.1732 26.2427C12.9599 25.7402 11.8575 25.0036 10.9289 24.075C10.0003 23.1464 9.26375 22.044 8.7612 20.8307C8.25866 19.6175 8 18.3171 8 17.0039C8 14.3517 9.05357 11.8082 10.9289 9.93284C12.8043 8.05748 15.3478 7.00391 18 7.00391Z" fill="#5CCE26"/>
<path d="M18.0063 23.745C19.794 23.745 21.5085 23.0348 22.7727 21.7707C24.0368 20.5066 24.747 18.7921 24.747 17.0043C24.747 16.1191 24.5726 15.2426 24.2339 14.4248C23.8951 13.607 23.3986 12.8639 22.7727 12.238C22.1467 11.612 21.4036 11.1155 20.5858 10.7768C19.768 10.438 18.8915 10.2637 18.0063 10.2637C17.1211 10.2637 16.2446 10.438 15.4267 10.7768C14.6089 11.1155 13.8658 11.612 13.2399 12.238C12.614 12.8639 12.1175 13.607 11.7787 14.4248C11.44 15.2426 11.2656 16.1191 11.2656 17.0043C11.2656 18.7921 11.9758 20.5066 13.2399 21.7707C14.504 23.0348 16.2186 23.745 18.0063 23.745Z" fill="#34A853"/>
<path d="M18.0014 11.5083C17.7231 11.5083 17.5077 11.6729 17.45 12.1115L17.3203 12.6853C17.2436 12.7056 17.1671 12.7292 17.0914 12.7568C15.8822 13.1969 15.1546 14.4549 15.3781 15.7222C15.597 16.9638 16.6713 17.8829 17.9249 17.9199C18.4308 17.9199 18.7442 18.2048 18.8149 18.605C18.8854 19.0052 18.6657 19.3854 18.2839 19.5244C17.902 19.6634 17.2482 19.7297 16.9204 19.1619C16.6665 18.7212 16.1729 18.718 15.8584 18.8996C15.45 19.1355 15.4405 19.641 15.6942 20.0809C16.0579 20.7108 16.6528 21.1432 17.3196 21.3211L17.45 21.8977C17.5077 22.3363 17.7231 22.5009 18.0014 22.5009C18.2797 22.5009 18.4388 22.3886 18.554 21.8977L18.6837 21.3247C18.7608 21.3043 18.8376 21.2805 18.9137 21.2528C20.1229 20.8127 20.8494 19.5532 20.6259 18.286C20.4068 17.0435 19.3323 16.1236 18.0776 16.0879C17.5807 16.0879 17.2597 15.8034 17.1891 15.4032C17.1186 15.0029 17.3383 14.6242 17.7202 14.4852C18.102 14.3462 18.7666 14.2968 19.0846 14.8477C19.3386 15.2874 19.7874 15.3419 20.1797 15.1154C20.4861 14.9388 20.5641 14.3674 20.3098 13.9273C19.9459 13.2971 19.3512 12.8647 18.6844 12.6874L18.554 12.1115C18.4388 11.6206 18.2797 11.5083 18.0014 11.5083Z" fill="white"/>
<path fill-rule="evenodd" clip-rule="evenodd" d="M18.0963 30.3628C18.1515 30.4053 18.2213 30.4241 18.2904 30.4151C18.3594 30.406 18.422 30.3699 18.4645 30.3147C18.5069 30.2595 18.5257 30.1896 18.5167 30.1206C18.5076 30.0515 18.4715 29.9889 18.4163 29.9465C17.8774 29.5309 17.7447 28.7794 18.1092 28.205C18.4737 27.6306 19.2099 27.4307 19.8152 27.7417C20.4205 28.0526 20.6876 28.7676 20.4333 29.3986C20.4197 29.4307 20.4126 29.4651 20.4125 29.5C20.4124 29.5348 20.4193 29.5694 20.4327 29.6016C20.446 29.6337 20.4656 29.6629 20.4904 29.6874C20.5152 29.7119 20.5446 29.7312 20.5769 29.7443C20.6092 29.7573 20.6438 29.7637 20.6786 29.7632C20.7134 29.7627 20.7478 29.7553 20.7798 29.7414C20.8117 29.7274 20.8405 29.7073 20.8646 29.6821C20.8887 29.6569 20.9075 29.6272 20.92 29.5947C21.274 28.7163 20.8982 27.7079 20.0558 27.2752C19.2134 26.8424 18.1739 27.1241 17.6665 27.9237C17.1591 28.7233 17.3462 29.7845 18.0963 30.3628Z" fill="#34485C"/>
<path d="M29.3057 23.3717L23.0726 24.7196L22.5253 24.8387L22.3369 24.8794L21.7835 24.9986L20.9377 25.181C20.7763 25.2157 20.6406 25.3242 20.5668 25.4735L20.1235 26.2545L19.9426 26.5802L19.2158 27.8738L19.2128 27.8768C19.1872 27.9296 19.1646 27.9673 19.1404 28.0065L19.1238 28.0321C19.1042 28.0608 19.0877 28.0894 19.0696 28.1256C19.065 28.1332 19.0605 28.1407 19.059 28.1482L18.7997 28.6096L18.7786 28.6458L18.7379 28.7167L18.566 29.0212C18.4454 29.2564 18.5102 29.5474 18.7168 29.7148L22.0052 32.1166C22.1333 32.2207 22.3007 32.2584 22.462 32.2237L30.83 30.4114C31.1255 30.348 31.3125 30.0555 31.2461 29.754L29.96 23.7999C29.8952 23.4999 29.6012 23.3054 29.3057 23.3717ZM21.6252 28.685C21.6297 28.6956 21.6312 28.7061 21.6342 28.7182C21.7428 29.2127 21.4337 29.6967 20.9467 29.8007C20.5562 29.8837 20.1747 29.7012 19.9802 29.371C19.9305 29.2881 19.9184 29.0891 19.8702 29.08C19.8536 29.1238 19.8099 29.261 19.828 29.3544C19.828 29.3364 19.831 29.3062 19.837 29.267C19.8385 29.2474 19.84 29.2278 19.8461 29.2037C19.8521 29.1705 19.8491 29.1705 19.8611 29.1343C19.8611 29.1343 19.8717 29.0966 19.8732 29.0951C19.8717 29.0936 19.8702 29.0861 19.8702 29.08C19.8642 29.0619 19.8626 29.0333 19.8596 28.9941C19.8581 28.9745 19.8551 28.9534 19.8551 28.9293C19.8491 28.8509 19.8551 28.7755 19.8762 28.7031C19.8762 28.694 19.8762 28.685 19.8792 28.679C19.8928 28.6232 19.9094 28.5674 19.9365 28.5131C19.9531 28.4694 19.9983 28.4 20.0014 28.4C20.0979 28.2523 20.2381 28.1332 20.4069 28.0638C20.4537 28.0472 20.5065 28.0276 20.5592 28.0171C20.6105 28.005 20.6648 27.999 20.716 27.999C20.7417 27.9975 20.7688 27.9975 20.7944 27.999C20.9889 28.0095 21.1729 28.0819 21.3191 28.204C21.3267 28.2116 21.3357 28.2176 21.3433 28.2251C21.4774 28.3412 21.577 28.5011 21.6267 28.6835L21.6252 28.685Z" fill="#A82A27"/>
<path d="M23.1209 25.7745H22.557L21.6916 25.7745C21.5257 25.7745 21.372 25.8499 21.2664 25.9796L20.6678 26.6505L20.4221 26.9325L19.4375 28.0437L19.4345 28.0467C19.3621 28.1372 19.3063 28.1779 19.2415 28.2578C19.2355 28.2638 19.231 28.2713 19.2249 28.2804L18.8465 28.7071L18.7922 28.7674L18.5585 29.0282C18.3926 29.2333 18.3911 29.5303 18.56 29.7354L21.2709 32.778C21.375 32.9062 21.5288 32.9785 21.6946 32.9785L30.2586 32.9725C30.5602 32.9725 30.8044 32.7252 30.8044 32.4177L30.8029 26.3248C30.8029 26.0173 30.5572 25.7655 30.2526 25.7685L23.1209 25.7745ZM19.8235 29.3795L19.8235 29.3765C19.8235 29.3735 19.8235 29.3675 19.8235 29.3614C19.8235 29.3434 19.8265 29.3132 19.8325 29.274C19.8356 29.2559 19.8371 29.2333 19.8416 29.2107C19.8521 29.1338 19.8748 29.0599 19.911 28.9936C19.9125 28.986 19.9155 28.977 19.9215 28.9709C19.9456 28.9197 19.9743 28.8669 20.012 28.8202C20.0376 28.7825 20.0964 28.7237 20.0994 28.7237C20.2246 28.5985 20.3859 28.5126 20.5683 28.4809C20.6181 28.4734 20.6724 28.4643 20.7251 28.4658C20.7794 28.4658 20.8352 28.4704 20.8834 28.4824C20.9076 28.4854 20.9347 28.4915 20.9588 28.4975C21.1564 28.5533 21.3297 28.6724 21.4473 28.8352C21.5589 28.986 21.6253 29.176 21.6268 29.3795C21.6283 29.8846 21.2242 30.2917 20.7266 30.2917C20.2276 30.2902 19.825 29.8846 19.8235 29.3795Z" fill="#F25A3C"/>
<path fill-rule="evenodd" clip-rule="evenodd" d="M19.1994 30.4933C19.2051 30.5274 19.2175 30.5601 19.2359 30.5894C19.2542 30.6187 19.2782 30.6441 19.3063 30.6641C19.3345 30.6841 19.3664 30.6983 19.4001 30.706C19.4338 30.7136 19.4687 30.7145 19.5027 30.7086C20.3874 30.5717 21.0458 29.811 21.0567 28.9157C21.0594 28.8799 21.0547 28.844 21.0429 28.8102C21.0311 28.7763 21.0126 28.7452 20.9884 28.7189C20.9641 28.6925 20.9348 28.6714 20.9021 28.6568C20.8694 28.6422 20.834 28.6343 20.7982 28.6339C20.7624 28.6335 20.7269 28.6405 20.6938 28.6543C20.6608 28.6681 20.6309 28.6885 20.606 28.7143C20.5812 28.7401 20.5619 28.7708 20.5493 28.8043C20.5368 28.8378 20.5312 28.8736 20.533 28.9094C20.5251 29.552 20.0567 30.091 19.4219 30.1893C19.3871 30.1942 19.3536 30.2059 19.3234 30.224C19.2933 30.242 19.2671 30.2659 19.2463 30.2942C19.2256 30.3226 19.2107 30.3548 19.2027 30.389C19.1946 30.4232 19.1935 30.4587 19.1994 30.4933Z" fill="#34485C"/>
<path fill-rule="evenodd" clip-rule="evenodd" d="M17.7611 29.5602C17.7327 29.5799 17.7085 29.605 17.6898 29.6341C17.6711 29.6632 17.6584 29.6957 17.6523 29.7297C17.6462 29.7637 17.6469 29.7986 17.6544 29.8324C17.6618 29.8661 17.6759 29.898 17.6957 29.9263C18.1969 30.6682 19.1657 30.9392 19.9802 30.5673C20.0136 30.5545 20.0441 30.5349 20.0697 30.5098C20.0953 30.4847 20.1155 30.4547 20.1291 30.4215C20.1426 30.3884 20.1491 30.3528 20.1484 30.317C20.1477 30.2812 20.1397 30.2459 20.1248 30.2133C20.1099 30.1807 20.0884 30.1516 20.0618 30.1276C20.0352 30.1036 20.0041 30.0852 19.9701 30.0738C19.9362 30.0623 19.9002 30.0579 19.8645 30.0609C19.8288 30.0638 19.7941 30.074 19.7625 30.0909C19.1779 30.3579 18.4906 30.164 18.131 29.6318C18.1117 29.6024 18.0868 29.5771 18.0576 29.5575C18.0285 29.5379 17.9957 29.5244 17.9612 29.5177C17.9267 29.511 17.8912 29.5113 17.8569 29.5186C17.8225 29.5259 17.7899 29.5401 17.7611 29.5602Z" fill="#34485C"/>
<path d="M22.728 29.7164L23.108 29.6803C23.1306 29.8084 23.1774 29.9004 23.2467 29.9607C23.3161 30.021 23.4111 30.0497 23.5302 30.0512C23.6568 30.0512 23.7503 30.024 23.8151 29.9712C23.88 29.9185 23.9101 29.8552 23.9116 29.7843C23.9116 29.7391 23.8996 29.6999 23.8709 29.6682C23.8438 29.635 23.797 29.6094 23.7307 29.5853C23.6855 29.5702 23.5814 29.5415 23.4171 29.5008C23.2075 29.4481 23.0613 29.3862 22.9768 29.3109C22.8577 29.2038 22.7989 29.0756 22.7989 28.9219C22.7989 28.8223 22.8261 28.7319 22.8818 28.6459C22.9376 28.56 23.0175 28.4952 23.1231 28.4499C23.2286 28.4047 23.3553 28.3836 23.503 28.3836C23.7443 28.3836 23.9282 28.4379 24.0519 28.5434C24.174 28.6505 24.2388 28.7907 24.2448 28.9686L23.8543 28.9852C23.8377 28.8872 23.8016 28.8148 23.7458 28.7711C23.69 28.7274 23.6086 28.7062 23.4985 28.7047C23.3839 28.7047 23.2965 28.7289 23.2316 28.7756C23.1894 28.8058 23.1698 28.8465 23.1698 28.8947C23.1698 28.9399 23.1894 28.9807 23.2271 29.0123C23.2769 29.053 23.396 29.0968 23.586 29.142C23.7759 29.1872 23.9162 29.234 24.0081 29.2807C24.0986 29.3289 24.1695 29.3938 24.2222 29.4767C24.275 29.5596 24.2991 29.6622 24.2991 29.7858C24.2991 29.8974 24.269 29.9999 24.2071 30.0979C24.1453 30.1959 24.0594 30.2668 23.9463 30.3135C23.8332 30.3602 23.6945 30.3844 23.5256 30.3844C23.2814 30.3844 23.0929 30.3286 22.9617 30.2155C22.8306 30.0964 22.7522 29.9336 22.728 29.7164ZM26.3693 30.3452L25.9441 30.3452L25.7752 29.9049L25.0032 29.9049L24.8434 30.3452L24.4303 30.3452L25.1842 28.4122H25.5973L26.3693 30.3452ZM25.6516 29.5792L25.3862 28.8615L25.1254 29.5777L25.6516 29.5792ZM26.5879 30.3467L26.5879 28.4288L26.9769 28.4288L26.9769 30.021H27.9479L27.9479 30.3467L26.5879 30.3467ZM28.2268 30.3452L28.2268 28.4122L29.6592 28.4122V28.7379L28.6158 28.7379V29.1661H29.5868L29.5883 29.4933H28.6173L28.6173 30.018H29.6969L29.6969 30.3437L28.2268 30.3452Z" fill="white"/>
<path fill-rule="evenodd" clip-rule="evenodd" d="M17.8613 27.9395L17.6877 28.4346L16.4498 28.0006L16.6234 27.5055L17.8613 27.9395Z" fill="#2B4255"/>
</g>
<rect x="0.5" y="0.503906" width="39" height="39" rx="19.5" stroke="#DEDEDE"/>
<defs>
<clipPath id="clip0_5258:24580">
<rect width="26" height="26" fill="white" transform="translate(7 7.00391)"/>
</clipPath>
</defs>
</svg>
