<svg width="94" height="94" viewBox="0 0 94 94" fill="none" xmlns="http://www.w3.org/2000/svg">
<path d="M30.982 35.3871C30.1497 35.3871 29.3678 35.0632 28.7794 34.4748L24.5304 30.2258H17.3226C15.1884 30.2258 13.4517 28.489 13.4517 26.3548V10.871C13.4517 8.73677 15.1884 7 17.3226 7H40.5484C42.6826 7 44.4194 8.73677 44.4194 10.871V26.3548C44.4194 28.489 42.6826 30.2258 40.5484 30.2258H34.0968V32.2723C34.0968 33.9897 32.6994 35.3871 30.982 35.3871Z" fill="#EE0202"/>
<path d="M83.0477 61.1935C81.9084 61.1935 80.8232 61.6852 80.0723 62.5432L77.6052 65.3626L76.48 58.6129H78.5587C83.2129 58.6129 87 54.8258 87 50.1716C87 49.711 86.9613 49.2439 86.8852 48.7845L81.6413 17.3226H75.3871V14.7419C75.3871 10.4723 71.9148 7 67.6452 7C63.3755 7 59.9032 10.4723 59.9032 14.7419V17.3226H53.649L50.6387 35.3871H44.6168L39.6361 65.2697C39.3923 65.4284 39.1394 65.5716 38.9123 65.7535L37.1561 67.1587C36.0606 65.1535 33.9574 63.7742 31.5161 63.7742C29.6116 63.7742 27.0774 64.6735 25.6877 66.3548H7V84.4193H25.6877C27.0774 86.1006 29.6116 87 31.5161 87C34.2787 87 36.6219 85.2452 37.5406 82.8L39.9755 83.7742C41.0465 84.2039 42.1755 84.4206 43.3303 84.4206H60.1961C70.1406 84.4206 79.3716 79.48 84.889 71.2052L85.3987 70.4413C86.4452 68.8671 87 67.0374 87 65.1458C87 62.9677 85.2271 61.1935 83.0477 61.1935ZM62.4839 14.7419C62.4839 11.8955 64.7987 9.58065 67.6452 9.58065C70.4916 9.58065 72.8064 11.8955 72.8064 14.7419V17.3226H62.4839V14.7419ZM55.8348 19.9032H59.9032V22.7213C58.4052 23.2555 57.3226 24.6748 57.3226 26.3548C57.3226 28.489 59.0594 30.2258 61.1935 30.2258C63.3277 30.2258 65.0645 28.489 65.0645 26.3548C65.0645 24.6748 63.9819 23.2555 62.4839 22.7213V19.9032H72.8064V22.7213C71.3084 23.2555 70.2258 24.6748 70.2258 26.3548C70.2258 28.489 71.9626 30.2258 74.0968 30.2258C76.231 30.2258 77.9677 28.489 77.9677 26.3548C77.9677 24.6748 76.8852 23.2555 75.3871 22.7213V19.9032H79.4555L84.3406 49.2077C84.3923 49.5264 84.4193 49.8516 84.4193 50.1716C84.4193 53.4039 81.791 56.0323 78.5587 56.0323H76.049L72.6077 35.3871H53.2529L55.8348 19.9032ZM62.4839 26.3548C62.4839 27.0658 61.9045 27.6452 61.1935 27.6452C60.4826 27.6452 59.9032 27.0658 59.9032 26.3548C59.9032 25.6439 60.4826 25.0645 61.1935 25.0645C61.9045 25.0645 62.4839 25.6439 62.4839 26.3548ZM75.3871 26.3548C75.3871 27.0658 74.8077 27.6452 74.0968 27.6452C73.3858 27.6452 72.8064 27.0658 72.8064 26.3548C72.8064 25.6439 73.3858 25.0645 74.0968 25.0645C74.8077 25.0645 75.3871 25.6439 75.3871 26.3548ZM46.8026 37.9677H70.4232L75.3084 67.2735C75.3264 67.3832 75.3252 67.4968 75.3368 67.6077C72.4555 70.0103 68.8439 71.3923 65.0516 71.4929C65.8581 70.4155 66.3548 69.0916 66.3548 67.6452C66.3548 65.511 64.6181 63.7742 62.4839 63.7742H44.5535C43.8413 63.7742 43.1419 63.889 42.4542 64.0542L46.8026 37.9677ZM9.58065 68.9355H25.0645V81.8387H9.58065V68.9355ZM34.8465 73.4555C35.2052 74.071 35.3871 74.7213 35.3871 75.3871C35.3871 76.0529 35.2052 76.7032 34.8465 77.3187L34.4684 77.9677L34.8465 78.6168C35.2052 79.2323 35.3871 79.8826 35.3871 80.5484C35.3871 82.6826 33.6503 84.4193 31.5161 84.4193C30.0568 84.4193 28.3781 83.6606 27.6452 82.7174V68.0568C28.3781 67.1135 30.0568 66.3548 31.5161 66.3548C33.6503 66.3548 35.3871 68.0916 35.3871 70.2258C35.3871 70.8916 35.2052 71.5419 34.8465 72.1574L34.4684 72.8064L34.8465 73.4555ZM83.2503 69.009L82.7406 69.7729C77.7032 77.3277 69.2748 81.8387 60.1948 81.8387H43.329C42.5045 81.8387 41.6981 81.6839 40.9342 81.3768L37.9277 80.1742C37.8826 79.4168 37.7277 78.6748 37.4103 77.9665C37.7806 77.1432 37.9677 76.2774 37.9677 75.3871C37.9677 74.4968 37.7806 73.631 37.4103 72.8064C37.7806 71.9819 37.9677 71.1161 37.9677 70.2258C37.9677 70.0955 37.9368 69.9729 37.929 69.8439L40.5239 67.7677C41.6645 66.8568 43.0955 66.3548 44.5535 66.3548H62.4839C63.1948 66.3548 63.7742 66.9342 63.7742 67.6452C63.7742 69.7794 62.0374 71.5161 59.9032 71.5161H58.6129H53.4516V74.0968H58.6129H59.9032H64.609C70.191 74.0968 75.4994 71.6877 79.1742 67.4877L82.0129 64.2426C82.2748 63.9445 82.6516 63.7742 83.0477 63.7742C83.8039 63.7742 84.4193 64.3897 84.4193 65.1458C84.4193 66.5252 84.0155 67.8606 83.2503 69.009Z" fill="#002452"/>
<path d="M31.5162 81.8387C32.2288 81.8387 32.8065 81.261 32.8065 80.5484C32.8065 79.8358 32.2288 79.2581 31.5162 79.2581C30.8035 79.2581 30.2258 79.8358 30.2258 80.5484C30.2258 81.261 30.8035 81.8387 31.5162 81.8387Z" fill="#002452"/>
<path d="M31.5162 76.6773C32.2288 76.6773 32.8065 76.0996 32.8065 75.387C32.8065 74.6744 32.2288 74.0967 31.5162 74.0967C30.8035 74.0967 30.2258 74.6744 30.2258 75.387C30.2258 76.0996 30.8035 76.6773 31.5162 76.6773Z" fill="#002452"/>
<path d="M31.5162 71.516C32.2288 71.516 32.8065 70.9383 32.8065 70.2256C32.8065 69.513 32.2288 68.9353 31.5162 68.9353C30.8035 68.9353 30.2258 69.513 30.2258 70.2256C30.2258 70.9383 30.8035 71.516 31.5162 71.516Z" fill="#002452"/>
<path d="M25.8207 23.7743C26.653 24.6065 27.7588 25.0646 28.9355 25.0646C30.1123 25.0646 31.2194 24.6065 32.0504 23.7743L35.2297 20.5949C36.1639 19.662 36.6775 18.4207 36.6775 17.102C36.6775 14.3769 34.4607 12.1614 31.7355 12.1614C30.7213 12.1614 29.7523 12.4659 28.9355 13.0298C28.1175 12.4659 27.1497 12.1614 26.1342 12.1614C23.4091 12.1614 21.1936 14.3769 21.1936 17.102C21.1936 18.4207 21.7072 19.662 22.6413 20.5949L25.8207 23.7743ZM26.1355 14.742C26.7652 14.742 27.3575 14.9872 27.8026 15.4323L28.9355 16.5627L30.0684 15.4323C30.5149 14.9872 31.1072 14.742 31.7368 14.742C33.0388 14.742 34.0968 15.8001 34.0968 17.102C34.0968 17.7317 33.8517 18.324 33.4052 18.7704L30.2259 21.9498C29.5472 22.6285 28.3239 22.6285 27.6452 21.9498L24.4659 18.7704C24.0194 18.324 23.7742 17.7317 23.7742 17.102C23.7742 15.8001 24.8336 14.742 26.1355 14.742Z" fill="#002452"/>
<path d="M50.8709 48.0531V53.4518C50.8709 57.7215 54.3432 61.1937 58.6129 61.1937C62.8825 61.1937 66.3548 57.7215 66.3548 53.4518V48.0531C67.8529 47.5189 68.9354 46.0996 68.9354 44.4196C68.9354 42.2854 67.1987 40.5486 65.0645 40.5486C62.9303 40.5486 61.1935 42.2854 61.1935 44.4196C61.1935 46.0996 62.2761 47.5189 63.7742 48.0531V53.4518C63.7742 56.2983 61.4593 58.6131 58.6129 58.6131C55.7664 58.6131 53.4516 56.2983 53.4516 53.4518V48.0531C54.9496 47.5189 56.0322 46.0996 56.0322 44.4196C56.0322 42.2854 54.2954 40.5486 52.1613 40.5486C50.0271 40.5486 48.2903 42.2854 48.2903 44.4196C48.2903 46.0996 49.3729 47.5189 50.8709 48.0531ZM65.0645 43.1292C65.7754 43.1292 66.3548 43.7086 66.3548 44.4196C66.3548 45.1305 65.7754 45.7099 65.0645 45.7099C64.3535 45.7099 63.7742 45.1305 63.7742 44.4196C63.7742 43.7086 64.3535 43.1292 65.0645 43.1292ZM52.1613 43.1292C52.8722 43.1292 53.4516 43.7086 53.4516 44.4196C53.4516 45.1305 52.8722 45.7099 52.1613 45.7099C51.4503 45.7099 50.8709 45.1305 50.8709 44.4196C50.8709 43.7086 51.4503 43.1292 52.1613 43.1292Z" fill="#002452"/>
</svg>
