<svg width="94" height="94" viewBox="0 0 94 94" fill="none" xmlns="http://www.w3.org/2000/svg">
<g clip-path="url(#clip0)">
<path d="M45 14V10L44 9L56.5 10L65.5 13.5L78.5 26.5L81 40L78.5 42H75.5H73H70L67.5 37L64.5 40L60 44L58 40L55 34L49.5 32L45 30V26.5L49.5 23.5V18L45 14Z" fill="#EE0202"/>
<path d="M21.5 26.5H17L13.5 34V46L18.5 44L23.5 48.5L25 46L23.5 42V38H27.5L32.5 40L36 37L32.5 34L25 30L21.5 26.5Z" fill="#EE0202"/>
<path d="M71.0615 73.0708C71.5174 72.1486 71.7747 71.1117 71.7747 70.0153V68.9574C71.7915 68.9418 71.8071 68.927 71.8238 68.9112C72.0149 68.7321 72.2125 68.5468 72.4094 68.35C79.1967 61.5627 82.9346 52.5385 82.9346 42.9397C82.9346 33.341 79.1967 24.3168 72.4094 17.5294C67.1919 12.3117 60.6082 8.86816 53.3706 7.57105C46.2999 6.30424 39.0986 7.15419 32.5454 10.0306C31.7553 10.3774 31.3959 11.2991 31.7426 12.0894C32.0896 12.8793 33.011 13.2384 33.8014 12.8922C36.867 11.5464 40.0422 10.6949 43.2306 10.3171C43.3176 10.5763 43.4135 10.794 43.4931 10.9704C43.616 11.2433 43.6471 11.3241 43.6488 11.4143C43.6515 11.5644 43.6374 11.6025 43.392 11.9245C42.964 12.4867 42.0733 13.6563 43.1181 15.5714C44.241 17.63 46.3534 18.3982 47.8956 18.9592C48.4223 19.1509 49.1979 19.4327 49.449 19.6396C49.4385 19.7 49.4119 19.8055 49.3454 19.9652C48.9413 20.9347 48.9057 21.8338 48.877 22.5563C48.8537 23.147 48.8321 23.5178 48.6926 23.6869C48.5717 23.8336 48.1054 24.204 46.3977 24.4693C45.1053 24.6702 44.0958 25.5802 43.5555 27.0315C43.1096 28.2291 42.8529 30.4757 43.7177 31.4944C44.863 32.8435 46.152 32.6807 46.9224 32.5832C47.6633 32.4898 48.2487 32.4157 49.5638 33.8699C51.1282 35.6001 52.7475 35.4718 53.7145 35.3953C53.869 35.3831 54.0664 35.3685 54.1907 35.3699C55.0613 37.3831 55.9642 38.2851 56.6328 38.9532C57.3515 39.6713 57.649 39.9684 57.649 42.0824C57.649 43.8676 58.7236 45.2083 60.3229 45.4187C60.4654 45.4375 60.6104 45.447 60.7574 45.447C62.7192 45.4467 65.0211 43.7738 65.9399 40.3443C66.1655 39.5022 66.42 39.1825 66.5224 39.0822C66.7275 39.1729 67.2473 39.5689 67.8942 40.6673C69.2861 43.0308 70.6153 44.2646 72.0769 44.5505C73.6421 44.8569 74.7985 43.974 75.4894 43.4464C75.5147 43.427 75.5416 43.4065 75.5692 43.3854C77.1829 44.5438 78.8442 43.6876 79.7765 43.207C79.7812 43.2047 79.7866 43.2018 79.7913 43.1993C79.7302 50.9973 76.9158 58.7775 71.3446 64.9364C70.3665 62.3009 67.827 60.4177 64.8554 60.4177C61.04 60.4177 57.9361 63.5216 57.9361 67.3369V70.0155C57.9361 71.1132 58.1943 72.1515 58.6513 73.0745C58.133 73.4334 57.6469 73.8364 57.1977 74.2781C56.3173 73.0413 55.2055 71.9612 53.9017 71.0981C54.4813 70.0072 54.8113 68.7641 54.8113 67.445V64.3202C54.8113 60.0126 51.3068 56.5081 46.9993 56.5081C42.6917 56.5081 39.1872 60.0126 39.1872 64.3202V67.445C39.1872 68.7641 39.517 70.007 40.0968 71.0979C38.7929 71.9608 37.6809 73.0408 36.8005 74.2777C36.3513 73.836 35.8654 73.4333 35.3473 73.0744C35.8043 72.1515 36.0624 71.1132 36.0624 70.0155V67.3369C36.0624 63.5216 32.9585 60.4177 29.1431 60.4177C26.1712 60.4177 23.6314 62.3014 22.6536 64.9373C17.9354 59.7306 15.1742 53.3978 14.3839 46.8718C15.587 46.7388 16.4458 46.3826 17.0728 46.1214C17.9567 45.7531 17.9565 45.7533 18.5704 46.2609C18.7498 46.4093 19.0262 46.7104 19.2935 47.0016C20.2809 48.0774 21.6152 49.531 23.4023 49.531C23.4943 49.531 23.5879 49.5271 23.6825 49.5191C24.8789 49.4182 25.9372 48.6692 26.8274 47.2927C27.8647 45.6892 26.9413 43.8365 26.1993 42.348C25.8219 41.5904 25.1902 40.3226 25.371 39.9248C25.4261 39.8041 25.7202 39.5533 26.4706 39.3288C26.6751 39.4947 26.9949 39.8483 27.2202 40.0972C28.0914 41.0601 29.2846 42.3788 31.1106 42.4355C32.2581 42.4695 35.0737 42.3558 36.4381 40.5209C36.9672 39.8092 37.4692 38.5768 36.8559 36.7467C35.9097 33.9228 33.7494 32.6888 31.2328 31.4758C30.7264 31.2316 30.0615 31.016 29.3574 30.7877C28.5862 30.5374 27.0109 30.0265 26.6121 29.6446C26.0229 27.6371 25.5289 26.5793 24.8619 25.8897C23.9717 24.9693 22.9478 24.9312 22.2002 24.9033C21.5863 24.8805 20.9109 24.8546 19.9275 24.3893C20.824 23.09 21.8243 21.8382 22.9302 20.6458C23.517 20.013 23.4798 19.0245 22.8472 18.4376C22.2143 17.8508 21.226 17.888 20.639 18.5206C14.3045 25.35 10.9066 34.2498 11.0711 43.5804C11.236 52.9355 14.9714 61.7325 21.5893 68.3504C21.7937 68.5548 22.0063 68.7613 22.2241 68.9684V70.0158C22.2241 71.1121 22.4814 72.1491 22.9373 73.0713C19.9858 75.1013 18.2065 78.4263 18.2065 82.0686V85.438C18.2065 86.3008 18.9062 87.0005 19.7689 87.0005H36.0624H57.9361H74.2301C75.0928 87.0005 75.7925 86.3008 75.7925 85.438V82.0686C75.7925 78.427 74.0129 75.1011 71.0615 73.0708ZM77.3836 40.8365C77.3679 40.8267 77.3347 40.8031 77.2847 40.7534C76.6274 40.0958 75.7548 39.8891 74.8905 40.1856C74.3816 40.3601 73.9805 40.6665 73.5926 40.9627C73.2678 41.211 72.8666 41.5202 72.6767 41.4835C72.5986 41.4682 71.8766 41.2712 70.5867 39.0813C68.906 36.2275 67.2108 35.8126 66.0854 35.9646C65.2299 36.081 63.6816 36.6997 62.9216 39.5355C62.3515 41.6635 61.1811 42.2971 60.7977 42.3236C60.7855 42.2727 60.7738 42.193 60.7738 42.0824C60.7738 38.9105 60.0087 37.9087 58.8414 36.7425C58.2407 36.1422 57.6196 35.5218 56.9442 33.8557C56.8925 33.7283 56.8242 33.6082 56.7412 33.4986C55.6839 32.1045 54.2968 32.2142 53.468 32.2801C52.7225 32.3387 52.4144 32.3634 51.8815 31.7741C49.6596 29.317 47.9542 29.3034 46.5307 29.4831C46.4484 29.4934 46.3496 29.5059 46.2649 29.514C46.2515 29.0398 46.3504 28.2328 46.6626 27.7555C46.7424 27.6337 46.8149 27.5668 46.8779 27.5569C51.4574 26.8451 51.9135 24.8438 51.9994 22.6799C52.0221 22.1104 52.0416 21.6187 52.2299 21.1668C52.6583 20.1388 52.6944 19.2043 52.3369 18.39C51.7412 17.0324 50.3292 16.5187 48.9638 16.0221C47.7127 15.5672 46.4188 15.0966 45.8614 14.0746C45.8303 14.0174 45.8075 13.9705 45.791 13.9333C45.8196 13.8948 45.8512 13.8532 45.8784 13.8176C46.2215 13.367 46.7958 12.6128 46.7733 11.358C46.7641 10.8437 46.6457 10.4309 46.5154 10.0947C55.2027 9.94779 63.7453 13.2842 70.2001 19.7391C75.814 25.353 78.9637 32.512 79.6504 39.8598C79.1531 40.0137 78.7092 40.2415 78.345 40.4293C78.0513 40.5806 77.5653 40.831 77.3836 40.8365ZM18.2703 27.0545C19.9952 27.9472 21.2204 27.9935 22.0838 28.0255C22.2702 28.0325 22.5205 28.0418 22.6191 28.0639C22.7133 28.1564 23.0581 28.6089 23.6435 30.6263C24.1537 32.3843 26.406 33.1149 28.3931 33.7596C28.967 33.9455 29.5602 34.1381 29.8757 34.2902C32.5548 35.5816 33.4183 36.323 33.8928 37.7392C33.9947 38.0432 34.0841 38.4495 33.9302 38.6562C33.6628 39.0157 32.6448 39.3544 31.2075 39.3118C30.7099 39.2961 30.0868 38.6077 29.5371 38.0001C28.7017 37.0766 27.5568 35.8109 25.9076 36.2416C24.156 36.6978 23.0501 37.4794 22.5264 38.6309C21.7291 40.3837 22.657 42.2453 23.4023 43.7412C23.6929 44.3243 24.1724 45.2866 24.1684 45.6484C23.7714 46.2462 23.4886 46.3992 23.4192 46.4051C23.0156 46.4334 22.0213 45.3522 21.5952 44.8882C21.2409 44.5021 20.9064 44.1376 20.5615 43.8524C18.4945 42.1432 17.0392 42.7491 15.8706 43.2367C15.3671 43.4465 14.8512 43.6609 14.1561 43.7534C14.0133 38.014 15.3804 32.2403 18.2703 27.0545ZM61.0611 67.3369C61.0611 65.2447 62.7634 63.5426 64.8556 63.5426C66.9478 63.5426 68.6499 65.2448 68.6499 67.3369V68.2904V68.292V70.0153C68.6499 72.1076 66.9477 73.8096 64.8556 73.8096C62.7632 73.8096 61.0611 72.1074 61.0611 70.0153V67.3369ZM42.312 64.32C42.312 61.7355 44.4147 59.6328 46.9993 59.6328C49.5838 59.6328 51.6865 61.7355 51.6865 64.32V67.4448C51.6865 70.0294 49.5838 72.1321 46.9993 72.1321C44.4147 72.1321 42.312 70.0294 42.312 67.4448V64.32ZM25.3486 67.3369C25.3486 65.2447 27.0509 63.5426 29.1429 63.5426C31.2353 63.5426 32.9374 65.2448 32.9374 67.3369V70.0155C32.9374 72.1077 31.2352 73.8098 29.1429 73.8098C27.0507 73.8098 25.3486 72.1076 25.3486 70.0155V67.3369ZM21.331 82.0681C21.331 79.3811 22.6906 76.9346 24.93 75.4988C26.0978 76.3981 27.5585 76.9346 29.1429 76.9346C30.7253 76.9346 32.1845 76.3995 33.3514 75.5022C34.0734 75.968 34.715 76.5492 35.2515 77.2232C34.7612 78.5702 34.5 80.0151 34.5 81.5064V83.8752H21.331V82.0681ZM37.6248 81.5064C37.6248 80.1968 37.8948 78.9351 38.3943 77.7825C38.4355 77.7086 38.4694 77.6315 38.498 77.5524C39.2633 75.9108 40.5028 74.5065 42.1016 73.5247C43.4424 74.6068 45.1459 75.2568 46.9993 75.2568C48.8524 75.2568 50.5559 74.6069 51.8966 73.5248C53.4966 74.5074 54.7369 75.9136 55.5021 77.5571C55.5302 77.6338 55.563 77.7088 55.603 77.7807C56.1033 78.9339 56.3736 80.1962 56.3736 81.5064V83.8752H37.6246V81.5064H37.6248ZM72.6677 83.8752H59.4986V81.5064C59.4986 80.0154 59.2372 78.5706 58.7467 77.2235C59.2833 76.5493 59.9248 75.968 60.6469 75.502C61.8139 76.3992 63.273 76.9345 64.8556 76.9345C66.44 76.9345 67.9007 76.3979 69.0685 75.4986C71.3079 76.9345 72.6677 79.382 72.6677 82.0679V83.8752Z" fill="#002452"/>
<path d="M27.0602 16.4976C27.923 16.4976 28.6226 15.798 28.6226 14.9352C28.6226 14.0725 27.923 13.3728 27.0602 13.3728H27.0591C26.1963 13.3728 25.4973 14.0725 25.4973 14.9352C25.4973 15.798 26.1974 16.4976 27.0602 16.4976Z" fill="#002452"/>
</g>
<defs>
<clipPath id="clip0">
<rect width="80" height="80" fill="white" transform="translate(7 7)"/>
</clipPath>
</defs>
</svg>
