<svg width="94" height="94" viewBox="0 0 94 94" fill="none" xmlns="http://www.w3.org/2000/svg">
<g clip-path="url(#clip0)">
<path d="M87 47C87 24.9445 69.0555 7 47 7C40.0852 7 33.3484 8.79097 27.3755 12.1613H22.4839V7H14.7419V23.3703C9.68387 30.2606 7 38.4155 7 47C7 69.0568 24.9445 87 47 87C51.9148 87 56.7123 86.1161 61.2606 84.3794C63.8568 86.0297 66.9277 87 70.2258 87C74.249 87 78.1406 85.5536 81.1832 82.9277L79.4968 80.9742C76.9226 83.1961 73.631 84.4193 70.2258 84.4193C62.4 84.4193 56.0323 78.0516 56.0323 70.2258C56.0323 62.4 62.4 56.0323 70.2258 56.0323C78.0516 56.0323 84.4193 62.4 84.4193 70.2258C84.4193 73.4968 83.3381 76.5716 81.2903 79.1174L83.3019 80.7355C85.6864 77.769 87 74.0374 87 70.2258C87 66.9252 86.0284 63.8542 84.3768 61.2568C86.1123 56.7071 87 51.9148 87 47ZM27.6452 19.9032H30.2258V22.4839V37.9677H27.6452V19.9032ZM22.4839 14.7419H25.0645V17.3226V37.9677H22.4839V14.7419ZM17.3226 9.58065H19.9032V12.1613V37.9677H17.3226V9.58065ZM45.7097 84.3871C26.1019 83.7174 10.2826 67.8981 9.6129 48.2903H45.7097V84.3871ZM45.7097 45.7097H9.63226C9.84258 39.4284 11.5871 33.4258 14.7419 28.0748V40.5484H19.9032H22.4839H25.0645H27.6452H30.2258H32.8064H35.3871H37.9677H43.129V27.6452H37.9677V22.4839H32.8064V17.3226H27.6452V14.9897C33.1045 11.6813 39.3084 9.84516 45.7097 9.62581V45.7097ZM32.8064 37.9677V25.0645H35.3871V27.6452V37.9677H32.8064ZM37.9677 37.9677V30.2258H40.5484V37.9677H37.9677ZM84.3871 45.7097H73.3406L82.8297 36.2206C83.7406 39.2413 84.2748 42.4219 84.3871 45.7097ZM77.8852 25.9032L63.4735 40.3148L65.2981 42.1394L79.2981 28.1394C80.2993 29.8477 81.1677 31.6413 81.8929 33.5084L69.6916 45.7097H61.7277L63.3961 44.0413L61.5716 42.2168L58.0787 45.7097H50.1148L74.3381 21.4865C75.6258 22.8671 76.8142 24.3406 77.8852 25.9032ZM48.2903 9.6129C51.5781 9.72516 54.7587 10.2594 57.7794 11.1703L48.2903 20.6594V9.6129ZM48.2903 35.9213L63.9716 20.24L62.1471 18.4155L48.2903 32.2723V24.3084L60.4916 12.1071C62.3587 12.831 64.1523 13.6994 65.8606 14.7019L63.7819 16.7806L65.6064 18.6052L68.0968 16.1148C69.6594 17.1858 71.1329 18.3729 72.5135 19.6619L48.2903 43.8852V35.9213ZM70.2258 53.4516C60.9768 53.4516 53.4516 60.9768 53.4516 70.2258C53.4516 75.0787 55.5355 79.4426 58.84 82.5084C55.44 83.6426 51.9032 84.2684 48.2903 84.3897V48.2903H84.3897C84.2684 51.9019 83.6374 55.4361 82.5045 58.8361C79.4387 55.5329 75.0761 53.4516 70.2258 53.4516Z" fill="#002452"/>
<path d="M38.3514 53.8292L22.8674 69.3132L24.6922 71.138L40.1762 55.654L38.3514 53.8292Z" fill="black"/>
<path d="M36.6774 63.7742C34.5432 63.7742 32.8064 65.5109 32.8064 67.6451C32.8064 69.7793 34.5432 71.5161 36.6774 71.5161C38.8116 71.5161 40.5483 69.7793 40.5483 67.6451C40.5483 65.5109 38.8116 63.7742 36.6774 63.7742ZM36.6774 68.9355C35.9664 68.9355 35.387 68.3574 35.387 67.6451C35.387 66.9329 35.9664 66.3548 36.6774 66.3548C37.3883 66.3548 37.9677 66.9329 37.9677 67.6451C37.9677 68.3574 37.3883 68.9355 36.6774 68.9355Z" fill="black"/>
<path d="M26.3549 53.4517C24.2207 53.4517 22.4839 55.1884 22.4839 57.3226C22.4839 59.4568 24.2207 61.1936 26.3549 61.1936C28.489 61.1936 30.2258 59.4568 30.2258 57.3226C30.2258 55.1884 28.489 53.4517 26.3549 53.4517ZM26.3549 58.613C25.6439 58.613 25.0645 58.0349 25.0645 57.3226C25.0645 56.6104 25.6439 56.0323 26.3549 56.0323C27.0658 56.0323 27.6452 56.6104 27.6452 57.3226C27.6452 58.0349 27.0658 58.613 26.3549 58.613Z" fill="black"/>
<path d="M69.75 87.5C59.4113 87.5 51 79.0887 51 68.75C51 58.4113 59.4113 50 69.75 50C80.0887 50 88.5 58.4113 88.5 68.75C88.5 79.0887 80.0887 87.5 69.75 87.5ZM69.75 56.25C62.8575 56.25 57.25 61.8575 57.25 68.75C57.25 75.6425 62.8575 81.25 69.75 81.25C76.6425 81.25 82.25 75.6425 82.25 68.75C82.25 61.8575 76.6425 56.25 69.75 56.25Z" fill="#EE0202"/>
<path d="M68.5 72.5C67.81 72.5 67.25 71.94 67.25 71.25H64.75C64.75 73.3175 66.4325 75 68.5 75V77.5H71V75H74.75V71.25C74.75 69.1825 73.0675 67.5 71 67.5H68.5C67.81 67.5 67.25 66.94 67.25 66.25V65H71C71.69 65 72.25 65.56 72.25 66.25H74.75C74.75 64.1825 73.0675 62.5 71 62.5V60H68.5V62.5H64.75V66.25C64.75 68.3175 66.4325 70 68.5 70H71C71.69 70 72.25 70.56 72.25 71.25V72.5H68.5Z" fill="#002452"/>
<path d="M69.75 80.0016C63.5463 80.0016 58.5 74.9553 58.5 68.7516C58.5 66.1591 59.405 63.6266 61.0475 61.6241L59.1138 60.0391C57.1063 62.4878 56 65.5828 56 68.7516C56 76.3328 62.1687 82.5016 69.75 82.5016C72.9188 82.5016 76.0138 81.3953 78.4625 79.3878L76.8775 77.4541C74.875 79.0966 72.3425 80.0016 69.75 80.0016Z" fill="#002452"/>
<path d="M69.7501 55C66.5813 55 63.4863 56.1063 61.0376 58.1138L62.6226 60.0475C64.6251 58.405 67.1576 57.5 69.7501 57.5C75.9538 57.5 81.0001 62.5463 81.0001 68.75C81.0001 71.3425 80.0951 73.875 78.4526 75.8775L80.3863 77.4625C82.3938 75.0138 83.5001 71.9188 83.5001 68.75C83.5001 61.1687 77.3313 55 69.7501 55Z" fill="#002452"/>
</g>
<defs>
<clipPath id="clip0">
<rect width="80" height="80" fill="white" transform="translate(7 7)"/>
</clipPath>
</defs>
</svg>
