<svg width="40" height="40" viewBox="0 0 40 40" fill="none" xmlns="http://www.w3.org/2000/svg">
<rect x="0.5" y="0.5" width="39" height="39" rx="19.5" fill="#F2F4F8"/>
<path d="M20.4343 17.6553C18.2585 17.6553 16.1718 18.5196 14.6333 20.0581C13.0948 21.5966 12.2305 23.6833 12.2305 25.8591V27.3507C12.2305 27.9441 12.4662 28.5132 12.8858 28.9328C13.3054 29.3524 13.8745 29.5881 14.4679 29.5881H26.4007C26.9941 29.5881 27.5632 29.3524 27.9828 28.9328C28.4024 28.5132 28.6382 27.9441 28.6382 27.3507V25.8591C28.6382 23.6833 27.7738 21.5966 26.2353 20.0581C24.6968 18.5196 22.6101 17.6553 20.4343 17.6553Z" fill="#AF3CF5"/>
<path d="M20.4223 16.1694C22.8917 16.1694 24.8935 14.1676 24.8935 11.6982C24.8935 9.22885 22.8917 7.22705 20.4223 7.22705C17.953 7.22705 15.9512 9.22885 15.9512 11.6982C15.9512 14.1676 17.953 16.1694 20.4223 16.1694Z" fill="#FFE0A6"/>
<path fill-rule="evenodd" clip-rule="evenodd" d="M23.5843 14.8618C24.423 14.023 24.8942 12.8855 24.8942 11.6994C24.8942 10.5132 24.423 9.37568 23.5843 8.53696C22.7456 7.69824 21.608 7.22705 20.4219 7.22705V11.6994V16.1717C21.608 16.1717 22.7456 15.7005 23.5843 14.8618Z" fill="#FFD17B"/>
<path d="M28.6211 25.8617V27.3524C28.6211 27.9455 28.3855 28.5143 27.9662 28.9336C27.5468 29.353 26.978 29.5886 26.385 29.5886H20.4219V17.6624C22.5964 17.6624 24.682 18.5263 26.2196 20.0639C27.7573 21.6016 28.6211 23.6871 28.6211 25.8617Z" fill="#810DC8"/>
<path d="M18.9994 27.5997V26.1213C18.9994 25.941 18.8552 25.7968 18.6749 25.7968H17.3047C17.1605 25.7968 17.0523 25.7247 17.0162 25.5805C16.9441 25.4002 16.872 25.2559 16.7999 25.0756C16.7278 24.9675 16.7638 24.8232 16.872 24.7151L17.8456 23.7776C17.9537 23.6694 17.9537 23.453 17.8456 23.3449L16.7999 22.2992C16.6917 22.191 16.4754 22.191 16.3672 22.2992L15.3936 23.2006C15.2855 23.3088 15.1412 23.3088 15.0331 23.2728C14.8528 23.2006 14.7085 23.1285 14.5282 23.0564C14.384 23.0204 14.3119 22.8761 14.3119 22.768V21.3978C14.3119 21.2175 14.1677 21.0732 13.9874 21.0732H12.509C12.3287 21.0732 12.1845 21.2175 12.1845 21.3978V22.7319C12.1845 22.8761 12.1124 22.9843 11.9681 23.0204C11.7879 23.0925 11.6076 23.1646 11.4633 23.2367C11.3552 23.3088 11.2109 23.2728 11.1028 23.1646L10.1292 22.2271C9.98498 22.1189 9.80469 22.1189 9.66046 22.2271L8.61478 23.3088C8.50661 23.417 8.50661 23.5973 8.61478 23.7415L9.58834 24.679C9.69651 24.7872 9.69651 24.9314 9.66046 25.0396C9.58834 25.2199 9.51623 25.3641 9.44411 25.5444C9.40805 25.6886 9.26382 25.7607 9.15565 25.7607H7.78546C7.60517 25.7607 7.46094 25.905 7.46094 26.0853V27.5636C7.46094 27.7439 7.60517 27.8881 7.78546 27.8881H9.15565C9.29988 27.8881 9.40805 27.9603 9.44411 28.1045C9.48017 28.2848 9.55228 28.4651 9.6244 28.6093C9.69651 28.7175 9.66046 28.8617 9.55228 28.9699L8.57873 29.9074C8.47055 30.0155 8.47055 30.2319 8.57873 30.3401L9.6244 31.3857C9.73257 31.4939 9.94892 31.4939 10.0571 31.3857L11.0306 30.4482C11.1388 30.3401 11.2831 30.3401 11.3912 30.3761C11.5715 30.4482 11.7157 30.5204 11.896 30.5925C12.0403 30.6285 12.1124 30.7728 12.1124 30.8809V32.2151C12.1124 32.3954 12.2566 32.5396 12.4369 32.5396H13.9153C14.0956 32.5396 14.2398 32.3954 14.2398 32.2151V30.8809C14.2398 30.7367 14.3119 30.6285 14.4561 30.5925C14.6364 30.5204 14.8167 30.4482 14.9609 30.3761C15.0691 30.304 15.2133 30.3401 15.3215 30.4482L16.2951 31.3857C16.4032 31.4939 16.6196 31.4939 16.7278 31.3857L17.7734 30.3401C17.8816 30.2319 17.8816 30.0155 17.7734 29.9074L16.872 29.0059C16.7638 28.8978 16.7638 28.7535 16.7999 28.6454C16.872 28.5011 16.9441 28.3208 17.0162 28.1405C17.0523 27.9963 17.1965 27.9242 17.3047 27.9242H18.6749C18.8552 27.8881 18.9994 27.7439 18.9994 27.5997Z" fill="#44433F"/>
<path d="M13.2296 29.1502C14.5041 29.1502 15.5373 28.117 15.5373 26.8425C15.5373 25.568 14.5041 24.5348 13.2296 24.5348C11.9551 24.5348 10.9219 25.568 10.9219 26.8425C10.9219 28.117 11.9551 29.1502 13.2296 29.1502Z" fill="#FFDA2D"/>
<rect x="0.5" y="0.5" width="39" height="39" rx="19.5" stroke="#DEDEDE"/>
</svg>
