<svg width="40" height="40" viewBox="0 0 40 40" fill="none" xmlns="http://www.w3.org/2000/svg">
<rect x="0.5" y="0.5" width="39" height="39" rx="19.5" fill="#F2F4F8"/>
<path d="M20 19.1875C17.6296 19.1875 15.3563 20.1291 13.6802 21.8052C12.0041 23.4813 11.0625 25.7546 11.0625 28.125V29.75C11.0625 30.3965 11.3193 31.0165 11.7764 31.4736C12.2335 31.9307 12.8535 32.1875 13.5 32.1875H26.5C27.1465 32.1875 27.7665 31.9307 28.2236 31.4736C28.6807 31.0165 28.9375 30.3965 28.9375 29.75V28.125C28.9375 25.7546 27.9959 23.4813 26.3198 21.8052C24.6437 20.1291 22.3704 19.1875 20 19.1875Z" fill="#08D0A6"/>
<path d="M20 17.5625C22.6924 17.5625 24.875 15.3799 24.875 12.6875C24.875 9.99511 22.6924 7.8125 20 7.8125C17.3076 7.8125 15.125 9.99511 15.125 12.6875C15.125 15.3799 17.3076 17.5625 20 17.5625Z" fill="#FFE0A6"/>
<path fill-rule="evenodd" clip-rule="evenodd" d="M23.4471 16.1346C24.3614 15.2204 24.875 13.9804 24.875 12.6875C24.875 11.3946 24.3614 10.1546 23.4471 9.24035C22.5329 8.32611 21.2929 7.8125 20 7.8125V12.6875V17.5625C21.2929 17.5625 22.5329 17.0489 23.4471 16.1346Z" fill="#FFD17B"/>
<path d="M28.9375 28.125V29.75C28.9375 30.3965 28.6807 31.0165 28.2236 31.4736C27.7665 31.9307 27.1465 32.1875 26.5 32.1875H20V19.1875C22.3704 19.1875 24.6437 20.1291 26.3198 21.8052C27.9959 23.4813 28.9375 25.7546 28.9375 28.125Z" fill="#0DA888"/>
<rect x="0.5" y="0.5" width="39" height="39" rx="19.5" stroke="#DEDEDE"/>
</svg>
