<svg width="40" height="40" viewBox="0 0 40 40" fill="none" xmlns="http://www.w3.org/2000/svg">
<rect x="0.5" y="0.5" width="39" height="39" rx="19.5" fill="#F2F4F8"/>
<path d="M23.732 22.426H16.3789V29.2539H23.732V22.426Z" fill="#FFC107"/>
<path d="M20.0541 25.0527C24.4052 25.0527 27.9325 21.5254 27.9325 17.1744C27.9325 12.8233 24.4052 9.29602 20.0541 9.29602C15.703 9.29602 12.1758 12.8233 12.1758 17.1744C12.1758 21.5254 15.703 25.0527 20.0541 25.0527Z" fill="#FFC107"/>
<path d="M21.3703 19.801V27.1541M18.7441 19.801V27.1541V19.801Z" stroke="#E9EDED"/>
<path d="M22.6839 27.678H17.4316V32.9302H22.6839V27.678Z" fill="#303030"/>
<path d="M20.0506 9.29651C22.1401 9.29651 24.1439 10.1266 25.6214 11.604C27.0989 13.0815 27.9289 15.0854 27.9289 17.1748C27.9279 18.6077 27.5361 20.0132 26.7958 21.24C26.0554 22.4668 24.9944 23.4684 23.7271 24.1371V29.255H22.6767V24.1371C23.944 23.4684 25.0049 22.4668 25.7453 21.24C26.4857 20.0132 26.8775 18.6077 26.8785 17.1748C26.8762 15.1674 26.1077 13.2364 24.7299 11.7764C23.352 10.3164 21.4688 9.43749 19.4648 9.31908C19.6597 9.30429 19.8551 9.29677 20.0506 9.29651Z" fill="#FF9800"/>
<path d="M24.2551 26.6277H15.8516V31.8799H24.2551V26.6277Z" fill="#455A64"/>
<path d="M24.2589 27.1526H15.8553C15.5652 27.1526 15.3301 27.3877 15.3301 27.6778C15.3301 27.9679 15.5652 28.203 15.8553 28.203H24.2589C24.5489 28.203 24.7841 27.9679 24.7841 27.6778C24.7841 27.3877 24.5489 27.1526 24.2589 27.1526Z" fill="#303030"/>
<path d="M24.2589 28.7292H15.8553C15.5652 28.7292 15.3301 28.9644 15.3301 29.2545C15.3301 29.5445 15.5652 29.7797 15.8553 29.7797H24.2589C24.5489 29.7797 24.7841 29.5445 24.7841 29.2545C24.7841 28.9644 24.5489 28.7292 24.2589 28.7292Z" fill="#303030"/>
<path d="M24.2589 30.3049H15.8553C15.5652 30.3049 15.3301 30.5401 15.3301 30.8302C15.3301 31.1202 15.5652 31.3554 15.8553 31.3554H24.2589C24.5489 31.3554 24.7841 31.1202 24.7841 30.8302C24.7841 30.5401 24.5489 30.3049 24.2589 30.3049Z" fill="#303030"/>
<path d="M22.6839 19.5376H17.4316" stroke="#E9EDED"/>
<path d="M13.4902 17.1745C13.4902 16.3124 13.66 15.4587 13.99 14.6621C14.3199 13.8656 14.8035 13.1418 15.4132 12.5322C16.0228 11.9226 16.7466 11.439 17.5431 11.109C18.3396 10.7791 19.1933 10.6093 20.0555 10.6093" stroke="#FFEB3B"/>
<rect x="0.5" y="0.5" width="39" height="39" rx="19.5" stroke="#DEDEDE"/>
</svg>
