<svg width="40" height="40" viewBox="0 0 40 40" fill="none" xmlns="http://www.w3.org/2000/svg">
<rect x="0.5" y="0.5" width="39" height="39" rx="19.5" fill="#F2F4F8"/>
<path d="M25 15.0747C25 16.2686 25.6623 17.3077 26.6357 17.8401L26.6357 27.4328L27.974 28.9302L29.6097 27.2139L28.7175 26.0852L29.6097 25.1867L28.7175 24.2883L29.6097 23.1596L29.6097 17.8401C30.5831 17.3076 31.2454 16.2686 31.2454 15.0747C31.2454 13.338 29.8473 11.9302 28.1227 11.9302C26.3981 11.9302 25 13.338 25 15.0747Z" fill="#AF3CF5"/>
<path d="M29.0149 15.04C29.0149 14.5438 28.6154 14.1416 28.1227 14.1416C27.6299 14.1416 27.2305 14.5438 27.2305 15.04C27.2305 15.5362 27.6299 15.9385 28.1227 15.9385C28.6154 15.9385 29.0149 15.5362 29.0149 15.04Z" fill="#810DC8"/>
<path d="M21.7147 17.856H16.1766H10.9268H10.7429C9.77949 17.856 8.9979 18.6342 9 19.591V27.1972C9 28.1539 9.78369 28.9302 10.7471 28.9302L16.1766 28.9271L21.6102 28.924C22.5736 28.924 23.3552 28.1479 23.3531 27.1911V19.5827C23.3531 18.6632 22.6279 17.9119 21.7147 17.856Z" fill="#FF9811"/>
<path d="M10.9268 17.856H10.7429C9.77948 17.856 8.9979 18.6342 9 19.591V27.1972C9 28.1539 9.78368 28.9302 10.7471 28.9302L16.1765 28.9271V17.856H10.9268Z" fill="#FFDA44"/>
<path d="M20.9649 18.7772C20.4135 18.7772 19.9664 18.3315 19.9664 17.7819C19.9664 15.6529 18.2204 13.9206 16.0745 13.9206C13.9285 13.9206 12.1826 15.6527 12.1826 17.7819C12.1826 18.3315 11.7355 18.7772 11.1841 18.7772C10.6327 18.7772 10.1855 18.3315 10.1855 17.7819C10.1855 14.5554 12.8273 11.9302 16.0743 11.9302C19.3214 11.9302 21.9631 14.5552 21.9631 17.7819C21.9633 18.3315 21.5163 18.7772 20.9649 18.7772Z" fill="#4D28A8"/>
<path d="M16.0745 13.9206C13.9285 13.9206 12.1826 15.6527 12.1826 17.7819C12.1826 18.3315 11.7355 18.7772 11.1841 18.7772C10.6327 18.7772 10.1855 18.3315 10.1855 17.7819C10.1855 14.5554 12.8273 11.9302 16.0743 11.9302" fill="#623ADD"/>
<path d="M16.1202 27.1153C15.5685 27.1153 15.1211 26.6679 15.1211 26.1162V21.7057C15.1211 21.1541 15.5685 20.7067 16.1202 20.7067C16.6718 20.7067 17.1192 21.1541 17.1192 21.7057V26.1162C17.1192 26.668 16.672 27.1153 16.1202 27.1153Z" fill="#4D28A8"/>
<rect x="0.5" y="0.5" width="39" height="39" rx="19.5" stroke="#DEDEDE"/>
</svg>
