<svg width="40" height="40" viewBox="0 0 40 40" fill="none" xmlns="http://www.w3.org/2000/svg">
<rect x="0.5" y="0.5" width="39" height="39" rx="19.5" fill="#F2F4F8"/>
<path d="M19.9993 11.3334C14.1808 11.3334 9.16602 17.1465 9.16602 20C9.16602 22.8535 14.1808 28.6667 19.9993 28.6667C25.8179 28.6667 30.8327 22.8535 30.8327 20C30.8327 17.1465 25.8179 11.3334 19.9993 11.3334Z" fill="#FBBC05"/>
<path d="M16.5182 24.2C16.3169 24.2 16.1179 24.1574 15.9342 24.0752C15.7504 23.9929 15.5862 23.8728 15.4521 23.7227C14.6073 22.7764 14.1012 21.5761 14.0137 20.3106C13.9261 19.0451 14.2619 17.7864 14.9683 16.7328C15.6747 15.6792 16.7115 14.8905 17.9154 14.4909C19.1193 14.0914 20.422 14.1036 21.6182 14.5258C21.9733 14.6523 22.264 14.9141 22.427 15.254C22.59 15.5939 22.6121 15.9845 22.4884 16.3406C20.9803 18.9434 19.3034 21.4447 17.4684 23.8284C17.2082 24.065 16.8698 24.1973 16.5182 24.2Z" fill="white"/>
<path d="M17.5751 23.2501C17.4225 23.2501 17.2716 23.2179 17.1323 23.1555C16.9931 23.0932 16.8685 23.0021 16.7669 22.8883C16.1264 22.1709 15.7428 21.2609 15.6764 20.3015C15.61 19.3421 15.8646 18.3879 16.4001 17.5892C16.9356 16.7904 17.7216 16.1925 18.6344 15.8895C19.5471 15.5866 20.5346 15.5959 21.4415 15.916C21.7107 16.0119 21.9311 16.2103 22.0547 16.468C22.1782 16.7257 22.195 17.0218 22.1012 17.2918C20.9579 19.265 19.6866 21.1613 18.2955 22.9685C18.0982 23.1478 17.8417 23.2481 17.5751 23.2501Z" fill="#3FA9F5"/>
<path d="M13.5004 30.8334C13.3043 30.8332 13.112 30.7798 12.9439 30.679C12.7758 30.5781 12.6382 30.4335 12.5458 30.2606C12.4534 30.0877 12.4097 29.893 12.4193 29.6972C12.4288 29.5014 12.4913 29.3119 12.6001 29.1488L25.6001 9.64878C25.6778 9.52769 25.7788 9.42329 25.8973 9.34166C26.0157 9.26004 26.1493 9.20282 26.2901 9.17336C26.4309 9.14389 26.5762 9.14277 26.7174 9.17005C26.8587 9.19733 26.9931 9.25247 27.1128 9.33225C27.2325 9.41204 27.3351 9.51486 27.4146 9.63473C27.4942 9.7546 27.5491 9.88911 27.5761 10.0304C27.6031 10.1717 27.6016 10.317 27.5719 10.4577C27.5421 10.5985 27.4847 10.7319 27.4028 10.8502L14.4028 30.3502C14.3039 30.4989 14.1697 30.6208 14.0123 30.7051C13.8548 30.7894 13.679 30.8335 13.5004 30.8334Z" fill="#6C6C6C"/>
<rect x="0.5" y="0.5" width="39" height="39" rx="19.5" stroke="#DEDEDE"/>
</svg>
