<svg width="40" height="40" viewBox="0 0 40 40" fill="none" xmlns="http://www.w3.org/2000/svg">
<rect x="0.5" y="0.5" width="39" height="39" rx="19.5" fill="#F2F4F8"/>
<line x1="12.1613" y1="20.8818" x2="25.9517" y2="10.7689" stroke="#4A4F60" stroke-width="1.5" stroke-linecap="round"/>
<line x1="25.9599" y1="29.1382" x2="12.208" y2="19.9702" stroke="#4A4F60" stroke-width="1.5" stroke-linecap="round"/>
<path d="M29.6299 28.7452C29.6299 29.4997 29.4062 30.2373 28.987 30.8647C28.5678 31.492 27.972 31.981 27.2749 32.2698C26.5778 32.5585 25.8107 32.6341 25.0707 32.4869C24.3307 32.3396 23.6509 31.9763 23.1174 31.4428C22.5838 30.9092 22.2205 30.2295 22.0733 29.4895C21.9261 28.7494 22.0017 27.9824 22.2904 27.2853C22.5791 26.5882 23.0681 25.9924 23.6955 25.5732C24.3229 25.154 25.0604 24.9302 25.815 24.9302C26.3167 24.9276 26.814 25.0244 27.278 25.2152C27.7421 25.406 28.1637 25.6869 28.5185 26.0417C28.8733 26.3964 29.1542 26.8181 29.345 27.2821C29.5357 27.7462 29.6326 28.2435 29.6299 28.7452Z" fill="#0A789B"/>
<path d="M25.8158 29.1093C26.3905 29.1093 26.8563 28.6435 26.8563 28.0689C26.8563 27.4943 26.3905 27.0284 25.8158 27.0284C25.2412 27.0284 24.7754 27.4943 24.7754 28.0689C24.7754 28.6435 25.2412 29.1093 25.8158 29.1093Z" fill="#FFD9AA"/>
<path d="M28.2421 31.5404V31.686C27.5592 32.251 26.7007 32.56 25.8144 32.56C24.9281 32.56 24.0696 32.251 23.3867 31.686V31.5404C23.3867 30.8965 23.6425 30.279 24.0978 29.8237C24.5531 29.3684 25.1706 29.1127 25.8144 29.1127C26.4573 29.1158 27.073 29.3725 27.5276 29.8272C27.9823 30.2818 28.239 30.8975 28.2421 31.5404Z" fill="#FCBE00"/>
<path d="M12.5059 24.8125C15.1637 24.8125 17.3184 22.6579 17.3184 20C17.3184 17.3421 15.1637 15.1875 12.5059 15.1875C9.84799 15.1875 7.69336 17.3421 7.69336 20C7.69336 22.6579 9.84799 24.8125 12.5059 24.8125Z" fill="#0A789B"/>
<path d="M12.5059 20.459C13.2307 20.459 13.8184 19.8714 13.8184 19.1465C13.8184 18.4216 13.2307 17.834 12.5059 17.834C11.781 17.834 11.1934 18.4216 11.1934 19.1465C11.1934 19.8714 11.781 20.459 12.5059 20.459Z" fill="#FFD9AA"/>
<path d="M15.5684 23.5264V23.7101C14.7069 24.4227 13.6239 24.8126 12.5059 24.8126C11.3878 24.8126 10.3048 24.4227 9.44336 23.7101V23.5264C9.44336 22.7141 9.76601 21.9352 10.3403 21.3609C10.9147 20.7865 11.6936 20.4639 12.5059 20.4639C13.3169 20.4678 14.0936 20.7917 14.6671 21.3652C15.2405 21.9387 15.5645 22.7153 15.5684 23.5264Z" fill="#5CCE26"/>
<path d="M25.8149 14.5601C27.9219 14.5601 29.6299 12.8521 29.6299 10.7451C29.6299 8.63818 27.9219 6.93018 25.8149 6.93018C23.708 6.93018 22 8.63818 22 10.7451C22 12.8521 23.708 14.5601 25.8149 14.5601Z" fill="#0A789B"/>
<path d="M25.8158 11.0919C26.3904 11.0919 26.8563 10.626 26.8563 10.0514C26.8563 9.47681 26.3904 9.01099 25.8158 9.01099C25.2412 9.01099 24.7754 9.47681 24.7754 10.0514C24.7754 10.626 25.2412 11.0919 25.8158 11.0919Z" fill="#ED456A"/>
<path d="M23.3867 13.686V13.5195C23.3867 12.8756 23.6425 12.2581 24.0978 11.8029C24.5531 11.3476 25.1705 11.0918 25.8144 11.0918C26.4573 11.0949 27.073 11.3517 27.5276 11.8063C27.9822 12.2609 28.239 12.8766 28.2421 13.5195V13.686H23.3867Z" fill="#ED456A"/>
<path d="M25.8158 11.1091C26.3904 11.1091 26.8563 10.6433 26.8563 10.0686C26.8563 9.49402 26.3904 9.0282 25.8158 9.0282C25.2412 9.0282 24.7754 9.49402 24.7754 10.0686C24.7754 10.6433 25.2412 11.1091 25.8158 11.1091Z" fill="#FFD9AA"/>
<path d="M28.2421 13.5406V13.6863C27.5592 14.2512 26.7007 14.5603 25.8144 14.5603C24.9281 14.5603 24.0696 14.2512 23.3867 13.6863V13.5406C23.3867 12.8967 23.6425 12.2792 24.0978 11.824C24.5531 11.3687 25.1705 11.1129 25.8144 11.1129C26.4573 11.116 27.073 11.3728 27.5276 11.8274C27.9822 12.282 28.239 12.8977 28.2421 13.5406Z" fill="#FA5168"/>
<rect x="0.5" y="0.5" width="39" height="39" rx="19.5" stroke="#DEDEDE"/>
</svg>
