<svg width="40" height="40" viewBox="0 0 40 40" fill="none" xmlns="http://www.w3.org/2000/svg">
<rect x="0.5" y="0.5" width="39" height="39" rx="19.5" fill="#F2F4F8"/>
<path d="M27.2114 10.282V28.9927C27.213 29.2518 27.155 29.5079 27.0421 29.7411C27.0064 29.8162 26.9662 29.8891 26.9218 29.9594C26.8763 30.0299 26.8257 30.0969 26.7703 30.1599C26.7169 30.2222 26.6589 30.2803 26.5966 30.3336C26.5415 30.3832 26.4835 30.4293 26.4228 30.4717C26.3282 30.5365 26.2266 30.5903 26.1199 30.6321C26.077 30.6537 26.0322 30.6716 25.9862 30.6856C25.9119 30.7101 25.836 30.7295 25.759 30.7435H25.6254L25.4294 30.7747H14.7375H14.5415H14.4079C14.3309 30.7606 14.255 30.7413 14.1807 30.7168C14.1347 30.7028 14.09 30.6849 14.047 30.6633C13.9403 30.6215 13.8387 30.5677 13.7441 30.5029C13.6834 30.4605 13.6254 30.4143 13.5703 30.3648C13.5081 30.3114 13.45 30.2534 13.3966 30.1911C13.3412 30.1281 13.2906 30.0611 13.2451 29.9906C13.2007 29.9203 13.1606 29.8474 13.1249 29.7723C13.0071 29.5296 12.9491 29.2623 12.9556 28.9927V10.282C12.9556 9.80936 13.1433 9.35611 13.4775 9.02193C13.8117 8.68774 14.2649 8.5 14.7375 8.5H25.4294C25.902 8.5 26.3552 8.68774 26.6894 9.02193C27.0236 9.35611 27.2114 9.80936 27.2114 10.282Z" fill="#0A66C2"/>
<path d="M25.4301 11.1729H14.7383V28.5471H25.4301V11.1729Z" fill="#02B3E4"/>
<path d="M16.9631 10.2817C17.2091 10.2817 17.4086 10.0823 17.4086 9.83624C17.4086 9.5902 17.2091 9.39075 16.9631 9.39075C16.717 9.39075 16.5176 9.5902 16.5176 9.83624C16.5176 10.0823 16.717 10.2817 16.9631 10.2817Z" fill="white"/>
<path d="M23.201 10.2817H19.1916C19.0734 10.2817 18.9601 10.2348 18.8766 10.1513C18.793 10.0677 18.7461 9.95439 18.7461 9.83624C18.7461 9.71809 18.793 9.60478 18.8766 9.52123C18.9601 9.43768 19.0734 9.39075 19.1916 9.39075H23.201C23.3192 9.39075 23.4325 9.43768 23.516 9.52123C23.5996 9.60478 23.6465 9.71809 23.6465 9.83624C23.6465 9.95439 23.5996 10.0677 23.516 10.1513C23.4325 10.2348 23.3192 10.2817 23.201 10.2817Z" fill="white"/>
<path d="M22.3106 19.1917C22.1924 19.1917 22.0791 19.1448 21.9956 19.0613C21.912 18.9777 21.8651 18.8644 21.8651 18.7463V17.4098C21.8651 16.9372 21.6773 16.4839 21.3432 16.1497C21.009 15.8155 20.5557 15.6278 20.0831 15.6278C19.6105 15.6278 19.1573 15.8155 18.8231 16.1497C18.4889 16.4839 18.3011 16.9372 18.3011 17.4098V18.7463C18.3011 18.8644 18.2542 18.9777 18.1707 19.0613C18.0871 19.1448 17.9738 19.1917 17.8556 19.1917C17.7375 19.1917 17.6242 19.1448 17.5406 19.0613C17.4571 18.9777 17.4102 18.8644 17.4102 18.7463V17.4098C17.4102 16.7009 17.6918 16.021 18.193 15.5197C18.6943 15.0184 19.3742 14.7368 20.0831 14.7368C20.792 14.7368 21.4719 15.0184 21.9732 15.5197C22.4745 16.021 22.7561 16.7009 22.7561 17.4098V18.7463C22.7561 18.8644 22.7091 18.9777 22.6256 19.0613C22.542 19.1448 22.4287 19.1917 22.3106 19.1917Z" fill="white"/>
<path d="M22.7564 18.7466H17.4105C16.9184 18.7466 16.5195 19.1455 16.5195 19.6376V23.2015C16.5195 23.6936 16.9184 24.0925 17.4105 24.0925H22.7564C23.2485 24.0925 23.6474 23.6936 23.6474 23.2015V19.6376C23.6474 19.1455 23.2485 18.7466 22.7564 18.7466Z" fill="white"/>
<path d="M19.6371 22.7554C19.5785 22.7557 19.5204 22.7445 19.4661 22.7223C19.4118 22.7001 19.3625 22.6674 19.3208 22.6262L18.4298 21.7352C18.3883 21.6936 18.3554 21.6443 18.3329 21.5901C18.3104 21.5358 18.2988 21.4776 18.2988 21.4189C18.2988 21.3601 18.3104 21.302 18.3329 21.2477C18.3554 21.1934 18.3883 21.1441 18.4298 21.1026C18.4714 21.061 18.5207 21.0281 18.575 21.0056C18.6292 20.9831 18.6874 20.9716 18.7461 20.9716C18.8049 20.9716 18.8631 20.9831 18.9173 21.0056C18.9716 21.0281 19.0209 21.061 19.0624 21.1026L19.6371 21.6817L21.1028 20.2116C21.1867 20.1277 21.3005 20.0806 21.4191 20.0806C21.5377 20.0806 21.6515 20.1277 21.7354 20.2116C21.8193 20.2955 21.8664 20.4092 21.8664 20.5279C21.8664 20.6465 21.8193 20.7603 21.7354 20.8442L19.9534 22.6262C19.9118 22.6674 19.8624 22.7001 19.8082 22.7223C19.7539 22.7445 19.6958 22.7557 19.6371 22.7554Z" fill="#5CCE26"/>
<rect x="0.5" y="0.5" width="39" height="39" rx="19.5" stroke="#DEDEDE"/>
</svg>
