<svg width="40" height="40" viewBox="0 0 40 40" fill="none" xmlns="http://www.w3.org/2000/svg">
<rect x="0.5" y="0.5" width="39" height="39" rx="19.5" fill="#F2F4F8"/>
<path d="M29.5 28.4303L29.5651 25.4281C29.3378 24.0737 28.3954 23.0082 27.1973 22.743L22.869 21.9806C22.4854 21.9095 22.1871 21.4454 22.1824 20.9577L22.0877 18.713H17.9251L17.8256 21.0524C17.8067 21.5117 17.5178 21.8906 17.1342 21.9616L12.858 22.7477C11.6599 23.0129 10.7175 24.0784 10.4902 25.4328L10.5 28.9303C12.9436 28.9256 27.0422 28.4303 29.5 28.4303Z" fill="#FFC455"/>
<path d="M22.87 30.8069L23.8361 22.1171L22.9979 21.9609C22.6143 21.8898 22.3254 21.511 22.3065 21.0516L20.0287 23.6799L17.7509 21.0516C17.7319 21.511 17.4431 21.8898 17.0595 21.9609L16.2402 22.0935L17.5188 30.8117H22.87V30.8069Z" fill="white"/>
<path d="M30.0595 25.8957C30.0595 24.0204 29.1503 23.0354 27.6444 22.6613L23.9033 22.1641L21.3887 30.8112L30.0595 27.9302V25.8957Z" fill="#303030"/>
<path d="M12.5484 22.6618C11.0425 23.0359 10.1332 24.0209 10.1332 25.8962L10.1328 28.7968L18.7709 30.8069L16.3369 22.1124L12.5484 22.6618Z" fill="#303030"/>
<path d="M22.3491 30.9304L23.945 28.1743C24.1439 27.8712 24.3238 27.6723 23.9923 27.213L22.9031 25.6028H24.0823C24.4233 25.6028 24.4706 25.5271 24.4706 25.0535L24.4043 22.4111C24.4043 22.4111 24.3854 22.3164 24.3617 22.2832C24.338 22.2548 24.267 22.2216 24.267 22.2216L23.1778 21.9612L21.1699 30.9304H22.3491Z" fill="#000011"/>
<path d="M19.6658 26.962L19.5 30.8073H20.5703L20.4045 26.9431C20.3951 26.7868 20.4235 26.5405 20.4614 26.4363L20.8686 25.4561L20.0399 23.7323V23.6945L20.0304 23.7134L20.021 23.6945V23.7371L19.1875 25.4561L19.5995 26.46C19.6611 26.6021 19.6705 26.7773 19.6658 26.962Z" fill="#EE0202"/>
<path d="M15.9634 25.5454H17.1425L16.0533 27.1555C15.7219 27.6148 15.8971 27.8137 16.096 28.1168L17.7297 30.8729H18.9278L16.8584 21.9795L15.8213 22.1642C15.8213 22.1642 15.6982 22.1737 15.665 22.2731C15.6556 22.3062 15.6413 22.4104 15.6413 22.4104L15.5703 25.0008C15.5798 25.4696 15.6224 25.5454 15.9634 25.5454Z" fill="#000011"/>
<path d="M22.5833 20.6973C22.4601 20.4084 22.3796 20.4747 22.2044 20.7115L20.0308 23.6807L17.8572 20.7115C17.6819 20.47 17.6014 20.4084 17.4783 20.6973L16.8438 21.9144L18.8043 25.8402C18.9416 26.1148 19.0458 26.0959 19.1689 25.826L20.0261 23.7139L20.8832 25.826C21.0063 26.1006 21.1152 26.1148 21.2478 25.8402L23.2084 21.9144L22.5833 20.6973Z" fill="white"/>
<path d="M23.8757 13.2753L24.1694 13.2942C24.6098 13.4173 25.0881 13.8341 24.9791 14.5065C24.8797 15.1174 24.8276 15.1695 24.7045 15.9272C24.5293 17.0022 23.6484 16.6517 23.6484 16.6517L23.8757 13.2753Z" fill="#FFD17B"/>
<path d="M16.2421 13.3934L15.9485 13.4124C15.5081 13.5355 15.0298 13.9522 15.1387 14.6247C15.2429 15.2356 15.2903 15.2877 15.4134 16.0454C15.5886 17.1203 16.4694 16.7699 16.4694 16.7699L16.2421 13.3934Z" fill="#FFD17B"/>
<path d="M20.024 9.64502L15.8945 9.66396L16 15.4302C16 15.9464 16.1503 17.5298 16.6759 18.259L18.1439 19.9449C18.6317 20.4753 19.4696 20.9302 20 20.9302C20.5304 20.9302 21.3783 20.3711 21.743 20.0017C21.743 20.0017 22.7566 19.0215 23.3959 18.259C23.7842 17.795 24 15.9464 24 15.4302L24.1818 9.66396L20.024 9.64502Z" fill="#FFD17B"/>
<path d="M15.999 15.4302C15.8853 15.236 14.5194 12.4104 14.5004 11.4302C14.4767 10.1184 15.4634 6.43018 20.0001 6.43018H20.5001C23.01 6.43018 25.7841 8.84455 25.5 11.4302C25.3532 12.7372 24.5095 13.8876 24.5 13.9302C24.41 14.4795 23.9901 15.3525 24 14.4302V13.4302C24 12.7767 23.293 10.1508 22.0002 10.4302V11.9302C22.0002 11.9302 21.8979 12.9112 21.5002 12.9302C21.2065 12.9444 20.0002 12.9302 20.0002 12.9302C20.0002 12.9302 20.2369 10.9444 20.0002 10.9302C19.7113 10.9112 19.5002 12.9302 19.5002 12.9302H17.0002C16.0002 13.4302 16.0002 12.9499 16.0002 13.9302H15.999C15.999 14.1007 16.0416 15.4965 15.999 15.4302Z" fill="#303030"/>
<path d="M13.9831 26.567C13.9419 26.4341 13.8324 26.3373 13.7006 26.3172L11.7059 26.0133L10.814 24.1183C10.752 23.9981 10.6302 23.9253 10.5 23.9304V29.9046L12.2841 30.888C12.4553 30.9823 12.6669 30.9133 12.7569 30.7338C12.7927 30.6624 12.8051 30.5806 12.7921 30.5011L12.4513 28.4182L13.8946 26.9433C13.99 26.8457 14.0243 26.6998 13.9831 26.567Z" fill="#FF9800"/>
<path d="M10.1863 24.1172L9.29433 26.0121L7.29965 26.3161C7.22353 26.3277 7.15318 26.3653 7.09948 26.423C6.96446 26.5682 6.96723 26.8006 7.10567 26.9421L8.549 28.417L8.20821 30.4999C8.19522 30.5795 8.20759 30.6613 8.24337 30.7327C8.33333 30.9121 8.54501 30.9811 8.71615 30.8868L10.5003 29.9034V23.9357C10.3758 23.936 10.2542 23.9967 10.1863 24.1172Z" fill="#FFC200"/>
<path d="M24.9756 27.697C24.9168 27.5073 24.7603 27.3689 24.572 27.3402L21.7227 26.906L20.4485 24.199C20.3599 24.0273 20.186 23.9232 20 23.9305V32.465L22.5486 33.8699C22.7931 34.0046 23.0954 33.906 23.2239 33.6497C23.2751 33.5476 23.2927 33.4308 23.2742 33.3172L22.7874 30.3416L24.8491 28.2346C24.9854 28.0952 25.0344 27.8868 24.9756 27.697Z" fill="#FF9800"/>
<path d="M19.5516 24.1978L18.2774 26.9049L15.4281 27.3391C15.3193 27.3557 15.2188 27.4094 15.1421 27.4918C14.9492 27.6992 14.9532 28.0312 15.1509 28.2334L17.2127 30.3404L16.7259 33.316C16.7074 33.4296 16.725 33.5465 16.7761 33.6485C16.9047 33.9049 17.207 34.0034 17.4515 33.8687L20.0001 32.4638V23.9385C19.8223 23.9389 19.6486 24.0256 19.5516 24.1978Z" fill="#FFC200"/>
<path d="M32.9831 26.567C32.9419 26.4341 32.8324 26.3373 32.7006 26.3172L30.7059 26.0133L29.814 24.1183C29.752 23.9981 29.6302 23.9253 29.5 23.9304V29.9046L31.2841 30.888C31.4553 30.9823 31.6669 30.9133 31.7569 30.7338C31.7927 30.6624 31.8051 30.5806 31.7921 30.5011L31.4513 28.4182L32.8946 26.9433C32.99 26.8457 33.0243 26.6998 32.9831 26.567Z" fill="#FF9800"/>
<path d="M29.1863 24.1172L28.2943 26.0121L26.2997 26.3161C26.2235 26.3277 26.1532 26.3653 26.0995 26.423C25.9645 26.5682 25.9672 26.8006 26.1057 26.9421L27.549 28.417L27.2082 30.4999C27.1952 30.5795 27.2076 30.6613 27.2434 30.7327C27.3333 30.9121 27.545 30.9811 27.7161 30.8868L29.5003 29.9034V23.9357C29.3758 23.936 29.2542 23.9967 29.1863 24.1172Z" fill="#FFC200"/>
<rect x="0.5" y="0.5" width="39" height="39" rx="19.5" stroke="#DEDEDE"/>
</svg>
