<svg width="34" height="32" viewBox="0 0 34 32" fill="none" xmlns="http://www.w3.org/2000/svg">
<g clip-path="url(#clip0_6754_31840)" filter="url(#filter0_d_6754_31840)">
<path d="M14.2984 11.7051H4.4668V23.7761H14.2984V11.7051Z" fill="#1BEA87"/>
<path d="M5.50349 11.7051H4V23.7761H5.50349V11.7051Z" fill="#12D87E"/>
<path d="M11.6777 12.7517H10.7767V10.5127C10.7767 9.74354 10.1509 9.11778 9.38179 9.11778C8.61264 9.11778 7.98688 9.74354 7.98688 10.5127V12.7517H7.08594V10.5127C7.08594 9.24676 8.11585 8.2168 9.38184 8.2168C10.6478 8.2168 11.6777 9.24671 11.6777 10.5127V12.7517H11.6777Z" fill="#FFDA00"/>
<path d="M30.0015 11.7285H20.1699V23.7995H30.0015V11.7285Z" fill="#3FA9F5"/>
<path d="M30.0035 11.7285H28.5V23.7995H30.0035V11.7285Z" fill="#008BF2"/>
<path d="M27.3789 12.7742H26.4779V10.5352C26.4779 9.766 25.8522 9.14025 25.083 9.14025C24.3139 9.14025 23.6881 9.766 23.6881 10.5352V12.7742H22.7871V10.5352C22.7871 9.26922 23.817 8.23926 25.083 8.23926C26.3489 8.23926 27.3789 9.26917 27.3789 10.5352V12.7742Z" fill="#FFDA00"/>
<path d="M7.03735 3.30263L6.34961 3.77148L7.31918 5.19373L8.00692 4.72488L7.03735 3.30263Z" fill="#FFDA00"/>
<path d="M5.00208 5.6784L5 6.51074L6.72128 6.51504L6.72336 5.68269L5.00208 5.6784Z" fill="#FFDA00"/>
<path d="M10.0511 3.00224L9.26367 2.73242L8.70569 4.36076L9.4931 4.63058L10.0511 3.00224Z" fill="#FFDA00"/>
<path d="M27.5983 3.80269L26.9434 3.28906L25.8812 4.64355L26.5362 5.15718L27.5983 3.80269Z" fill="#FFDA00"/>
<path d="M24.7237 2.58222L23.9297 2.83203L24.4463 4.47397L25.2403 4.22416L24.7237 2.58222Z" fill="#FFDA00"/>
<path d="M28.7974 6.58214L28.8164 5.75L27.0956 5.71074L27.0766 6.54288L28.7974 6.58214Z" fill="#FFDA00"/>
<path d="M24.8361 5.39941H9.84961V23.7995H24.8361V5.39941Z" fill="#FF6700"/>
<path d="M20.8411 6.99474H19.4677V3.58171C19.4677 2.40927 18.5139 1.45542 17.3415 1.45542C16.169 1.45542 15.2152 2.40927 15.2152 3.58171V6.99479H13.8418V3.58171C13.8418 1.65198 15.4117 0.0820312 17.3415 0.0820312C19.2712 0.0820312 20.8411 1.65198 20.8411 3.58171V6.99474Z" fill="#FFDA00"/>
<path d="M17.0561 23.8048C17.0561 23.8048 9.74593 24.0604 9.74593 23.8048C9.74593 23.5492 9.73438 5.39941 9.73438 5.39941L13.5536 5.44118L12.0974 14.0424L17.0561 23.8048Z" fill="#E84D00"/>
<path d="M11.4324 5.39941H9.14062V23.7995H11.4324V5.39941Z" fill="#D84200"/>
</g>
<defs>
<filter id="filter0_d_6754_31840" x="0" y="0.0820312" width="34" height="31.8369" filterUnits="userSpaceOnUse" color-interpolation-filters="sRGB">
<feFlood flood-opacity="0" result="BackgroundImageFix"/>
<feColorMatrix in="SourceAlpha" type="matrix" values="0 0 0 0 0 0 0 0 0 0 0 0 0 0 0 0 0 0 127 0" result="hardAlpha"/>
<feOffset dy="4"/>
<feGaussianBlur stdDeviation="2"/>
<feComposite in2="hardAlpha" operator="out"/>
<feColorMatrix type="matrix" values="0 0 0 0 0 0 0 0 0 0 0 0 0 0 0 0 0 0 0.25 0"/>
<feBlend mode="normal" in2="BackgroundImageFix" result="effect1_dropShadow_6754_31840"/>
<feBlend mode="normal" in="SourceGraphic" in2="effect1_dropShadow_6754_31840" result="shape"/>
</filter>
<clipPath id="clip0_6754_31840">
<rect width="26" height="23.8367" fill="white" transform="translate(4 0.0820312)"/>
</clipPath>
</defs>
</svg>
