<svg width="40" height="40" viewBox="0 0 40 40" fill="none" xmlns="http://www.w3.org/2000/svg">
<rect x="0.5" y="0.5" width="39" height="39" rx="19.5" fill="#F2F4F8"/>
<g clip-path="url(#clip0_6754_31838)" filter="url(#filter0_d_6754_31838)">
<path d="M17.2984 19.7051H7.4668V31.7761H17.2984V19.7051Z" fill="#1BEA87"/>
<path d="M8.50349 19.7051H7V31.7761H8.50349V19.7051Z" fill="#12D87E"/>
<path d="M14.6777 20.7517H13.7767V18.5127C13.7767 17.7435 13.1509 17.1178 12.3818 17.1178C11.6126 17.1178 10.9869 17.7435 10.9869 18.5127V20.7517H10.0859V18.5127C10.0859 17.2468 11.1159 16.2168 12.3818 16.2168C13.6478 16.2168 14.6777 17.2467 14.6777 18.5127V20.7517H14.6777Z" fill="#FFDA00"/>
<path d="M33.0015 19.7285H23.1699V31.7995H33.0015V19.7285Z" fill="#3FA9F5"/>
<path d="M33.0035 19.7285H31.5V31.7995H33.0035V19.7285Z" fill="#008BF2"/>
<path d="M30.3789 20.7742H29.4779V18.5352C29.4779 17.766 28.8522 17.1402 28.083 17.1402C27.3139 17.1402 26.6881 17.766 26.6881 18.5352V20.7742H25.7871V18.5352C25.7871 17.2692 26.817 16.2393 28.083 16.2393C29.3489 16.2393 30.3789 17.2692 30.3789 18.5352V20.7742Z" fill="#FFDA00"/>
<path d="M10.0374 11.3026L9.34961 11.7715L10.3192 13.1937L11.0069 12.7249L10.0374 11.3026Z" fill="#FFDA00"/>
<path d="M8.00208 13.6784L8 14.5107L9.72128 14.515L9.72336 13.6827L8.00208 13.6784Z" fill="#FFDA00"/>
<path d="M13.0511 11.0022L12.2637 10.7324L11.7057 12.3608L12.4931 12.6306L13.0511 11.0022Z" fill="#FFDA00"/>
<path d="M30.5983 11.8027L29.9434 11.2891L28.8812 12.6436L29.5362 13.1572L30.5983 11.8027Z" fill="#FFDA00"/>
<path d="M27.7237 10.5822L26.9297 10.832L27.4463 12.474L28.2403 12.2242L27.7237 10.5822Z" fill="#FFDA00"/>
<path d="M31.7974 14.5821L31.8164 13.75L30.0956 13.7107L30.0766 14.5429L31.7974 14.5821Z" fill="#FFDA00"/>
<path d="M27.8361 13.3994H12.8496V31.7995H27.8361V13.3994Z" fill="#FF6700"/>
<path d="M23.8411 14.9947H22.4677V11.5817C22.4677 10.4093 21.5139 9.45542 20.3415 9.45542C19.169 9.45542 18.2152 10.4093 18.2152 11.5817V14.9948H16.8418V11.5817C16.8418 9.65198 18.4117 8.08203 20.3415 8.08203C22.2712 8.08203 23.8411 9.65198 23.8411 11.5817V14.9947Z" fill="#FFDA00"/>
<path d="M20.0561 31.8048C20.0561 31.8048 12.7459 32.0604 12.7459 31.8048C12.7459 31.5492 12.7344 13.3994 12.7344 13.3994L16.5536 13.4412L15.0974 22.0424L20.0561 31.8048Z" fill="#E84D00"/>
<path d="M14.4324 13.3994H12.1406V31.7995H14.4324V13.3994Z" fill="#D84200"/>
</g>
<rect x="0.5" y="0.5" width="39" height="39" rx="19.5" stroke="#DEDEDE"/>
<defs>
<filter id="filter0_d_6754_31838" x="3" y="8.08203" width="34" height="31.8369" filterUnits="userSpaceOnUse" color-interpolation-filters="sRGB">
<feFlood flood-opacity="0" result="BackgroundImageFix"/>
<feColorMatrix in="SourceAlpha" type="matrix" values="0 0 0 0 0 0 0 0 0 0 0 0 0 0 0 0 0 0 127 0" result="hardAlpha"/>
<feOffset dy="4"/>
<feGaussianBlur stdDeviation="2"/>
<feComposite in2="hardAlpha" operator="out"/>
<feColorMatrix type="matrix" values="0 0 0 0 0 0 0 0 0 0 0 0 0 0 0 0 0 0 0.25 0"/>
<feBlend mode="normal" in2="BackgroundImageFix" result="effect1_dropShadow_6754_31838"/>
<feBlend mode="normal" in="SourceGraphic" in2="effect1_dropShadow_6754_31838" result="shape"/>
</filter>
<clipPath id="clip0_6754_31838">
<rect width="26" height="23.8367" fill="white" transform="translate(7 8.08203)"/>
</clipPath>
</defs>
</svg>
