<svg width="27" height="24" viewBox="0 0 27 24" fill="none" xmlns="http://www.w3.org/2000/svg">
<g clip-path="url(#clip0)">
<path d="M25.1995 2.96793H2.08592C1.36778 2.96793 0.785645 3.51126 0.785645 4.18152V19.8167C0.785645 20.4869 1.36778 21.0303 2.08592 21.0303H25.1994C25.9175 21.0303 26.4997 20.4869 26.4997 19.8167V4.18152C26.4997 3.5113 25.9176 2.96793 25.1995 2.96793Z" fill="#FE255F"/>
<path d="M26.4999 19.8173V4.1825C26.4999 3.5119 25.9178 2.96862 25.1993 2.96862H2.08567C1.36773 2.96862 0.785645 3.51195 0.785645 4.18254V6.09383C2.08738 5.82823 3.43869 5.68831 4.8255 5.68831C14.4143 5.68831 22.3288 12.3789 23.5021 21.0312H25.1993C25.9178 21.0312 26.4999 20.4879 26.4999 19.8173Z" fill="#E01152"/>
<path d="M26.4998 19.8171V4.1822C26.4998 3.5117 25.918 2.96861 25.1996 2.96861H10.7922C18.6447 4.21197 24.6248 10.5913 24.6248 18.2747C24.6248 19.2152 24.5351 20.1363 24.3634 21.0308H25.1995C25.918 21.0308 26.4998 20.4877 26.4998 19.8171Z" fill="#C40047"/>
<path d="M16.3758 18.2614H7.54815C6.72876 18.2614 6.06445 18.8814 6.06445 19.6462C6.06445 20.411 6.72871 21.031 7.54815 21.031H16.3758C17.1952 21.031 17.8595 20.411 17.8595 19.6462C17.8594 18.8815 17.1952 18.2614 16.3758 18.2614Z" fill="#FC709B"/>
<path d="M11.0251 21.031H9.51201C8.69262 21.031 8.02832 20.411 8.02832 19.6462C8.02832 18.8815 8.69257 18.2614 9.51201 18.2614H11.0251C11.8445 18.2614 12.5088 18.8814 12.5088 19.6462C12.5088 20.411 11.8445 21.031 11.0251 21.031Z" fill="#F7A6C1"/>
<path d="M11.7894 8.32608L16.3258 11.0101C17.1036 11.4703 17.1036 12.5295 16.3258 12.9896L11.7894 15.6736C10.9534 16.1683 9.86157 15.6077 9.86157 14.6839V9.31585C9.86152 8.39204 10.9534 7.83151 11.7894 8.32608Z" fill="#F1EEE0"/>
<path d="M5.46285 16.4859H3.17679C2.89941 16.4859 2.67456 16.6958 2.67456 16.9547V18.2419C2.67456 18.5008 2.89941 18.7107 3.17679 18.7107H5.4629C5.74029 18.7107 5.96514 18.5008 5.96514 18.2419V16.9547C5.96509 16.6958 5.74024 16.4859 5.46285 16.4859Z" fill="#595751"/>
<path d="M5.96518 18.2419V16.9548C5.96518 16.696 5.74018 16.486 5.46295 16.486H3.52734C4.26663 16.9219 4.75731 17.6916 4.75731 18.5682C4.75731 18.616 4.7558 18.6638 4.75279 18.7107H5.46295C5.74018 18.7107 5.96518 18.5012 5.96518 18.2419Z" fill="#44433F"/>
<path d="M5.46285 12.7554H3.17679C2.89941 12.7554 2.67456 12.9653 2.67456 13.2242V14.5115C2.67456 14.7704 2.89941 14.9802 3.17679 14.9802H5.4629C5.74029 14.9802 5.96514 14.7704 5.96514 14.5115V13.2242C5.96509 12.9653 5.74024 12.7554 5.46285 12.7554Z" fill="#595751"/>
<path d="M5.96518 14.5115V13.2243C5.96518 12.9655 5.74018 12.7555 5.46295 12.7555H3.52734C4.26663 13.1915 4.75731 13.9612 4.75731 14.8377C4.75731 14.8855 4.7558 14.9333 4.75279 14.9802H5.46295C5.74018 14.9802 5.96518 14.7707 5.96518 14.5115Z" fill="#44433F"/>
<path d="M5.46285 9.02517H3.17679C2.89941 9.02517 2.67456 9.23503 2.67456 9.49392V10.7812C2.67456 11.0401 2.89941 11.25 3.17679 11.25H5.4629C5.74029 11.25 5.96514 11.0401 5.96514 10.7812V9.49397C5.96509 9.23508 5.74024 9.02517 5.46285 9.02517Z" fill="#595751"/>
<path d="M5.96518 10.781V9.49382C5.96518 9.23507 5.74018 9.02507 5.46295 9.02507H3.52734C4.26663 9.461 4.75731 10.2307 4.75731 11.1073C4.75731 11.1551 4.7558 11.2029 4.75279 11.2498H5.46295C5.74018 11.2498 5.96518 11.0402 5.96518 10.781Z" fill="#44433F"/>
<path d="M5.46285 5.29499H3.17679C2.89941 5.29499 2.67456 5.50485 2.67456 5.76374V7.05103C2.67456 7.30992 2.89941 7.51978 3.17679 7.51978H5.4629C5.74029 7.51978 5.96514 7.30992 5.96514 7.05103V5.76374C5.96509 5.50485 5.74024 5.29499 5.46285 5.29499Z" fill="#595751"/>
<path d="M5.96518 7.05103V5.76384C5.96518 5.50509 5.74018 5.29509 5.46295 5.29509H3.52734C4.26663 5.73103 4.75731 6.50071 4.75731 7.37728C4.75731 7.42509 4.7558 7.4729 4.75279 7.51978H5.46295C5.74018 7.51978 5.96518 7.31024 5.96518 7.05103Z" fill="#44433F"/>
<path d="M24.1084 16.4859H21.8223C21.5449 16.4859 21.3201 16.6958 21.3201 16.9547V18.2419C21.3201 18.5008 21.5449 18.7107 21.8223 18.7107H24.1084C24.3858 18.7107 24.6106 18.5008 24.6106 18.2419V16.9547C24.6106 16.6958 24.3858 16.4859 24.1084 16.4859Z" fill="#595751"/>
<path d="M24.6109 18.2419V16.9548C24.6109 16.696 24.3859 16.486 24.1087 16.486H22.1731C22.9124 16.9219 23.4031 17.6916 23.4031 18.5682C23.4031 18.616 23.4016 18.6638 23.3985 18.7107H24.1087C24.3859 18.7107 24.6109 18.5012 24.6109 18.2419Z" fill="#44433F"/>
<path d="M24.1084 12.7554H21.8223C21.5449 12.7554 21.3201 12.9653 21.3201 13.2242V14.5115C21.3201 14.7704 21.5449 14.9802 21.8223 14.9802H24.1084C24.3858 14.9802 24.6106 14.7704 24.6106 14.5115V13.2242C24.6106 12.9653 24.3858 12.7554 24.1084 12.7554Z" fill="#595751"/>
<path d="M24.6109 14.5115V13.2243C24.6109 12.9655 24.3859 12.7555 24.1087 12.7555H22.1731C22.9124 13.1915 23.4031 13.9612 23.4031 14.8377C23.4031 14.8855 23.4016 14.9333 23.3985 14.9802H24.1087C24.3859 14.9802 24.6109 14.7707 24.6109 14.5115Z" fill="#44433F"/>
<path d="M24.1084 9.02517H21.8223C21.5449 9.02517 21.3201 9.23503 21.3201 9.49392V10.7812C21.3201 11.0401 21.5449 11.25 21.8223 11.25H24.1084C24.3858 11.25 24.6106 11.0401 24.6106 10.7812V9.49397C24.6106 9.23508 24.3858 9.02517 24.1084 9.02517Z" fill="#595751"/>
<path d="M24.6109 10.781V9.49382C24.6109 9.23507 24.3859 9.02507 24.1087 9.02507H22.1731C22.9124 9.461 23.4031 10.2307 23.4031 11.1073C23.4031 11.1551 23.4016 11.2029 23.3985 11.2498H24.1087C24.3859 11.2498 24.6109 11.0402 24.6109 10.781Z" fill="#44433F"/>
<path d="M24.1084 5.29499H21.8223C21.5449 5.29499 21.3201 5.50485 21.3201 5.76374V7.05103C21.3201 7.30992 21.5449 7.51978 21.8223 7.51978H24.1084C24.3858 7.51978 24.6106 7.30992 24.6106 7.05103V5.76374C24.6106 5.50485 24.3858 5.29499 24.1084 5.29499Z" fill="#595751"/>
<path d="M24.6109 7.05103V5.76384C24.6109 5.50509 24.3859 5.29509 24.1087 5.29509H22.1731C22.9124 5.73103 23.4031 6.50071 23.4031 7.37728C23.4031 7.42509 23.4016 7.4729 23.3985 7.51978H24.1087C24.3859 7.51978 24.6109 7.31024 24.6109 7.05103Z" fill="#44433F"/>
<path d="M16.326 11.0102L11.7894 8.32615C10.9537 7.83162 9.86182 8.39178 9.86182 9.31568V9.84584C12.3378 9.94381 14.3226 11.8104 14.4045 14.1265L16.326 12.9897C17.1035 12.5294 17.1035 11.4701 16.326 11.0102Z" fill="#D8D4C9"/>
</g>
<defs>
<clipPath id="clip0">
<rect width="25.7143" height="24" fill="white" transform="matrix(1 0 0 -1 0.785645 24)"/>
</clipPath>
</defs>
</svg>
