<svg width="25" height="24" viewBox="0 0 25 24" fill="none" xmlns="http://www.w3.org/2000/svg">
<path d="M20.8333 24H4.16667C2.144 24 0.5 22.767 0.5 21.25V5.75C0.5 4.233 2.144 3 4.16667 3H20.8333C22.856 3 24.5 4.233 24.5 5.75V21.25C24.5 22.767 22.856 24 20.8333 24Z" fill="#2196F3"/>
<path d="M16.8336 6.00002H8.16685C6.88017 6.00002 5.8335 5.21502 5.8335 4.25001V2.75001C5.8335 2.33601 6.2815 2.00001 6.8335 2.00001H8.97219C9.40952 0.847003 10.8242 0 12.5002 0C14.1762 0 15.5909 0.847003 16.0282 2.00001H18.1669C18.7189 2.00001 19.1669 2.33601 19.1669 2.75001V4.25001C19.1669 5.21502 18.1203 6.00002 16.8336 6.00002Z" fill="#1976D2"/>
<path d="M5.8333 3H4.16665C2.14399 3 0.5 4.233 0.5 5.75V21.25C0.5 22.767 2.14399 24 4.16665 24H12.4999V6H8.16662C6.87996 6 5.8333 5.215 5.8333 4.25V3Z" fill="#1D83D4"/>
<path d="M12.5002 0C10.8242 0 9.4095 0.847003 8.97217 2.00001H6.8335C6.2815 2.00001 5.8335 2.33601 5.8335 2.75001V3.00001V4.25001C5.8335 5.21502 6.88017 6.00002 8.16683 6.00002H12.5002V0Z" fill="#1667B7"/>
<path d="M19.5001 19.25H5.50024C4.94824 19.25 4.50024 18.914 4.50024 18.5C4.50024 18.086 4.94824 17.75 5.50024 17.75H19.5001C20.0521 17.75 20.5001 18.086 20.5001 18.5C20.5001 18.914 20.0521 19.25 19.5001 19.25Z" fill="white"/>
<path d="M19.5001 22H5.50024C4.94824 22 4.50024 21.664 4.50024 21.25C4.50024 20.836 4.94824 20.5 5.50024 20.5H19.5001C20.0521 20.5 20.5001 20.836 20.5001 21.25C20.5001 21.664 20.0521 22 19.5001 22Z" fill="white"/>
<path d="M12.5002 17.75H5.50023C4.94824 17.75 4.50024 18.086 4.50024 18.5C4.50024 18.914 4.94824 19.25 5.50023 19.25H12.5002V17.75Z" fill="#DEDEDE"/>
<path d="M12.5002 20.5H5.50023C4.94824 20.5 4.50024 20.836 4.50024 21.25C4.50024 21.664 4.94824 22 5.50023 22H12.5002V20.5Z" fill="#DEDEDE"/>
<path d="M12.8335 11.5C12.2815 11.5 11.8335 11.164 11.8335 10.75V10.5H6.50022V10.75C6.50022 11.164 6.05222 11.5 5.50023 11.5C4.94824 11.5 4.50024 11.164 4.50024 10.75V9.75C4.50024 9.336 4.94824 9 5.50023 9H12.8335C13.3855 9 13.8334 9.336 13.8334 9.75V10.75C13.8334 11.164 13.3855 11.5 12.8335 11.5Z" fill="white"/>
<path d="M9.16651 16.21C8.61451 16.21 8.1665 15.9 8.1665 15.518V9.98204C8.1665 9.60004 8.61451 9.29004 9.16651 9.29004C9.71851 9.29004 10.1665 9.60004 10.1665 9.98204V15.518C10.1665 15.9 9.71851 16.21 9.16651 16.21Z" fill="white"/>
<path d="M10.5003 16.5H7.83353C7.28151 16.5 6.8335 16.164 6.8335 15.75C6.8335 15.336 7.28151 15 7.83353 15H10.5003C11.0523 15 11.5003 15.336 11.5003 15.75C11.5003 16.164 11.0523 16.5 10.5003 16.5Z" fill="white"/>
<path d="M9.16678 9H5.50022C4.94823 9 4.50024 9.336 4.50024 9.75V10.75C4.50024 11.164 4.94823 11.5 5.50022 11.5C6.0522 11.5 6.50019 11.164 6.50019 10.75V10.5H8.16681V9.982C8.16681 9.6 8.61479 9.29 9.16678 9.29V9Z" fill="#DEDEDE"/>
<path d="M9.1663 9.29004C8.61428 9.29004 8.16626 9.60004 8.16626 9.98204V10.5V15H9.1663V9.29004Z" fill="#DEDEDE"/>
<path d="M9.16683 15H8.16683H7.8335C7.2815 15 6.8335 15.336 6.8335 15.75C6.8335 16.164 7.2815 16.5 7.8335 16.5H9.16683V15Z" fill="#DEDEDE"/>
<path d="M19.4998 10.5H16.1665C15.6145 10.5 15.1665 10.164 15.1665 9.75C15.1665 9.336 15.6145 9 16.1665 9H19.4998C20.0518 9 20.4998 9.336 20.4998 9.75C20.4998 10.164 20.0518 10.5 19.4998 10.5Z" fill="white"/>
<path d="M19.4998 13.5H16.1665C15.6145 13.5 15.1665 13.164 15.1665 12.75C15.1665 12.336 15.6145 12 16.1665 12H19.4998C20.0518 12 20.4998 12.336 20.4998 12.75C20.4998 13.164 20.0518 13.5 19.4998 13.5Z" fill="white"/>
<path d="M19.4998 16.5H16.1665C15.6145 16.5 15.1665 16.164 15.1665 15.75C15.1665 15.336 15.6145 15 16.1665 15H19.4998C20.0518 15 20.4998 15.336 20.4998 15.75C20.4998 16.164 20.0518 16.5 19.4998 16.5Z" fill="white"/>
<path d="M17.8331 9H16.1665C15.6145 9 15.1665 9.336 15.1665 9.75C15.1665 10.164 15.6145 10.5 16.1665 10.5H17.8331V9Z" fill="#DEDEDE"/>
<path d="M17.8331 12H16.1665C15.6145 12 15.1665 12.336 15.1665 12.75C15.1665 13.164 15.6145 13.5 16.1665 13.5H17.8331V12Z" fill="#DEDEDE"/>
<path d="M17.8331 15H16.1665C15.6145 15 15.1665 15.336 15.1665 15.75C15.1665 16.164 15.6145 16.5 16.1665 16.5H17.8331V15Z" fill="#DEDEDE"/>
</svg>
