<svg width="40" height="40" viewBox="0 0 40 40" fill="none" xmlns="http://www.w3.org/2000/svg">
<path fill-rule="evenodd" clip-rule="evenodd" d="M26.5834 4.71675C30.6334 6.45009 33.8667 9.76676 35.5 13.8834C35.7167 14.4168 35.3 15.0001 34.7167 15.0001H21.25C20.6 15.0001 20.2 14.3001 20.5167 13.7668L25.5334 5.08342C25.75 4.71675 26.2 4.55009 26.5834 4.71675ZM25.2834 16.6668H35.6167C35.8191 16.664 36.0155 16.7354 36.169 16.8674C36.3225 16.9994 36.4224 17.1829 36.45 17.3834C37.1667 21.9834 35.9334 26.7334 33.0334 30.3668C32.6667 30.8168 31.95 30.7334 31.6667 30.2334L24.5667 17.9168C24.2334 17.3668 24.65 16.6668 25.2834 16.6668ZM3.90654 15.786C4.49437 13.5522 5.53607 11.4635 6.96669 9.65009C7.31669 9.20009 8.03336 9.28342 8.33336 9.78342L15.4334 22.0834C15.7667 22.6334 15.35 23.3334 14.7167 23.3334H4.38336C3.96669 23.3334 3.60003 23.0334 3.55003 22.6334C3.19735 20.3507 3.31871 18.0198 3.90654 15.786ZM13.4167 35.2834C9.36669 33.5501 6.13336 30.2334 4.50003 26.1168C4.28336 25.5834 4.70003 25.0001 5.28336 24.9834H18.7667C18.9122 24.9853 19.0546 25.025 19.18 25.0988C19.3054 25.1725 19.4094 25.2777 19.4818 25.4039C19.5542 25.5301 19.5924 25.673 19.5926 25.8184C19.5929 25.9639 19.5552 26.1069 19.4834 26.2334L14.4667 34.9168C14.25 35.2834 13.8 35.4501 13.4167 35.2834ZM29.95 33.3834C26.3834 36.0168 21.9167 37.1001 17.55 36.4834C16.9834 36.4001 16.6834 35.7334 16.9667 35.2334L23.7 23.5834C23.7747 23.4577 23.8808 23.3536 24.0079 23.2812C24.1351 23.2089 24.2788 23.1709 24.425 23.1709C24.5713 23.1709 24.715 23.2089 24.8421 23.2812C24.9692 23.3536 25.0753 23.4577 25.15 23.5834L30.1667 32.2834C30.3834 32.6501 30.2834 33.1334 29.95 33.3834Z" fill="url(#paint0_linear)"/>
<path d="M23.0167 4.76675C23.3 4.26675 23.0167 3.60009 22.4334 3.53342C18.0667 2.91675 13.6 4.00009 10.0334 6.63342C9.71669 6.88342 9.61669 7.35009 9.83336 7.71676L14.85 16.4168C15.1667 16.9668 15.9667 16.9668 16.3 16.4168L23.0167 4.76675Z" fill="url(#paint1_linear)"/>
<defs>
<linearGradient id="paint0_linear" x1="20.0011" y1="3.36475" x2="20.0011" y2="36.6521" gradientUnits="userSpaceOnUse">
<stop stop-color="#5CCE26"/>
<stop offset="1" stop-color="#FFDA2D"/>
</linearGradient>
<linearGradient id="paint1_linear" x1="20.0011" y1="3.36475" x2="20.0011" y2="36.6521" gradientUnits="userSpaceOnUse">
<stop stop-color="#5CCE26"/>
<stop offset="1" stop-color="#FFDA2D"/>
</linearGradient>
</defs>
</svg>
